<svg width="1656" height="353" viewBox="0 0 1656 353" fill="none" xmlns="http://www.w3.org/2000/svg">
<line y1="-2" x2="21.095" y2="-2" transform="matrix(0.52145 -0.853282 -0.853282 -0.52145 1104 276)" stroke="#73F8BE" stroke-width="4"/>
<line x1="1183.29" y1="127.043" x2="1172.29" y2="109.043" stroke="#C8BBE9" stroke-width="4"/>
<line x1="1654.29" y1="164.043" x2="1643.29" y2="146.043" stroke="#C8BBE9" stroke-width="4"/>
<line x1="1445.29" y1="84.0429" x2="1434.29" y2="66.0429" stroke="#73F8BE" stroke-width="4"/>
<line y1="-2" x2="21.095" y2="-2" transform="matrix(0.52145 -0.853282 -0.853282 -0.52145 1535 142)" stroke="#72F9F5" stroke-width="4"/>
<line y1="-2" x2="21.095" y2="-2" transform="matrix(0.52145 -0.853282 -0.853282 -0.52145 1278 142)" stroke="#FFF77C" stroke-width="4"/>
<rect x="1245" y="33" width="38" height="24" rx="8" fill="#73F8BE"/>
<rect x="1285" y="33" width="38" height="24" rx="8" fill="#73F8BE"/>
<rect x="1245" y="59" width="38" height="24" rx="8" fill="#73F8BE"/>
<rect x="1285" y="59" width="38" height="24" rx="8" fill="#73F8BE"/>
<rect x="976" y="291" width="38" height="24" rx="8" fill="#C8BBE9"/>
<rect x="1016" y="291" width="38" height="24" rx="8" fill="#C8BBE9"/>
<rect x="976" y="317" width="38" height="24" rx="8" fill="#C8BBE9"/>
<rect x="1016" y="317" width="38" height="24" rx="8" fill="#C8BBE9"/>
<path d="M1364.7 198C1369.11 198 1372.7 201.582 1372.7 206H1373C1377.42 206 1381 209.582 1381 214V215C1381 219.418 1377.42 223 1373 223H1372.7V223.221C1372.7 227.639 1369.11 231.22 1364.7 231.221H1319C1314.58 231.221 1311 227.639 1311 223.221V206C1311 201.582 1314.58 198 1319 198H1364.7Z" fill="#72F9F5"/>
<circle cx="1131" cy="181" r="27" fill="#C8BBE9"/>
<path d="M1157.44 182.83L1156.48 182.535L1157.44 182.83ZM1157.38 184.083L1156.4 184.28L1157.38 184.083ZM1157.64 185.371L1158.62 185.175L1157.64 185.371ZM1157.45 186.581L1158.33 187.061L1157.45 186.581ZM1156.84 187.714L1155.96 187.234L1156.84 187.714ZM1156.27 188.839L1155.36 188.426V188.426L1156.27 188.839ZM1155.76 189.958L1156.68 190.371V190.371L1155.76 189.958ZM1155.45 191.166L1154.45 191.072L1155.45 191.166ZM1155.39 191.814L1156.38 191.908L1155.39 191.814ZM1155.08 193.734L1154.12 193.448L1155.08 193.734ZM1154.71 194.979L1153.75 194.693L1154.71 194.979ZM1153.92 195.948L1154.42 196.815L1153.92 195.948ZM1153.32 196.293L1152.82 195.426L1153.32 196.293ZM1152.71 196.639L1152.22 195.772L1152.71 196.639ZM1151.9 197.626L1152.86 197.932L1151.9 197.626ZM1151.49 198.909L1152.45 199.215L1151.49 198.909ZM1150.64 199.781L1150.97 200.724L1150.64 199.781ZM1149.99 200.012L1149.65 199.069L1149.99 200.012ZM1149.34 200.242L1149.01 199.3L1149.34 200.242ZM1148.21 200.846L1148.82 201.635L1148.21 200.846ZM1147.25 201.592L1146.64 200.803L1147.25 201.592ZM1146.45 202.599L1145.56 202.146L1146.45 202.599ZM1144.93 204.82L1144.43 203.955L1144.93 204.82ZM1143.82 205.462L1143.32 204.597L1143.82 205.462ZM1142.61 205.85L1142.71 206.845L1142.61 205.85ZM1141.95 205.916L1141.85 204.921L1141.95 205.916ZM1141.29 205.983L1141.19 204.988L1141.29 205.983ZM1140.05 206.276L1140.42 207.208L1140.05 206.276ZM1139.47 206.503L1139.11 205.571L1139.47 206.503ZM1138.89 206.729L1139.26 207.661L1138.89 206.729ZM1137.69 207.028L1137.81 208.021L1137.69 207.028ZM1136.45 207.171L1136.57 208.164L1136.45 207.171ZM1135.21 207.185L1135.3 206.189L1135.21 207.185ZM1134.58 207.127L1134.67 206.132L1134.58 207.127ZM1133.96 207.07L1133.87 208.066V208.066L1133.96 207.07ZM1132.73 207.446L1132.15 206.632L1132.73 207.446ZM1132.12 207.879L1132.7 208.692L1132.12 207.879ZM1130.28 208.648L1130.12 209.637L1130.28 208.648ZM1129.01 208.453L1129.16 207.465L1129.01 208.453ZM1127.72 208.371L1127.7 207.371L1127.72 208.371ZM1126.42 208.401L1126.4 207.401L1126.42 208.401ZM1125.18 208.149L1124.77 209.061L1125.18 208.149ZM1124.58 207.882L1124.99 206.97L1124.58 207.882ZM1123.99 207.615L1123.58 208.528L1123.99 207.615ZM1122.78 207.18L1122.52 208.144L1122.78 207.18ZM1122.16 207.011L1122.43 206.047L1122.16 207.011ZM1121.55 206.843L1121.29 207.807L1121.55 206.843ZM1120.32 206.47L1120.64 205.521L1120.32 206.47ZM1119.1 206.061L1119.42 205.113L1119.1 206.061ZM1118.06 205.339L1118.82 204.696L1118.06 205.339ZM1117.19 204.303L1116.42 204.945L1117.19 204.303ZM1116.34 203.306L1115.58 203.962L1116.34 203.306ZM1115.51 202.349L1116.26 201.693L1115.51 202.349ZM1113.71 201.575L1113.5 202.553L1113.71 201.575ZM1113.02 201.428L1113.23 200.45L1113.02 201.428ZM1111.98 200.74L1112.82 200.194L1111.98 200.74ZM1111.63 200.2L1112.47 199.654L1111.63 200.2ZM1111.28 199.659L1110.44 200.205L1111.28 199.659ZM1110.69 198.513L1111.63 198.154L1110.69 198.513ZM1110.23 197.3L1109.29 197.66L1110.23 197.3ZM1109.57 196.242L1110.3 195.559L1109.57 196.242ZM1108.73 195.339L1108 196.022L1108.73 195.339ZM1108.08 194.312L1107.15 194.675L1108.08 194.312ZM1107.85 193.737L1108.79 193.373L1107.85 193.737ZM1107.63 193.162L1106.7 193.525L1107.63 193.162ZM1106.72 190.899L1105.79 191.277L1106.72 190.899ZM1106.02 189.838L1106.75 189.154L1106.02 189.838ZM1105.09 188.839L1104.36 189.523L1105.09 188.839ZM1104.53 187.713L1103.54 187.849L1104.53 187.713ZM1104.39 185.191L1103.4 185.016L1104.39 185.191ZM1104.5 184.551L1103.52 184.376L1104.5 184.551ZM1104.68 182.661L1103.68 182.747L1104.68 182.661ZM1104.73 179.004L1103.74 178.887L1104.73 179.004ZM1104.74 177.764L1103.75 177.867L1104.74 177.764ZM1104.91 175.325L1104.09 174.76L1104.91 175.325ZM1106.32 171.879L1107.3 172.038L1106.32 171.879ZM1106.64 170.699L1105.7 170.338L1106.64 170.699ZM1107.08 169.554L1108.01 169.915L1107.08 169.554ZM1107.72 168.517L1108.46 169.184L1107.72 168.517ZM1108.55 167.589L1109.29 168.256L1108.55 167.589ZM1109.11 166.48L1108.14 166.255L1109.11 166.48ZM1109.26 165.835L1110.24 166.06L1109.26 165.835ZM1110.51 163.725L1109.86 162.967L1110.51 163.725ZM1110.99 163.314L1110.33 162.557L1110.99 163.314ZM1111.99 162.571L1111.46 161.725L1111.99 162.571ZM1113.05 161.906L1113.58 162.753L1113.05 161.906ZM1114 161.132L1113.28 160.44L1114 161.132ZM1114.85 160.249L1115.57 160.941L1114.85 160.249ZM1115.61 159.184L1116.49 159.658V159.658L1115.61 159.184ZM1116.28 157.938L1115.4 157.465L1116.28 157.938ZM1117.35 157.359L1117.29 158.357L1117.35 157.359ZM1119.96 156.879L1120.79 157.441L1119.96 156.879ZM1120.79 155.657L1119.97 155.095L1120.79 155.657ZM1124.46 154.861L1124.24 153.887L1124.46 154.861ZM1126.91 154.451L1126.89 155.45L1126.91 154.451ZM1128.17 154.478L1128.15 155.478L1128.17 154.478ZM1129.41 154.254L1129.77 155.188L1129.41 154.254ZM1130.03 154.017L1129.67 153.083L1130.03 154.017ZM1130.65 153.779L1131.01 154.712L1130.65 153.779ZM1131.87 153.845L1132.32 152.951L1131.87 153.845ZM1132.48 154.15L1132.03 155.044L1132.48 154.15ZM1133.09 154.454L1133.53 153.56L1133.09 154.454ZM1134.29 154.886L1134.08 155.864L1134.29 154.886ZM1136.66 155.433L1136.93 154.469L1136.66 155.433ZM1137.83 155.755L1137.57 156.719L1137.83 155.755ZM1139.08 155.883L1139.03 154.884L1139.08 155.883ZM1139.74 155.851L1139.7 154.852L1139.74 155.851ZM1140.41 155.819L1140.46 156.818L1140.41 155.819ZM1141.58 156.165L1142.18 155.36L1141.58 156.165ZM1142.61 156.92L1142.01 157.724L1142.61 156.92ZM1143.81 157.36L1143.72 158.356L1143.81 157.36ZM1144.5 157.423L1144.59 156.427L1144.5 157.423ZM1146.16 158.231L1145.23 158.614L1146.16 158.231ZM1146.72 159.598L1145.8 159.98L1146.72 159.598ZM1147.63 160.496L1147.96 159.55L1147.63 160.496ZM1148.89 160.925L1149.21 159.979L1148.89 160.925ZM1149.9 161.636L1149.11 162.25L1149.9 161.636ZM1150.67 162.629L1151.46 162.016L1150.67 162.629ZM1151.36 163.673L1152.24 163.186L1151.36 163.673ZM1151.67 164.22L1150.8 164.707L1151.67 164.22ZM1151.97 164.767L1151.1 165.254L1151.97 164.767ZM1152.85 165.684L1152.3 166.523L1152.85 165.684ZM1154.95 167.31L1154.15 167.911L1154.95 167.31ZM1155.73 168.347L1154.93 168.947L1155.73 168.347ZM1156.22 169.516L1157.2 169.363L1156.22 169.516ZM1156.42 170.817L1155.43 170.969L1156.42 170.817ZM1156.64 172.088L1157.62 171.901L1156.64 172.088ZM1156.75 172.708L1157.74 172.521L1156.75 172.708ZM1156.87 173.328L1155.89 173.516L1156.87 173.328ZM1157.3 174.526L1158.18 174.049L1157.3 174.526ZM1157.93 175.68L1157.05 176.157L1157.93 175.68ZM1158.28 176.895L1157.29 176.961L1158.28 176.895ZM1158.37 178.171L1157.37 178.236L1158.37 178.171ZM1158.47 179.356L1159.46 179.254L1158.47 179.356ZM1158.58 180.452L1157.59 180.555L1158.58 180.452ZM1157.81 181.61L1158.77 181.904L1157.81 181.61ZM1157.62 182.22L1156.67 181.925L1156.48 182.535L1157.44 182.83L1158.39 183.124L1158.58 182.514L1157.62 182.22ZM1157.44 182.83L1156.48 182.535C1156.31 183.105 1156.28 183.692 1156.4 184.28L1157.38 184.083L1158.36 183.887C1158.3 183.616 1158.32 183.367 1158.39 183.124L1157.44 182.83ZM1157.38 184.083L1156.4 184.28L1156.53 184.924L1157.51 184.727L1158.49 184.531L1158.36 183.887L1157.38 184.083ZM1157.51 184.727L1156.53 184.924L1156.65 185.567L1157.64 185.371L1158.62 185.175L1158.49 184.531L1157.51 184.727ZM1157.64 185.371L1156.65 185.567C1156.7 185.771 1156.67 185.934 1156.58 186.102L1157.45 186.581L1158.33 187.061C1158.65 186.473 1158.75 185.83 1158.62 185.175L1157.64 185.371ZM1157.45 186.581L1156.58 186.102L1156.27 186.668L1157.15 187.147L1158.02 187.627L1158.33 187.061L1157.45 186.581ZM1157.15 187.147L1156.27 186.668L1155.96 187.234L1156.84 187.714L1157.71 188.193L1158.02 187.627L1157.15 187.147ZM1156.84 187.714L1155.96 187.234C1155.74 187.632 1155.54 188.029 1155.36 188.426L1156.27 188.839L1157.18 189.253C1157.34 188.903 1157.52 188.55 1157.71 188.193L1156.84 187.714ZM1156.27 188.839L1155.36 188.426L1155.11 188.985L1156.02 189.399L1156.93 189.812L1157.18 189.253L1156.27 188.839ZM1156.02 189.399L1155.11 188.985L1154.85 189.544L1155.76 189.958L1156.68 190.371L1156.93 189.812L1156.02 189.399ZM1155.76 189.958L1154.85 189.544C1154.64 190.024 1154.5 190.536 1154.45 191.072L1155.45 191.166L1156.44 191.26C1156.48 190.931 1156.55 190.637 1156.68 190.371L1155.76 189.958ZM1155.45 191.166L1154.45 191.072L1154.39 191.72L1155.39 191.814L1156.38 191.908L1156.44 191.26L1155.45 191.166ZM1155.39 191.814L1154.39 191.72L1154.33 192.369L1155.33 192.463L1156.32 192.557L1156.38 191.908L1155.39 191.814ZM1155.33 192.463L1154.33 192.369C1154.3 192.736 1154.23 193.096 1154.12 193.448L1155.08 193.734L1156.04 194.02C1156.18 193.542 1156.28 193.054 1156.32 192.557L1155.33 192.463ZM1155.08 193.734L1154.12 193.448L1153.94 194.071L1154.89 194.357L1155.85 194.643L1156.04 194.02L1155.08 193.734ZM1154.89 194.357L1153.94 194.071L1153.75 194.693L1154.71 194.979L1155.67 195.265L1155.85 194.643L1154.89 194.357ZM1154.71 194.979L1153.75 194.693C1153.7 194.844 1153.62 194.967 1153.42 195.08L1153.92 195.948L1154.42 196.815C1155.02 196.467 1155.46 195.944 1155.67 195.265L1154.71 194.979ZM1153.92 195.948L1153.42 195.08L1152.82 195.426L1153.32 196.293L1153.81 197.161L1154.42 196.815L1153.92 195.948ZM1153.32 196.293L1152.82 195.426L1152.22 195.772L1152.71 196.639L1153.21 197.507L1153.81 197.161L1153.32 196.293ZM1152.71 196.639L1152.22 195.772C1151.61 196.122 1151.17 196.648 1150.95 197.321L1151.9 197.626L1152.86 197.932C1152.92 197.75 1153.02 197.617 1153.21 197.507L1152.71 196.639ZM1151.9 197.626L1150.95 197.321L1150.75 197.963L1151.7 198.268L1152.65 198.573L1152.86 197.932L1151.9 197.626ZM1151.7 198.268L1150.75 197.963L1150.54 198.604L1151.49 198.909L1152.45 199.215L1152.65 198.573L1151.7 198.268ZM1151.49 198.909L1150.54 198.604C1150.5 198.727 1150.45 198.787 1150.3 198.839L1150.64 199.781L1150.97 200.724C1151.69 200.469 1152.21 199.947 1152.45 199.215L1151.49 198.909ZM1150.64 199.781L1150.3 198.839L1149.65 199.069L1149.99 200.012L1150.32 200.954L1150.97 200.724L1150.64 199.781ZM1149.99 200.012L1149.65 199.069L1149.01 199.3L1149.34 200.242L1149.67 201.184L1150.32 200.954L1149.99 200.012ZM1149.34 200.242L1149.01 199.3C1148.48 199.484 1148.01 199.734 1147.6 200.056L1148.21 200.846L1148.82 201.635C1149.05 201.46 1149.33 201.307 1149.67 201.184L1149.34 200.242ZM1148.21 200.846L1147.6 200.056L1147.12 200.429L1147.73 201.219L1148.34 202.009L1148.82 201.635L1148.21 200.846ZM1147.73 201.219L1147.12 200.429L1146.64 200.803L1147.25 201.592L1147.86 202.382L1148.34 202.009L1147.73 201.219ZM1147.25 201.592L1146.64 200.803C1146.18 201.156 1145.83 201.615 1145.56 202.146L1146.45 202.599L1147.34 203.052C1147.5 202.739 1147.68 202.526 1147.86 202.382L1147.25 201.592ZM1146.45 202.599L1145.56 202.146L1145.23 202.779L1146.13 203.232L1147.02 203.685L1147.34 203.052L1146.45 202.599ZM1146.13 203.232L1145.23 202.779L1144.91 203.413L1145.8 203.866L1146.7 204.318L1147.02 203.685L1146.13 203.232ZM1145.8 203.866L1144.91 203.413C1144.78 203.683 1144.61 203.849 1144.43 203.955L1144.93 204.82L1145.43 205.685C1145.99 205.363 1146.4 204.893 1146.7 204.318L1145.8 203.866ZM1144.93 204.82L1144.43 203.955L1143.87 204.276L1144.38 205.141L1144.88 206.006L1145.43 205.685L1144.93 204.82ZM1144.38 205.141L1143.87 204.276L1143.32 204.597L1143.82 205.462L1144.33 206.327L1144.88 206.006L1144.38 205.141ZM1143.82 205.462L1143.32 204.597C1143.08 204.737 1142.81 204.824 1142.51 204.855L1142.61 205.85L1142.71 206.845C1143.29 206.786 1143.83 206.615 1144.33 206.327L1143.82 205.462ZM1142.61 205.85L1142.51 204.855L1141.85 204.921L1141.95 205.916L1142.05 206.911L1142.71 206.845L1142.61 205.85ZM1141.95 205.916L1141.85 204.921L1141.19 204.988L1141.29 205.983L1141.39 206.978L1142.05 206.911L1141.95 205.916ZM1141.29 205.983L1141.19 204.988C1140.67 205.041 1140.17 205.159 1139.69 205.345L1140.05 206.276L1140.42 207.208C1140.71 207.092 1141.04 207.014 1141.39 206.978L1141.29 205.983ZM1140.05 206.276L1139.69 205.345L1139.11 205.571L1139.47 206.503L1139.84 207.434L1140.42 207.208L1140.05 206.276ZM1139.47 206.503L1139.11 205.571L1138.53 205.798L1138.89 206.729L1139.26 207.661L1139.84 207.434L1139.47 206.503ZM1138.89 206.729L1138.53 205.798C1138.22 205.918 1137.91 205.996 1137.58 206.034L1137.69 207.028L1137.81 208.021C1138.31 207.964 1138.79 207.843 1139.26 207.661L1138.89 206.729ZM1137.69 207.028L1137.58 206.034L1136.96 206.106L1137.07 207.099L1137.19 208.093L1137.81 208.021L1137.69 207.028ZM1137.07 207.099L1136.96 206.106L1136.34 206.178L1136.45 207.171L1136.57 208.164L1137.19 208.093L1137.07 207.099ZM1136.45 207.171L1136.34 206.178C1135.99 206.217 1135.65 206.221 1135.3 206.189L1135.21 207.185L1135.11 208.181C1135.6 208.226 1136.08 208.22 1136.57 208.164L1136.45 207.171ZM1135.21 207.185L1135.3 206.189L1134.67 206.132L1134.58 207.127L1134.49 208.123L1135.11 208.181L1135.21 207.185ZM1134.58 207.127L1134.67 206.132L1134.05 206.074L1133.96 207.07L1133.87 208.066L1134.49 208.123L1134.58 207.127ZM1133.96 207.07L1134.05 206.074C1133.35 206.01 1132.71 206.231 1132.15 206.632L1132.73 207.446L1133.31 208.259C1133.56 208.082 1133.73 208.053 1133.87 208.066L1133.96 207.07ZM1132.73 207.446L1132.15 206.632L1131.54 207.066L1132.12 207.879L1132.7 208.692L1133.31 208.259L1132.73 207.446ZM1132.12 207.879L1131.54 207.066L1130.93 207.499L1131.52 208.313L1132.1 209.126L1132.7 208.692L1132.12 207.879ZM1131.52 208.313L1130.93 207.499C1130.71 207.662 1130.55 207.679 1130.43 207.66L1130.28 208.648L1130.12 209.637C1130.85 209.748 1131.52 209.541 1132.1 209.126L1131.52 208.313ZM1130.28 208.648L1130.43 207.66L1129.79 207.562L1129.64 208.551L1129.49 209.539L1130.12 209.637L1130.28 208.648ZM1129.64 208.551L1129.79 207.562L1129.16 207.465L1129.01 208.453L1128.85 209.441L1129.49 209.539L1129.64 208.551ZM1129.01 208.453L1129.16 207.465C1128.68 207.391 1128.19 207.359 1127.7 207.371L1127.72 208.371L1127.74 209.37C1128.12 209.362 1128.49 209.385 1128.85 209.441L1129.01 208.453ZM1127.72 208.371L1127.7 207.371L1127.05 207.386L1127.07 208.386L1127.09 209.385L1127.74 209.37L1127.72 208.371ZM1127.07 208.386L1127.05 207.386L1126.4 207.401L1126.42 208.401L1126.45 209.401L1127.09 209.385L1127.07 208.386ZM1126.42 208.401L1126.4 207.401C1126.12 207.408 1125.85 207.354 1125.59 207.237L1125.18 208.149L1124.77 209.061C1125.3 209.3 1125.86 209.414 1126.45 209.401L1126.42 208.401ZM1125.18 208.149L1125.59 207.237L1124.99 206.97L1124.58 207.882L1124.17 208.795L1124.77 209.061L1125.18 208.149ZM1124.58 207.882L1124.99 206.97L1124.4 206.703L1123.99 207.615L1123.58 208.528L1124.17 208.795L1124.58 207.882ZM1123.99 207.615L1124.4 206.703C1123.96 206.505 1123.5 206.342 1123.04 206.216L1122.78 207.18L1122.52 208.144C1122.87 208.243 1123.23 208.37 1123.58 208.528L1123.99 207.615ZM1122.78 207.18L1123.04 206.216L1122.43 206.047L1122.16 207.011L1121.9 207.976L1122.52 208.144L1122.78 207.18ZM1122.16 207.011L1122.43 206.047L1121.81 205.878L1121.55 206.843L1121.29 207.807L1121.9 207.976L1122.16 207.011ZM1121.55 206.843L1121.81 205.878C1121.42 205.771 1121.03 205.652 1120.64 205.521L1120.32 206.47L1120.01 207.418C1120.43 207.56 1120.86 207.69 1121.29 207.807L1121.55 206.843ZM1120.32 206.47L1120.64 205.521L1120.03 205.317L1119.71 206.265L1119.4 207.214L1120.01 207.418L1120.32 206.47ZM1119.71 206.265L1120.03 205.317L1119.42 205.113L1119.1 206.061L1118.79 207.009L1119.4 207.214L1119.71 206.265ZM1119.1 206.061L1119.42 205.113C1119.2 205.038 1119 204.908 1118.82 204.696L1118.06 205.339L1117.29 205.981C1117.69 206.461 1118.2 206.812 1118.79 207.009L1119.1 206.061ZM1118.06 205.339L1118.82 204.696L1118.39 204.178L1117.62 204.821L1116.86 205.463L1117.29 205.981L1118.06 205.339ZM1117.62 204.821L1118.39 204.178L1117.96 203.66L1117.19 204.303L1116.42 204.945L1116.86 205.463L1117.62 204.821ZM1117.19 204.303L1117.96 203.66C1117.66 203.311 1117.38 202.974 1117.09 202.65L1116.34 203.306L1115.58 203.962C1115.86 204.276 1116.14 204.604 1116.42 204.945L1117.19 204.303ZM1116.34 203.306L1117.09 202.65L1116.68 202.172L1115.92 202.827L1115.17 203.483L1115.58 203.962L1116.34 203.306ZM1115.92 202.827L1116.68 202.172L1116.26 201.693L1115.51 202.349L1114.75 203.004L1115.17 203.483L1115.92 202.827ZM1115.51 202.349L1116.26 201.693C1115.83 201.192 1115.26 200.883 1114.61 200.745L1114.4 201.722L1114.19 202.7C1114.47 202.759 1114.63 202.867 1114.75 203.004L1115.51 202.349ZM1114.4 201.722L1114.61 200.745L1113.92 200.597L1113.71 201.575L1113.5 202.553L1114.19 202.7L1114.4 201.722ZM1113.71 201.575L1113.92 200.597L1113.23 200.45L1113.02 201.428L1112.82 202.406L1113.5 202.553L1113.71 201.575ZM1113.02 201.428L1113.23 200.45C1113.01 200.401 1112.9 200.311 1112.82 200.194L1111.98 200.74L1111.15 201.286C1111.54 201.889 1112.12 202.258 1112.82 202.406L1113.02 201.428ZM1111.98 200.74L1112.82 200.194L1112.47 199.654L1111.63 200.2L1110.79 200.746L1111.15 201.286L1111.98 200.74ZM1111.63 200.2L1112.47 199.654L1112.12 199.113L1111.28 199.659L1110.44 200.205L1110.79 200.746L1111.63 200.2ZM1111.28 199.659L1112.12 199.113C1111.92 198.812 1111.76 198.493 1111.63 198.154L1110.69 198.513L1109.76 198.872C1109.94 199.341 1110.17 199.786 1110.44 200.205L1111.28 199.659ZM1110.69 198.513L1111.63 198.154L1111.39 197.547L1110.46 197.907L1109.53 198.266L1109.76 198.872L1110.69 198.513ZM1110.46 197.907L1111.39 197.547L1111.16 196.941L1110.23 197.3L1109.29 197.66L1109.53 198.266L1110.46 197.907ZM1110.23 197.3L1111.16 196.941C1110.96 196.423 1110.68 195.959 1110.3 195.559L1109.57 196.242L1108.84 196.925C1109.03 197.128 1109.18 197.369 1109.29 197.66L1110.23 197.3ZM1109.57 196.242L1110.3 195.559L1109.88 195.107L1109.15 195.79L1108.42 196.474L1108.84 196.925L1109.57 196.242ZM1109.15 195.79L1109.88 195.107L1109.46 194.656L1108.73 195.339L1108 196.022L1108.42 196.474L1109.15 195.79ZM1108.73 195.339L1109.46 194.656C1109.26 194.447 1109.11 194.213 1109.01 193.948L1108.08 194.312L1107.15 194.675C1107.34 195.177 1107.63 195.628 1108 196.022L1108.73 195.339ZM1108.08 194.312L1109.01 193.948L1108.79 193.373L1107.85 193.737L1106.92 194.1L1107.15 194.675L1108.08 194.312ZM1107.85 193.737L1108.79 193.373L1108.56 192.798L1107.63 193.162L1106.7 193.525L1106.92 194.1L1107.85 193.737ZM1107.63 193.162L1108.56 192.798C1108.41 192.41 1108.26 192.026 1108.1 191.646L1107.18 192.024L1106.25 192.402C1106.4 192.772 1106.55 193.147 1106.7 193.525L1107.63 193.162ZM1107.18 192.024L1108.1 191.646L1107.87 191.084L1106.95 191.462L1106.02 191.84L1106.25 192.402L1107.18 192.024ZM1106.95 191.462L1107.87 191.084L1107.64 190.521L1106.72 190.899L1105.79 191.277L1106.02 191.84L1106.95 191.462ZM1106.72 190.899L1107.64 190.521C1107.44 190.02 1107.13 189.565 1106.75 189.154L1106.02 189.838L1105.29 190.521C1105.53 190.776 1105.69 191.028 1105.79 191.277L1106.72 190.899ZM1106.02 189.838L1106.75 189.154L1106.28 188.655L1105.55 189.339L1104.82 190.022L1105.29 190.521L1106.02 189.838ZM1105.55 189.339L1106.28 188.655L1105.82 188.156L1105.09 188.839L1104.36 189.523L1104.82 190.022L1105.55 189.339ZM1105.09 188.839L1105.82 188.156C1105.63 187.962 1105.55 187.773 1105.52 187.576L1104.53 187.713L1103.54 187.849C1103.63 188.489 1103.92 189.052 1104.36 189.523L1105.09 188.839ZM1104.53 187.713L1105.52 187.576L1105.44 186.949L1104.45 187.085L1103.46 187.222L1103.54 187.849L1104.53 187.713ZM1104.45 187.085L1105.44 186.949L1105.35 186.321L1104.36 186.458L1103.37 186.594L1103.46 187.222L1104.45 187.085ZM1104.36 186.458L1105.35 186.321C1105.31 186.009 1105.31 185.692 1105.37 185.366L1104.39 185.191L1103.4 185.016C1103.31 185.542 1103.3 186.07 1103.37 186.594L1104.36 186.458ZM1104.39 185.191L1105.37 185.366L1105.48 184.726L1104.5 184.551L1103.52 184.376L1103.4 185.016L1104.39 185.191ZM1104.5 184.551L1105.48 184.726L1105.6 184.086L1104.61 183.911L1103.63 183.736L1103.52 184.376L1104.5 184.551ZM1104.61 183.911L1105.6 184.086C1105.69 183.579 1105.71 183.075 1105.67 182.575L1104.68 182.661L1103.68 182.747C1103.71 183.062 1103.69 183.391 1103.63 183.736L1104.61 183.911ZM1104.68 182.661L1105.67 182.575L1105.62 181.965L1104.62 182.05L1103.63 182.136L1103.68 182.747L1104.68 182.661ZM1104.62 182.05L1105.62 181.965L1105.57 181.354L1104.57 181.439L1103.57 181.525L1103.63 182.136L1104.62 182.05ZM1104.57 181.439L1105.57 181.354C1105.54 181.014 1105.54 180.676 1105.58 180.338L1104.59 180.221L1103.6 180.103C1103.54 180.576 1103.53 181.05 1103.57 181.525L1104.57 181.439ZM1104.59 180.221L1105.58 180.338L1105.65 179.73L1104.66 179.612L1103.67 179.495L1103.6 180.103L1104.59 180.221ZM1104.66 179.612L1105.65 179.73L1105.73 179.122L1104.73 179.004L1103.74 178.887L1103.67 179.495L1104.66 179.612ZM1104.73 179.004L1105.73 179.122C1105.78 178.64 1105.79 178.153 1105.73 177.66L1104.74 177.764L1103.75 177.867C1103.78 178.218 1103.78 178.557 1103.74 178.887L1104.73 179.004ZM1104.74 177.764L1105.73 177.66L1105.67 177.028L1104.67 177.131L1103.68 177.235L1103.75 177.867L1104.74 177.764ZM1104.67 177.131L1105.67 177.028L1105.6 176.395L1104.61 176.499L1103.61 176.602L1103.68 177.235L1104.67 177.131ZM1104.61 176.499L1105.6 176.395C1105.58 176.217 1105.62 176.062 1105.74 175.891L1104.91 175.325L1104.09 174.76C1103.71 175.31 1103.54 175.937 1103.61 176.602L1104.61 176.499ZM1104.91 175.325L1105.74 175.891L1106.11 175.35L1105.28 174.785L1104.46 174.22L1104.09 174.76L1104.91 175.325ZM1105.28 174.785L1106.11 175.35L1106.48 174.809L1105.65 174.244L1104.83 173.679L1104.46 174.22L1105.28 174.785ZM1105.65 174.244L1106.48 174.809C1106.8 174.335 1107.02 173.814 1107.11 173.254L1106.12 173.095L1105.13 172.937C1105.09 173.187 1105 173.432 1104.83 173.679L1105.65 174.244ZM1106.12 173.095L1107.11 173.254L1107.21 172.646L1106.22 172.487L1105.23 172.329L1105.13 172.937L1106.12 173.095ZM1106.22 172.487L1107.21 172.646L1107.3 172.038L1106.32 171.879L1105.33 171.721L1105.23 172.329L1106.22 172.487ZM1106.32 171.879L1107.3 172.038C1107.36 171.702 1107.45 171.376 1107.57 171.06L1106.64 170.699L1105.7 170.338C1105.53 170.785 1105.41 171.246 1105.33 171.721L1106.32 171.879ZM1106.64 170.699L1107.57 171.06L1107.79 170.487L1106.86 170.126L1105.93 169.765L1105.7 170.338L1106.64 170.699ZM1106.86 170.126L1107.79 170.487L1108.01 169.915L1107.08 169.554L1106.15 169.192L1105.93 169.765L1106.86 170.126ZM1107.08 169.554L1108.01 169.915C1108.12 169.647 1108.26 169.405 1108.46 169.184L1107.72 168.517L1106.97 167.85C1106.62 168.248 1106.34 168.697 1106.15 169.192L1107.08 169.554ZM1107.72 168.517L1108.46 169.184L1108.88 168.72L1108.13 168.053L1107.39 167.386L1106.97 167.85L1107.72 168.517ZM1108.13 168.053L1108.88 168.72L1109.29 168.256L1108.55 167.589L1107.8 166.922L1107.39 167.386L1108.13 168.053ZM1108.55 167.589L1109.29 168.256C1109.69 167.813 1109.95 167.289 1110.09 166.705L1109.11 166.48L1108.14 166.255C1108.07 166.531 1107.96 166.746 1107.8 166.922L1108.55 167.589ZM1109.11 166.48L1110.09 166.705L1110.24 166.06L1109.26 165.835L1108.29 165.61L1108.14 166.255L1109.11 166.48ZM1109.26 165.835L1110.24 166.06L1110.38 165.415L1109.41 165.191L1108.44 164.966L1108.29 165.61L1109.26 165.835ZM1109.41 165.191L1110.38 165.415C1110.44 165.181 1110.54 165.02 1110.69 164.893L1110.03 164.135L1109.38 163.378C1108.89 163.798 1108.58 164.34 1108.44 164.966L1109.41 165.191ZM1110.03 164.135L1110.69 164.893L1111.16 164.482L1110.51 163.725L1109.86 162.967L1109.38 163.378L1110.03 164.135ZM1110.51 163.725L1111.16 164.482L1111.64 164.072L1110.99 163.314L1110.33 162.557L1109.86 162.967L1110.51 163.725ZM1110.99 163.314L1111.64 164.072C1111.92 163.831 1112.21 163.613 1112.52 163.418L1111.99 162.571L1111.46 161.725C1111.06 161.973 1110.69 162.251 1110.33 162.557L1110.99 163.314ZM1111.99 162.571L1112.52 163.418L1113.05 163.085L1112.52 162.239L1111.99 161.392L1111.46 161.725L1111.99 162.571ZM1112.52 162.239L1113.05 163.085L1113.58 162.753L1113.05 161.906L1112.52 161.06L1111.99 161.392L1112.52 162.239ZM1113.05 161.906L1113.58 162.753C1114 162.488 1114.38 162.179 1114.72 161.824L1114 161.132L1113.28 160.44C1113.06 160.674 1112.8 160.881 1112.52 161.06L1113.05 161.906ZM1114 161.132L1114.72 161.824L1115.15 161.382L1114.43 160.69L1113.7 159.998L1113.28 160.44L1114 161.132ZM1114.43 160.69L1115.15 161.382L1115.57 160.941L1114.85 160.249L1114.13 159.557L1113.7 159.998L1114.43 160.69ZM1114.85 160.249L1115.57 160.941C1115.92 160.572 1116.23 160.141 1116.49 159.658L1115.61 159.184L1114.73 158.71C1114.54 159.058 1114.34 159.337 1114.13 159.557L1114.85 160.249ZM1115.61 159.184L1116.49 159.658L1116.82 159.035L1115.94 158.561L1115.06 158.087L1114.73 158.71L1115.61 159.184ZM1115.94 158.561L1116.82 159.035L1117.16 158.412L1116.28 157.938L1115.4 157.465L1115.06 158.087L1115.94 158.561ZM1116.28 157.938L1117.16 158.412C1117.18 158.378 1117.19 158.363 1117.19 158.359C1117.2 158.355 1117.19 158.358 1117.19 158.361C1117.18 158.365 1117.18 158.363 1117.19 158.361C1117.21 158.358 1117.24 158.355 1117.29 158.357L1117.35 157.359L1117.41 156.361C1117.01 156.338 1116.61 156.4 1116.24 156.603C1115.86 156.807 1115.59 157.114 1115.4 157.465L1116.28 157.938ZM1117.35 157.359L1117.29 158.357L1118.02 158.401L1118.08 157.403L1118.14 156.405L1117.41 156.361L1117.35 157.359ZM1118.08 157.403L1118.02 158.401L1118.76 158.445L1118.81 157.447L1118.87 156.449L1118.14 156.405L1118.08 157.403ZM1118.81 157.447L1118.76 158.445C1119.6 158.495 1120.32 158.138 1120.79 157.441L1119.96 156.879L1119.14 156.317C1119.08 156.4 1119.04 156.423 1119.03 156.43C1119.01 156.437 1118.97 156.454 1118.87 156.449L1118.81 157.447ZM1119.96 156.879L1120.79 157.441L1121.21 156.83L1120.38 156.268L1119.55 155.706L1119.14 156.317L1119.96 156.879ZM1120.38 156.268L1121.21 156.83L1121.62 156.219L1120.79 155.657L1119.97 155.095L1119.55 155.706L1120.38 156.268ZM1120.79 155.657L1121.62 156.219C1121.74 156.044 1121.81 156.036 1121.89 156.035L1121.87 155.035L1121.85 154.035C1121.05 154.048 1120.4 154.455 1119.97 155.095L1120.79 155.657ZM1121.87 155.035L1121.89 156.035L1122.55 156.024L1122.53 155.024L1122.52 154.024L1121.85 154.035L1121.87 155.035ZM1122.53 155.024L1122.55 156.024L1123.21 156.013L1123.19 155.013L1123.18 154.014L1122.52 154.024L1122.53 155.024ZM1123.19 155.013L1123.21 156.013C1123.72 156.005 1124.21 155.947 1124.69 155.835L1124.46 154.861L1124.24 153.887C1123.91 153.965 1123.55 154.008 1123.18 154.014L1123.19 155.013ZM1124.46 154.861L1124.69 155.835L1125.3 155.694L1125.07 154.72L1124.85 153.746L1124.24 153.887L1124.46 154.861ZM1125.07 154.72L1125.3 155.694L1125.91 155.552L1125.68 154.578L1125.45 153.604L1124.85 153.746L1125.07 154.72ZM1125.68 154.578L1125.91 155.552C1126.23 155.477 1126.56 155.443 1126.89 155.45L1126.91 154.451L1126.94 153.451C1126.43 153.44 1125.94 153.491 1125.45 153.604L1125.68 154.578ZM1126.91 154.451L1126.89 155.45L1127.52 155.464L1127.54 154.464L1127.56 153.465L1126.94 153.451L1126.91 154.451ZM1127.54 154.464L1127.52 155.464L1128.15 155.478L1128.17 154.478L1128.19 153.478L1127.56 153.465L1127.54 154.464ZM1128.17 154.478L1128.15 155.478C1128.7 155.49 1129.24 155.39 1129.77 155.188L1129.41 154.254L1129.05 153.321C1128.76 153.435 1128.47 153.484 1128.19 153.478L1128.17 154.478ZM1129.41 154.254L1129.77 155.188L1130.39 154.95L1130.03 154.017L1129.67 153.083L1129.05 153.321L1129.41 154.254ZM1130.03 154.017L1130.39 154.95L1131.01 154.712L1130.65 153.779L1130.29 152.846L1129.67 153.083L1130.03 154.017ZM1130.65 153.779L1131.01 154.712C1131.15 154.658 1131.26 154.659 1131.42 154.74L1131.87 153.845L1132.32 152.951C1131.67 152.626 1130.97 152.583 1130.29 152.846L1130.65 153.779ZM1131.87 153.845L1131.42 154.74L1132.03 155.044L1132.48 154.15L1132.93 153.255L1132.32 152.951L1131.87 153.845ZM1132.48 154.15L1132.03 155.044L1132.64 155.348L1133.09 154.454L1133.53 153.56L1132.93 153.255L1132.48 154.15ZM1133.09 154.454L1132.64 155.348C1133.11 155.584 1133.59 155.758 1134.08 155.864L1134.29 154.886L1134.5 153.909C1134.19 153.843 1133.87 153.729 1133.53 153.56L1133.09 154.454ZM1134.29 154.886L1134.08 155.864L1134.67 155.993L1134.89 155.015L1135.1 154.038L1134.5 153.909L1134.29 154.886ZM1134.89 155.015L1134.67 155.993L1135.27 156.122L1135.48 155.144L1135.69 154.167L1135.1 154.038L1134.89 155.015ZM1135.48 155.144L1135.27 156.122C1135.65 156.204 1136.03 156.296 1136.4 156.398L1136.66 155.433L1136.93 154.469C1136.52 154.357 1136.11 154.256 1135.69 154.167L1135.48 155.144ZM1136.66 155.433L1136.4 156.398L1136.98 156.558L1137.25 155.594L1137.51 154.63L1136.93 154.469L1136.66 155.433ZM1137.25 155.594L1136.98 156.558L1137.57 156.719L1137.83 155.755L1138.1 154.79L1137.51 154.63L1137.25 155.594ZM1137.83 155.755L1137.57 156.719C1138.07 156.856 1138.59 156.908 1139.13 156.882L1139.08 155.883L1139.03 154.884C1138.68 154.901 1138.38 154.867 1138.1 154.79L1137.83 155.755ZM1139.08 155.883L1139.13 156.882L1139.79 156.85L1139.74 155.851L1139.7 154.852L1139.03 154.884L1139.08 155.883ZM1139.74 155.851L1139.79 156.85L1140.46 156.818L1140.41 155.819L1140.36 154.82L1139.7 154.852L1139.74 155.851ZM1140.41 155.819L1140.46 156.818C1140.68 156.807 1140.84 156.861 1140.99 156.969L1141.58 156.165L1142.18 155.36C1141.64 154.965 1141.02 154.788 1140.36 154.82L1140.41 155.819ZM1141.58 156.165L1140.99 156.969L1141.5 157.347L1142.09 156.542L1142.69 155.738L1142.18 155.36L1141.58 156.165ZM1142.09 156.542L1141.5 157.347L1142.01 157.724L1142.61 156.92L1143.2 156.115L1142.69 155.738L1142.09 156.542ZM1142.61 156.92L1142.01 157.724C1142.51 158.094 1143.09 158.299 1143.72 158.356L1143.81 157.36L1143.9 156.364C1143.6 156.337 1143.38 156.249 1143.2 156.115L1142.61 156.92ZM1143.81 157.36L1143.72 158.356L1144.4 158.419L1144.5 157.423L1144.59 156.427L1143.9 156.364L1143.81 157.36ZM1144.5 157.423L1144.4 158.419L1145.09 158.481L1145.18 157.485L1145.28 156.49L1144.59 156.427L1144.5 157.423ZM1145.18 157.485L1145.09 158.481C1145.13 158.485 1145.15 158.491 1145.16 158.493C1145.16 158.495 1145.16 158.496 1145.16 158.496C1145.16 158.496 1145.16 158.496 1145.16 158.497C1145.16 158.497 1145.17 158.501 1145.18 158.517C1145.19 158.533 1145.21 158.564 1145.23 158.614L1146.16 158.231L1147.08 157.849C1146.93 157.493 1146.71 157.161 1146.38 156.91C1146.05 156.656 1145.67 156.525 1145.28 156.49L1145.18 157.485ZM1146.16 158.231L1145.23 158.614L1145.52 159.297L1146.44 158.915L1147.36 158.532L1147.08 157.849L1146.16 158.231ZM1146.44 158.915L1145.52 159.297L1145.8 159.98L1146.72 159.598L1147.65 159.216L1147.36 158.532L1146.44 158.915ZM1146.72 159.598L1145.8 159.98C1146.08 160.667 1146.59 161.195 1147.31 161.442L1147.63 160.496L1147.96 159.55C1147.84 159.511 1147.74 159.44 1147.65 159.216L1146.72 159.598ZM1147.63 160.496L1147.31 161.442L1147.94 161.657L1148.26 160.71L1148.58 159.764L1147.96 159.55L1147.63 160.496ZM1148.26 160.71L1147.94 161.657L1148.56 161.871L1148.89 160.925L1149.21 159.979L1148.58 159.764L1148.26 160.71ZM1148.89 160.925L1148.56 161.871C1148.81 161.955 1148.98 162.081 1149.11 162.25L1149.9 161.636L1150.69 161.022C1150.31 160.529 1149.8 160.181 1149.21 159.979L1148.89 160.925ZM1149.9 161.636L1149.11 162.25L1149.5 162.746L1150.29 162.133L1151.08 161.519L1150.69 161.022L1149.9 161.636ZM1150.29 162.133L1149.5 162.746L1149.88 163.243L1150.67 162.629L1151.46 162.016L1151.08 161.519L1150.29 162.133ZM1150.67 162.629L1149.88 163.243C1150.11 163.534 1150.31 163.84 1150.49 164.16L1151.36 163.673L1152.24 163.186C1152.01 162.777 1151.75 162.387 1151.46 162.016L1150.67 162.629ZM1151.36 163.673L1150.49 164.16L1150.8 164.707L1151.67 164.22L1152.54 163.734L1152.24 163.186L1151.36 163.673ZM1151.67 164.22L1150.8 164.707L1151.1 165.254L1151.97 164.767L1152.85 164.281L1152.54 163.734L1151.67 164.22ZM1151.97 164.767L1151.1 165.254C1151.39 165.773 1151.8 166.196 1152.3 166.523L1152.85 165.684L1153.39 164.845C1153.14 164.679 1152.96 164.491 1152.85 164.281L1151.97 164.767ZM1152.85 165.684L1152.3 166.523L1152.88 166.892L1153.42 166.053L1153.96 165.214L1153.39 164.845L1152.85 165.684ZM1153.42 166.053L1152.88 166.892L1153.45 167.262L1153.99 166.423L1154.53 165.583L1153.96 165.214L1153.42 166.053ZM1153.99 166.423L1153.45 167.262C1153.73 167.447 1153.96 167.664 1154.15 167.911L1154.95 167.31L1155.75 166.71C1155.41 166.266 1155.01 165.89 1154.53 165.583L1153.99 166.423ZM1154.95 167.31L1154.15 167.911L1154.54 168.429L1155.34 167.828L1156.14 167.228L1155.75 166.71L1154.95 167.31ZM1155.34 167.828L1154.54 168.429L1154.93 168.947L1155.73 168.347L1156.53 167.746L1156.14 167.228L1155.34 167.828ZM1155.73 168.347L1154.93 168.947C1155.09 169.159 1155.19 169.394 1155.23 169.668L1156.22 169.516L1157.2 169.363C1157.11 168.769 1156.89 168.225 1156.53 167.746L1155.73 168.347ZM1156.22 169.516L1155.23 169.668L1155.33 170.319L1156.32 170.166L1157.3 170.014L1157.2 169.363L1156.22 169.516ZM1156.32 170.166L1155.33 170.319L1155.43 170.969L1156.42 170.817L1157.41 170.665L1157.3 170.014L1156.32 170.166ZM1156.42 170.817L1155.43 170.969C1155.5 171.414 1155.57 171.85 1155.65 172.275L1156.64 172.088L1157.62 171.901C1157.54 171.499 1157.47 171.087 1157.41 170.665L1156.42 170.817ZM1156.64 172.088L1155.65 172.275L1155.77 172.895L1156.75 172.708L1157.74 172.521L1157.62 171.901L1156.64 172.088ZM1156.75 172.708L1155.77 172.895L1155.89 173.516L1156.87 173.328L1157.85 173.141L1157.74 172.521L1156.75 172.708ZM1156.87 173.328L1155.89 173.516C1155.99 174.034 1156.17 174.531 1156.42 175.002L1157.3 174.526L1158.18 174.049C1158.02 173.751 1157.91 173.449 1157.85 173.141L1156.87 173.328ZM1157.3 174.526L1156.42 175.002L1156.74 175.58L1157.62 175.103L1158.5 174.626L1158.18 174.049L1157.3 174.526ZM1157.62 175.103L1156.74 175.58L1157.05 176.157L1157.93 175.68L1158.81 175.204L1158.5 174.626L1157.62 175.103ZM1157.93 175.68L1157.05 176.157C1157.19 176.419 1157.27 176.684 1157.29 176.961L1158.28 176.895L1159.28 176.83C1159.24 176.257 1159.08 175.712 1158.81 175.204L1157.93 175.68ZM1158.28 176.895L1157.29 176.961L1157.33 177.599L1158.33 177.533L1159.32 177.467L1159.28 176.83L1158.28 176.895ZM1158.33 177.533L1157.33 177.599L1157.37 178.236L1158.37 178.171L1159.37 178.105L1159.32 177.467L1158.33 177.533ZM1158.37 178.171L1157.37 178.236C1157.4 178.672 1157.43 179.08 1157.47 179.459L1158.47 179.356L1159.46 179.254C1159.43 178.903 1159.39 178.52 1159.37 178.105L1158.37 178.171ZM1158.47 179.356L1157.47 179.459L1157.53 180.007L1158.52 179.904L1159.52 179.802L1159.46 179.254L1158.47 179.356ZM1158.52 179.904L1157.53 180.007L1157.59 180.555L1158.58 180.452L1159.57 180.35L1159.52 179.802L1158.52 179.904ZM1158.58 180.452L1157.59 180.555C1157.6 180.716 1157.59 180.735 1157.6 180.679C1157.6 180.654 1157.63 180.512 1157.75 180.357C1157.82 180.27 1157.92 180.175 1158.05 180.104C1158.19 180.031 1158.34 180 1158.48 180V181V182C1158.84 182 1159.15 181.82 1159.34 181.575C1159.49 181.373 1159.54 181.163 1159.57 181.047C1159.61 180.809 1159.6 180.554 1159.57 180.35L1158.58 180.452ZM1158.48 181V180H1158.32V181V182H1158.48V181ZM1158.32 181V180H1158.16V181V182H1158.32V181ZM1158.16 181V180C1157.79 180 1157.54 180.177 1157.4 180.301C1157.27 180.424 1157.18 180.561 1157.12 180.658C1157.01 180.855 1156.93 181.089 1156.86 181.315L1157.81 181.61L1158.77 181.904C1158.79 181.82 1158.82 181.757 1158.83 181.71C1158.85 181.662 1158.86 181.644 1158.86 181.647C1158.86 181.649 1158.85 181.662 1158.84 181.682C1158.82 181.701 1158.8 181.736 1158.75 181.775C1158.67 181.848 1158.47 182 1158.16 182V181ZM1157.81 181.61L1156.86 181.315L1156.67 181.925L1157.62 182.22L1158.58 182.514L1158.77 181.904L1157.81 181.61Z" fill="#C8BBE9"/>
<path d="M1213.2 310.641C1204.33 319.855 1193.41 322.264 1179.85 317.972C1178.97 317.694 1178.41 316.824 1178.55 315.913C1181.69 295.593 1206.8 286.521 1206.78 286.47C1206.76 286.417 1206.09 286.165 1205.67 286.227C1194.37 287.864 1180.78 293.752 1172.92 305.391C1171.87 306.941 1169.39 306.615 1169.2 304.754C1168.29 295.45 1171.77 287.798 1179.84 281.077C1185.68 276.44 1192.6 274.912 1199.29 273.435C1204.93 272.19 1210.96 269.629 1214.68 266.967C1215.94 266.065 1217.89 266.485 1218.24 267.992C1220.41 277.051 1223.16 298.604 1213.2 310.641Z" fill="#FFF77C"/>
<path d="M1608.2 55.6415C1599.33 64.8554 1588.41 67.2636 1574.85 62.9721C1573.97 62.6939 1573.41 61.8244 1573.55 60.913C1576.69 40.5932 1601.8 31.5213 1601.78 31.4698C1601.76 31.417 1601.09 31.1651 1600.67 31.2269C1589.37 32.8645 1575.78 38.7515 1567.92 50.3907C1566.87 51.9408 1564.39 51.6152 1564.2 49.7539C1563.29 40.45 1566.77 32.7984 1574.84 26.0767C1580.68 21.4397 1587.6 19.9116 1594.29 18.4351C1599.93 17.1897 1605.96 14.6289 1609.68 11.9674C1610.94 11.0653 1612.89 11.4846 1613.24 12.9919C1615.41 22.0509 1618.16 43.6036 1608.2 55.6415Z" fill="#FFF77C"/>
<line y1="-2" x2="21.095" y2="-2" transform="matrix(0.52145 -0.853282 -0.853282 -0.52145 128 308)" stroke="#73F8BE" stroke-width="4"/>
<line x1="207.293" y1="159.043" x2="196.293" y2="141.043" stroke="#C8BBE9" stroke-width="4"/>
<line x1="678.293" y1="196.043" x2="667.293" y2="178.043" stroke="#C8BBE9" stroke-width="4"/>
<line x1="469.293" y1="116.043" x2="458.293" y2="98.0429" stroke="#73F8BE" stroke-width="4"/>
<line y1="-2" x2="21.095" y2="-2" transform="matrix(0.52145 -0.853282 -0.853282 -0.52145 559 174)" stroke="#72F9F5" stroke-width="4"/>
<line y1="-2" x2="21.095" y2="-2" transform="matrix(0.52145 -0.853282 -0.853282 -0.52145 302 174)" stroke="#FFF77C" stroke-width="4"/>
<rect x="269" y="65" width="38" height="24" rx="8" fill="#73F8BE"/>
<rect x="309" y="65" width="38" height="24" rx="8" fill="#73F8BE"/>
<rect x="269" y="91" width="38" height="24" rx="8" fill="#73F8BE"/>
<rect x="309" y="91" width="38" height="24" rx="8" fill="#73F8BE"/>
<rect y="279" width="38" height="24" rx="8" fill="#C8BBE9"/>
<rect x="40" y="279" width="38" height="24" rx="8" fill="#C8BBE9"/>
<rect y="305" width="38" height="24" rx="8" fill="#C8BBE9"/>
<rect x="40" y="305" width="38" height="24" rx="8" fill="#C8BBE9"/>
<path d="M390.695 223C395.113 223 398.695 226.582 398.695 231H399C403.418 231 407 234.582 407 239V240C407 244.418 403.418 248 399 248H398.695V248.221C398.695 252.639 395.113 256.22 390.695 256.221H345C340.582 256.221 337 252.639 337 248.221V231C337 226.582 340.582 223 345 223H390.695Z" fill="#C8BBE9"/>
<circle cx="155" cy="213" r="27" fill="#FFF77C"/>
<path d="M181.436 214.83L180.481 214.535L181.436 214.83ZM181.377 216.083L180.397 216.28L181.377 216.083ZM181.635 217.371L182.616 217.175L181.635 217.371ZM181.455 218.581L182.332 219.061L181.455 218.581ZM180.836 219.714L179.958 219.234L180.836 219.714ZM180.273 220.839L179.362 220.426V220.426L180.273 220.839ZM179.765 221.958L180.675 222.371V222.371L179.765 221.958ZM179.449 223.166L178.454 223.072L179.449 223.166ZM179.388 223.814L180.384 223.908L179.388 223.814ZM179.08 225.734L178.121 225.448L179.08 225.734ZM178.708 226.979L177.75 226.693L178.708 226.979ZM177.919 227.948L178.417 228.815L177.919 227.948ZM177.316 228.293L176.819 227.426L177.316 228.293ZM176.714 228.639L176.216 227.772L176.714 228.639ZM175.905 229.626L176.857 229.932L175.905 229.626ZM175.493 230.909L176.446 231.215L175.493 230.909ZM174.638 231.781L174.973 232.724L174.638 231.781ZM173.989 232.012L173.655 231.069L173.989 232.012ZM173.34 232.242L173.005 231.3L173.34 232.242ZM172.21 232.846L172.824 233.635L172.21 232.846ZM171.249 233.592L170.636 232.803L171.249 233.592ZM170.448 234.599L169.556 234.146L170.448 234.599ZM168.93 236.82L168.428 235.955L168.93 236.82ZM167.824 237.462L167.322 236.597L167.824 237.462ZM166.612 237.85L166.712 238.845L166.612 237.85ZM165.952 237.916L165.852 236.921L165.952 237.916ZM165.293 237.983L165.193 236.988L165.293 237.983ZM164.054 238.276L164.417 239.208L164.054 238.276ZM163.473 238.503L163.11 237.571L163.473 238.503ZM162.893 238.729L163.256 239.661L162.893 238.729ZM161.692 239.028L161.806 240.021L161.692 239.028ZM160.451 239.171L160.566 240.164L160.451 239.171ZM159.206 239.185L159.298 238.189L159.206 239.185ZM158.582 239.127L158.674 238.132L158.582 239.127ZM157.958 239.07L157.866 240.066V240.066L157.958 239.07ZM156.728 239.446L156.146 238.632L156.728 239.446ZM156.122 239.879L156.704 240.692L156.122 239.879ZM154.275 240.648L154.123 241.637L154.275 240.648ZM153.006 240.453L153.158 239.465L153.006 240.453ZM151.721 240.371L151.698 239.371L151.721 240.371ZM150.422 240.401L150.399 239.401L150.422 240.401ZM149.178 240.149L148.769 241.061L149.178 240.149ZM148.583 239.882L148.993 238.97L148.583 239.882ZM147.989 239.615L147.579 240.528L147.989 239.615ZM146.78 239.18L146.515 240.144L146.78 239.18ZM146.165 239.011L146.43 238.047L146.165 239.011ZM145.55 238.843L145.286 239.807L145.55 238.843ZM144.325 238.47L144.642 237.521L144.325 238.47ZM143.103 238.061L143.421 237.113L143.103 238.061ZM142.058 237.339L142.825 236.696L142.058 237.339ZM141.19 236.303L140.423 236.945L141.19 236.303ZM140.339 235.306L139.584 235.962L140.339 235.306ZM139.508 234.349L140.262 233.693L139.508 234.349ZM137.714 233.575L137.504 234.553L137.714 233.575ZM137.025 233.428L137.234 232.45L137.025 233.428ZM135.983 232.74L136.821 232.194L135.983 232.74ZM135.631 232.2L136.469 231.654L135.631 232.2ZM135.279 231.659L134.441 232.205L135.279 231.659ZM134.694 230.513L135.627 230.154L134.694 230.513ZM134.227 229.3L133.294 229.66L134.227 229.3ZM133.571 228.242L134.301 227.559L133.571 228.242ZM132.726 227.339L131.995 228.022L132.726 227.339ZM132.079 226.312L131.147 226.675L132.079 226.312ZM131.854 225.737L132.786 225.373L131.854 225.737ZM131.63 225.162L130.699 225.525L131.63 225.162ZM130.717 222.899L129.791 223.277L130.717 222.899ZM130.02 221.838L130.75 221.154L130.02 221.838ZM129.086 220.839L128.356 221.523L129.086 220.839ZM128.532 219.713L127.542 219.849L128.532 219.713ZM128.387 217.191L127.402 217.016L128.387 217.191ZM128.5 216.551L127.516 216.376L128.5 216.551ZM128.675 214.661L127.679 214.747L128.675 214.661ZM128.734 211.004L127.741 210.887L128.734 211.004ZM128.74 209.764L127.745 209.867L128.74 209.764ZM128.913 207.325L128.088 206.76L128.913 207.325ZM130.317 203.879L131.304 204.038L130.317 203.879ZM130.636 202.699L129.704 202.338L130.636 202.699ZM131.08 201.554L132.012 201.915L131.08 201.554ZM131.717 200.517L132.462 201.184L131.717 200.517ZM132.548 199.589L133.293 200.256L132.548 199.589ZM133.112 198.48L132.138 198.255L133.112 198.48ZM133.261 197.835L134.235 198.06L133.261 197.835ZM134.511 195.725L133.858 194.967L134.511 195.725ZM134.987 195.314L134.334 194.557L134.987 195.314ZM135.992 194.571L135.46 193.725L135.992 194.571ZM137.049 193.906L137.582 194.753L137.049 193.906ZM138.002 193.132L137.28 192.44L138.002 193.132ZM138.849 192.249L139.57 192.941L138.849 192.249ZM139.607 191.184L140.488 191.658V191.658L139.607 191.184ZM140.277 189.938L139.397 189.465L140.277 189.938ZM141.346 189.359L141.287 190.357L141.346 189.359ZM143.964 188.879L144.791 189.441L143.964 188.879ZM144.794 187.657L143.967 187.095L144.794 187.657ZM148.464 186.861L148.237 185.887L148.464 186.861ZM150.914 186.451L150.892 187.45L150.914 186.451ZM152.167 186.478L152.145 187.478L152.167 186.478ZM153.412 186.254L153.771 187.188L153.412 186.254ZM154.03 186.017L153.671 185.083L154.03 186.017ZM154.648 185.779L155.007 186.712L154.648 185.779ZM155.873 185.845L156.321 184.951L155.873 185.845ZM156.48 186.15L156.032 187.044L156.48 186.15ZM157.087 186.454L157.534 185.56L157.087 186.454ZM158.29 186.886L158.078 187.864L158.29 186.886ZM160.663 187.433L160.928 186.469L160.663 187.433ZM161.832 187.755L161.567 188.719L161.832 187.755ZM163.08 187.883L163.032 186.884L163.08 187.883ZM163.744 187.851L163.696 186.852L163.744 187.851ZM164.407 187.819L164.456 188.818L164.407 187.819ZM165.583 188.165L166.176 187.36L165.583 188.165ZM166.606 188.92L166.012 189.724L166.606 188.92ZM167.806 189.36L167.716 190.356L167.806 189.36ZM168.495 189.423L168.586 188.427L168.495 189.423ZM170.156 190.231L169.232 190.614L170.156 190.231ZM170.722 191.598L169.798 191.98L170.722 191.598ZM171.632 192.496L171.956 191.55L171.632 192.496ZM172.888 192.925L173.211 191.979L172.888 192.925ZM173.901 193.636L173.112 194.25L173.901 193.636ZM174.674 194.629L175.463 194.016L174.674 194.629ZM175.364 195.673L176.238 195.186L175.364 195.673ZM175.669 196.22L174.796 196.707L175.669 196.22ZM175.974 196.767L175.1 197.254L175.974 196.767ZM176.849 197.684L176.305 198.523L176.849 197.684ZM178.948 199.31L178.149 199.911L178.948 199.31ZM179.727 200.347L178.927 200.947L179.727 200.347ZM180.216 201.516L181.205 201.363L180.216 201.516ZM180.417 202.817L179.429 202.969L180.417 202.817ZM180.635 204.088L181.618 203.901L180.635 204.088ZM180.754 204.708L181.736 204.521L180.754 204.708ZM180.872 205.328L179.89 205.516L180.872 205.328ZM181.303 206.526L182.182 206.049L181.303 206.526ZM181.929 207.68L181.05 208.157L181.929 207.68ZM182.284 208.895L181.287 208.961L182.284 208.895ZM182.368 210.171L181.371 210.236L182.368 210.171ZM182.467 211.356L183.462 211.254L182.467 211.356ZM182.58 212.452L181.585 212.555L182.58 212.452ZM181.812 213.61L182.768 213.904L181.812 213.61ZM181.624 214.22L180.669 213.925L180.481 214.535L181.436 214.83L182.392 215.124L182.58 214.514L181.624 214.22ZM181.436 214.83L180.481 214.535C180.305 215.105 180.279 215.692 180.397 216.28L181.377 216.083L182.358 215.887C182.304 215.616 182.317 215.367 182.392 215.124L181.436 214.83ZM181.377 216.083L180.397 216.28L180.526 216.924L181.506 216.727L182.487 216.531L182.358 215.887L181.377 216.083ZM181.506 216.727L180.526 216.924L180.655 217.567L181.635 217.371L182.616 217.175L182.487 216.531L181.506 216.727ZM181.635 217.371L180.655 217.567C180.696 217.771 180.669 217.934 180.577 218.102L181.455 218.581L182.332 219.061C182.653 218.473 182.747 217.83 182.616 217.175L181.635 217.371ZM181.455 218.581L180.577 218.102L180.268 218.668L181.145 219.147L182.023 219.627L182.332 219.061L181.455 218.581ZM181.145 219.147L180.268 218.668L179.958 219.234L180.836 219.714L181.714 220.193L182.023 219.627L181.145 219.147ZM180.836 219.714L179.958 219.234C179.741 219.632 179.542 220.029 179.362 220.426L180.273 220.839L181.183 221.253C181.342 220.903 181.519 220.55 181.714 220.193L180.836 219.714ZM180.273 220.839L179.362 220.426L179.108 220.985L180.019 221.399L180.929 221.812L181.183 221.253L180.273 220.839ZM180.019 221.399L179.108 220.985L178.854 221.544L179.765 221.958L180.675 222.371L180.929 221.812L180.019 221.399ZM179.765 221.958L178.854 221.544C178.636 222.024 178.504 222.536 178.454 223.072L179.449 223.166L180.445 223.26C180.476 222.931 180.554 222.637 180.675 222.371L179.765 221.958ZM179.449 223.166L178.454 223.072L178.392 223.72L179.388 223.814L180.384 223.908L180.445 223.26L179.449 223.166ZM179.388 223.814L178.392 223.72L178.331 224.369L179.327 224.463L180.322 224.557L180.384 223.908L179.388 223.814ZM179.327 224.463L178.331 224.369C178.296 224.736 178.227 225.096 178.121 225.448L179.08 225.734L180.038 226.02C180.18 225.542 180.275 225.054 180.322 224.557L179.327 224.463ZM179.08 225.734L178.121 225.448L177.936 226.071L178.894 226.357L179.852 226.643L180.038 226.02L179.08 225.734ZM178.894 226.357L177.936 226.071L177.75 226.693L178.708 226.979L179.666 227.265L179.852 226.643L178.894 226.357ZM178.708 226.979L177.75 226.693C177.705 226.844 177.618 226.967 177.422 227.08L177.919 227.948L178.417 228.815C179.024 228.467 179.464 227.944 179.666 227.265L178.708 226.979ZM177.919 227.948L177.422 227.08L176.819 227.426L177.316 228.293L177.814 229.161L178.417 228.815L177.919 227.948ZM177.316 228.293L176.819 227.426L176.216 227.772L176.714 228.639L177.211 229.507L177.814 229.161L177.316 228.293ZM176.714 228.639L176.216 227.772C175.605 228.122 175.169 228.648 174.953 229.321L175.905 229.626L176.857 229.932C176.915 229.75 177.018 229.617 177.211 229.507L176.714 228.639ZM175.905 229.626L174.953 229.321L174.747 229.963L175.699 230.268L176.651 230.573L176.857 229.932L175.905 229.626ZM175.699 230.268L174.747 229.963L174.541 230.604L175.493 230.909L176.446 231.215L176.651 230.573L175.699 230.268ZM175.493 230.909L174.541 230.604C174.502 230.727 174.451 230.787 174.304 230.839L174.638 231.781L174.973 232.724C175.692 232.469 176.211 231.947 176.446 231.215L175.493 230.909ZM174.638 231.781L174.304 230.839L173.655 231.069L173.989 232.012L174.323 232.954L174.973 232.724L174.638 231.781ZM173.989 232.012L173.655 231.069L173.005 231.3L173.34 232.242L173.674 233.184L174.323 232.954L173.989 232.012ZM173.34 232.242L173.005 231.3C172.485 231.484 172.011 231.734 171.596 232.056L172.21 232.846L172.824 233.635C173.049 233.46 173.329 233.307 173.674 233.184L173.34 232.242ZM172.21 232.846L171.596 232.056L171.116 232.429L171.73 233.219L172.343 234.009L172.824 233.635L172.21 232.846ZM171.73 233.219L171.116 232.429L170.636 232.803L171.249 233.592L171.863 234.382L172.343 234.009L171.73 233.219ZM171.249 233.592L170.636 232.803C170.181 233.156 169.826 233.615 169.556 234.146L170.448 234.599L171.339 235.052C171.498 234.739 171.677 234.526 171.863 234.382L171.249 233.592ZM170.448 234.599L169.556 234.146L169.234 234.779L170.126 235.232L171.017 235.685L171.339 235.052L170.448 234.599ZM170.126 235.232L169.234 234.779L168.913 235.413L169.804 235.866L170.696 236.318L171.017 235.685L170.126 235.232ZM169.804 235.866L168.913 235.413C168.776 235.683 168.611 235.849 168.428 235.955L168.93 236.82L169.432 237.685C169.985 237.363 170.404 236.893 170.696 236.318L169.804 235.866ZM168.93 236.82L168.428 235.955L167.875 236.276L168.377 237.141L168.879 238.006L169.432 237.685L168.93 236.82ZM168.377 237.141L167.875 236.276L167.322 236.597L167.824 237.462L168.326 238.327L168.879 238.006L168.377 237.141ZM167.824 237.462L167.322 236.597C167.081 236.737 166.814 236.824 166.511 236.855L166.612 237.85L166.712 238.845C167.288 238.786 167.83 238.615 168.326 238.327L167.824 237.462ZM166.612 237.85L166.511 236.855L165.852 236.921L165.952 237.916L166.053 238.911L166.712 238.845L166.612 237.85ZM165.952 237.916L165.852 236.921L165.193 236.988L165.293 237.983L165.394 238.978L166.053 238.911L165.952 237.916ZM165.293 237.983L165.193 236.988C164.669 237.041 164.167 237.159 163.69 237.345L164.054 238.276L164.417 239.208C164.715 239.092 165.039 239.014 165.394 238.978L165.293 237.983ZM164.054 238.276L163.69 237.345L163.11 237.571L163.473 238.503L163.837 239.434L164.417 239.208L164.054 238.276ZM163.473 238.503L163.11 237.571L162.529 237.798L162.893 238.729L163.256 239.661L163.837 239.434L163.473 238.503ZM162.893 238.729L162.529 237.798C162.222 237.918 161.906 237.996 161.577 238.034L161.692 239.028L161.806 240.021C162.305 239.964 162.789 239.843 163.256 239.661L162.893 238.729ZM161.692 239.028L161.577 238.034L160.957 238.106L161.071 239.099L161.186 240.093L161.806 240.021L161.692 239.028ZM161.071 239.099L160.957 238.106L160.336 238.178L160.451 239.171L160.566 240.164L161.186 240.093L161.071 239.099ZM160.451 239.171L160.336 238.178C159.992 238.217 159.646 238.221 159.298 238.189L159.206 239.185L159.114 240.181C159.599 240.226 160.083 240.22 160.566 240.164L160.451 239.171ZM159.206 239.185L159.298 238.189L158.674 238.132L158.582 239.127L158.49 240.123L159.114 240.181L159.206 239.185ZM158.582 239.127L158.674 238.132L158.05 238.074L157.958 239.07L157.866 240.066L158.49 240.123L158.582 239.127ZM157.958 239.07L158.05 238.074C157.351 238.01 156.707 238.231 156.146 238.632L156.728 239.446L157.31 240.259C157.557 240.082 157.732 240.053 157.866 240.066L157.958 239.07ZM156.728 239.446L156.146 238.632L155.54 239.066L156.122 239.879L156.704 240.692L157.31 240.259L156.728 239.446ZM156.122 239.879L155.54 239.066L154.934 239.499L155.516 240.313L156.098 241.126L156.704 240.692L156.122 239.879ZM155.516 240.313L154.934 239.499C154.706 239.662 154.551 239.679 154.427 239.66L154.275 240.648L154.123 241.637C154.846 241.748 155.518 241.541 156.098 241.126L155.516 240.313ZM154.275 240.648L154.427 239.66L153.792 239.562L153.64 240.551L153.489 241.539L154.123 241.637L154.275 240.648ZM153.64 240.551L153.792 239.562L153.158 239.465L153.006 240.453L152.854 241.441L153.489 241.539L153.64 240.551ZM153.006 240.453L153.158 239.465C152.676 239.391 152.189 239.359 151.698 239.371L151.721 240.371L151.744 241.37C152.119 241.362 152.489 241.385 152.854 241.441L153.006 240.453ZM151.721 240.371L151.698 239.371L151.048 239.386L151.072 240.386L151.095 241.385L151.744 241.37L151.721 240.371ZM151.072 240.386L151.048 239.386L150.399 239.401L150.422 240.401L150.445 241.401L151.095 241.385L151.072 240.386ZM150.422 240.401L150.399 239.401C150.115 239.408 149.848 239.354 149.587 239.237L149.178 240.149L148.769 241.061C149.3 241.3 149.863 241.414 150.445 241.401L150.422 240.401ZM149.178 240.149L149.587 239.237L148.993 238.97L148.583 239.882L148.174 240.795L148.769 241.061L149.178 240.149ZM148.583 239.882L148.993 238.97L148.398 238.703L147.989 239.615L147.579 240.528L148.174 240.795L148.583 239.882ZM147.989 239.615L148.398 238.703C147.956 238.505 147.505 238.342 147.044 238.216L146.78 239.18L146.515 240.144C146.874 240.243 147.229 240.37 147.579 240.528L147.989 239.615ZM146.78 239.18L147.044 238.216L146.43 238.047L146.165 239.011L145.9 239.976L146.515 240.144L146.78 239.18ZM146.165 239.011L146.43 238.047L145.815 237.878L145.55 238.843L145.286 239.807L145.9 239.976L146.165 239.011ZM145.55 238.843L145.815 237.878C145.423 237.771 145.032 237.652 144.642 237.521L144.325 238.47L144.008 239.418C144.432 239.56 144.858 239.69 145.286 239.807L145.55 238.843ZM144.325 238.47L144.642 237.521L144.031 237.317L143.714 238.265L143.397 239.214L144.008 239.418L144.325 238.47ZM143.714 238.265L144.031 237.317L143.421 237.113L143.103 238.061L142.786 239.009L143.397 239.214L143.714 238.265ZM143.103 238.061L143.421 237.113C143.197 237.038 143.002 236.908 142.825 236.696L142.058 237.339L141.292 237.981C141.694 238.461 142.195 238.812 142.786 239.009L143.103 238.061ZM142.058 237.339L142.825 236.696L142.39 236.178L141.624 236.821L140.858 237.463L141.292 237.981L142.058 237.339ZM141.624 236.821L142.39 236.178L141.956 235.66L141.19 236.303L140.423 236.945L140.858 237.463L141.624 236.821ZM141.19 236.303L141.956 235.66C141.663 235.311 141.376 234.974 141.094 234.65L140.339 235.306L139.584 235.962C139.858 236.276 140.137 236.604 140.423 236.945L141.19 236.303ZM140.339 235.306L141.094 234.65L140.678 234.172L139.923 234.827L139.168 235.483L139.584 235.962L140.339 235.306ZM139.923 234.827L140.678 234.172L140.262 233.693L139.508 234.349L138.753 235.004L139.168 235.483L139.923 234.827ZM139.508 234.349L140.262 233.693C139.827 233.192 139.258 232.883 138.612 232.745L138.403 233.722L138.193 234.7C138.466 234.759 138.633 234.867 138.753 235.004L139.508 234.349ZM138.403 233.722L138.612 232.745L137.923 232.597L137.714 233.575L137.504 234.553L138.193 234.7L138.403 233.722ZM137.714 233.575L137.923 232.597L137.234 232.45L137.025 233.428L136.815 234.406L137.504 234.553L137.714 233.575ZM137.025 233.428L137.234 232.45C137.007 232.401 136.898 232.311 136.821 232.194L135.983 232.74L135.146 233.286C135.539 233.889 136.124 234.258 136.815 234.406L137.025 233.428ZM135.983 232.74L136.821 232.194L136.469 231.654L135.631 232.2L134.793 232.746L135.146 233.286L135.983 232.74ZM135.631 232.2L136.469 231.654L136.117 231.113L135.279 231.659L134.441 232.205L134.793 232.746L135.631 232.2ZM135.279 231.659L136.117 231.113C135.921 230.812 135.757 230.493 135.627 230.154L134.694 230.513L133.76 230.872C133.941 231.341 134.168 231.786 134.441 232.205L135.279 231.659ZM134.694 230.513L135.627 230.154L135.393 229.547L134.46 229.907L133.527 230.266L133.76 230.872L134.694 230.513ZM134.46 229.907L135.393 229.547L135.16 228.941L134.227 229.3L133.294 229.66L133.527 230.266L134.46 229.907ZM134.227 229.3L135.16 228.941C134.961 228.423 134.675 227.959 134.301 227.559L133.571 228.242L132.841 228.925C133.03 229.128 133.182 229.369 133.294 229.66L134.227 229.3ZM133.571 228.242L134.301 227.559L133.879 227.107L133.148 227.79L132.418 228.474L132.841 228.925L133.571 228.242ZM133.148 227.79L133.879 227.107L133.456 226.656L132.726 227.339L131.995 228.022L132.418 228.474L133.148 227.79ZM132.726 227.339L133.456 226.656C133.261 226.447 133.114 226.213 133.01 225.948L132.079 226.312L131.147 226.675C131.343 227.177 131.627 227.628 131.995 228.022L132.726 227.339ZM132.079 226.312L133.01 225.948L132.786 225.373L131.854 225.737L130.923 226.1L131.147 226.675L132.079 226.312ZM131.854 225.737L132.786 225.373L132.562 224.798L131.63 225.162L130.699 225.525L130.923 226.1L131.854 225.737ZM131.63 225.162L132.562 224.798C132.41 224.41 132.257 224.026 132.102 223.646L131.176 224.024L130.25 224.402C130.402 224.772 130.551 225.147 130.699 225.525L131.63 225.162ZM131.176 224.024L132.102 223.646L131.873 223.084L130.947 223.462L130.021 223.84L130.25 224.402L131.176 224.024ZM130.947 223.462L131.873 223.084L131.643 222.521L130.717 222.899L129.791 223.277L130.021 223.84L130.947 223.462ZM130.717 222.899L131.643 222.521C131.438 222.02 131.135 221.565 130.75 221.154L130.02 221.838L129.29 222.521C129.529 222.776 129.69 223.028 129.791 223.277L130.717 222.899ZM130.02 221.838L130.75 221.154L130.283 220.655L129.553 221.339L128.823 222.022L129.29 222.521L130.02 221.838ZM129.553 221.339L130.283 220.655L129.816 220.156L129.086 220.839L128.356 221.523L128.823 222.022L129.553 221.339ZM129.086 220.839L129.816 220.156C129.634 219.962 129.55 219.773 129.523 219.576L128.532 219.713L127.542 219.849C127.63 220.489 127.915 221.052 128.356 221.523L129.086 220.839ZM128.532 219.713L129.523 219.576L129.437 218.949L128.446 219.085L127.455 219.222L127.542 219.849L128.532 219.713ZM128.446 219.085L129.437 218.949L129.35 218.321L128.36 218.458L127.369 218.594L127.455 219.222L128.446 219.085ZM128.36 218.458L129.35 218.321C129.307 218.009 129.313 217.692 129.371 217.366L128.387 217.191L127.402 217.016C127.309 217.542 127.297 218.07 127.369 218.594L128.36 218.458ZM128.387 217.191L129.371 217.366L129.485 216.726L128.5 216.551L127.516 216.376L127.402 217.016L128.387 217.191ZM128.5 216.551L129.485 216.726L129.599 216.086L128.614 215.911L127.629 215.736L127.516 216.376L128.5 216.551ZM128.614 215.911L129.599 216.086C129.689 215.579 129.714 215.075 129.671 214.575L128.675 214.661L127.679 214.747C127.706 215.062 127.691 215.391 127.629 215.736L128.614 215.911ZM128.675 214.661L129.671 214.575L129.619 213.965L128.623 214.05L127.626 214.136L127.679 214.747L128.675 214.661ZM128.623 214.05L129.619 213.965L129.567 213.354L128.57 213.439L127.574 213.525L127.626 214.136L128.623 214.05ZM128.57 213.439L129.567 213.354C129.537 213.014 129.543 212.676 129.583 212.338L128.59 212.221L127.597 212.103C127.541 212.576 127.533 213.05 127.574 213.525L128.57 213.439ZM128.59 212.221L129.583 212.338L129.655 211.73L128.662 211.612L127.669 211.495L127.597 212.103L128.59 212.221ZM128.662 211.612L129.655 211.73L129.727 211.122L128.734 211.004L127.741 210.887L127.669 211.495L128.662 211.612ZM128.734 211.004L129.727 211.122C129.784 210.64 129.786 210.153 129.735 209.66L128.74 209.764L127.745 209.867C127.782 210.218 127.78 210.557 127.741 210.887L128.734 211.004ZM128.74 209.764L129.735 209.66L129.669 209.028L128.674 209.131L127.68 209.235L127.745 209.867L128.74 209.764ZM128.674 209.131L129.669 209.028L129.603 208.395L128.608 208.499L127.614 208.602L127.68 209.235L128.674 209.131ZM128.608 208.499L129.603 208.395C129.585 208.217 129.621 208.062 129.738 207.891L128.913 207.325L128.088 206.76C127.712 207.31 127.545 207.937 127.614 208.602L128.608 208.499ZM128.913 207.325L129.738 207.891L130.109 207.35L129.284 206.785L128.459 206.22L128.088 206.76L128.913 207.325ZM129.284 206.785L130.109 207.35L130.479 206.809L129.654 206.244L128.829 205.679L128.459 206.22L129.284 206.785ZM129.654 206.244L130.479 206.809C130.804 206.335 131.019 205.814 131.109 205.254L130.122 205.095L129.135 204.937C129.094 205.187 128.998 205.432 128.829 205.679L129.654 206.244ZM130.122 205.095L131.109 205.254L131.207 204.646L130.219 204.487L129.232 204.329L129.135 204.937L130.122 205.095ZM130.219 204.487L131.207 204.646L131.304 204.038L130.317 203.879L129.33 203.721L129.232 204.329L130.219 204.487ZM130.317 203.879L131.304 204.038C131.358 203.702 131.446 203.376 131.569 203.06L130.636 202.699L129.704 202.338C129.531 202.785 129.406 203.246 129.33 203.721L130.317 203.879ZM130.636 202.699L131.569 203.06L131.791 202.487L130.858 202.126L129.926 201.765L129.704 202.338L130.636 202.699ZM130.858 202.126L131.791 202.487L132.012 201.915L131.08 201.554L130.147 201.192L129.926 201.765L130.858 202.126ZM131.08 201.554L132.012 201.915C132.116 201.647 132.265 201.405 132.462 201.184L131.717 200.517L130.972 199.85C130.616 200.248 130.339 200.697 130.147 201.192L131.08 201.554ZM131.717 200.517L132.462 201.184L132.878 200.72L132.132 200.053L131.387 199.386L130.972 199.85L131.717 200.517ZM132.132 200.053L132.878 200.72L133.293 200.256L132.548 199.589L131.803 198.922L131.387 199.386L132.132 200.053ZM132.548 199.589L133.293 200.256C133.689 199.813 133.952 199.289 134.086 198.705L133.112 198.48L132.138 198.255C132.074 198.531 131.96 198.746 131.803 198.922L132.548 199.589ZM133.112 198.48L134.086 198.705L134.235 198.06L133.261 197.835L132.286 197.61L132.138 198.255L133.112 198.48ZM133.261 197.835L134.235 198.06L134.384 197.415L133.41 197.191L132.435 196.966L132.286 197.61L133.261 197.835ZM133.41 197.191L134.384 197.415C134.438 197.181 134.54 197.02 134.688 196.893L134.035 196.135L133.382 195.378C132.894 195.798 132.58 196.34 132.435 196.966L133.41 197.191ZM134.035 196.135L134.688 196.893L135.164 196.482L134.511 195.725L133.858 194.967L133.382 195.378L134.035 196.135ZM134.511 195.725L135.164 196.482L135.64 196.072L134.987 195.314L134.334 194.557L133.858 194.967L134.511 195.725ZM134.987 195.314L135.64 196.072C135.92 195.831 136.214 195.613 136.524 195.418L135.992 194.571L135.46 193.725C135.064 193.973 134.689 194.251 134.334 194.557L134.987 195.314ZM135.992 194.571L136.524 195.418L137.053 195.085L136.521 194.239L135.988 193.392L135.46 193.725L135.992 194.571ZM136.521 194.239L137.053 195.085L137.582 194.753L137.049 193.906L136.517 193.06L135.988 193.392L136.521 194.239ZM137.049 193.906L137.582 194.753C138.002 194.488 138.383 194.179 138.724 193.824L138.002 193.132L137.28 192.44C137.055 192.674 136.802 192.881 136.517 193.06L137.049 193.906ZM138.002 193.132L138.724 193.824L139.147 193.382L138.425 192.69L137.703 191.998L137.28 192.44L138.002 193.132ZM138.425 192.69L139.147 193.382L139.57 192.941L138.849 192.249L138.127 191.557L137.703 191.998L138.425 192.69ZM138.849 192.249L139.57 192.941C139.924 192.572 140.228 192.141 140.488 191.658L139.607 191.184L138.726 190.71C138.539 191.058 138.338 191.337 138.127 191.557L138.849 192.249ZM139.607 191.184L140.488 191.658L140.823 191.035L139.942 190.561L139.062 190.087L138.726 190.71L139.607 191.184ZM139.942 190.561L140.823 191.035L141.158 190.412L140.277 189.938L139.397 189.465L139.062 190.087L139.942 190.561ZM140.277 189.938L141.158 190.412C141.177 190.378 141.19 190.363 141.194 190.359C141.197 190.355 141.195 190.358 141.188 190.361C141.182 190.365 141.183 190.363 141.195 190.361C141.208 190.358 141.237 190.355 141.287 190.357L141.346 189.359L141.406 188.361C141.014 188.338 140.61 188.4 140.236 188.603C139.86 188.807 139.585 189.114 139.397 189.465L140.277 189.938ZM141.346 189.359L141.287 190.357L142.021 190.401L142.081 189.403L142.14 188.405L141.406 188.361L141.346 189.359ZM142.081 189.403L142.021 190.401L142.755 190.445L142.815 189.447L142.874 188.449L142.14 188.405L142.081 189.403ZM142.815 189.447L142.755 190.445C143.598 190.495 144.317 190.138 144.791 189.441L143.964 188.879L143.137 188.317C143.08 188.4 143.041 188.423 143.026 188.43C143.012 188.437 142.971 188.454 142.874 188.449L142.815 189.447ZM143.964 188.879L144.791 189.441L145.206 188.83L144.379 188.268L143.552 187.706L143.137 188.317L143.964 188.879ZM144.379 188.268L145.206 188.83L145.621 188.219L144.794 187.657L143.967 187.095L143.552 187.706L144.379 188.268ZM144.794 187.657L145.621 188.219C145.74 188.044 145.813 188.036 145.887 188.035L145.871 187.035L145.855 186.035C145.046 186.048 144.402 186.455 143.967 187.095L144.794 187.657ZM145.871 187.035L145.887 188.035L146.549 188.024L146.533 187.024L146.517 186.024L145.855 186.035L145.871 187.035ZM146.533 187.024L146.549 188.024L147.211 188.013L147.195 187.013L147.178 186.014L146.517 186.024L146.533 187.024ZM147.195 187.013L147.211 188.013C147.719 188.005 148.213 187.947 148.691 187.835L148.464 186.861L148.237 185.887C147.905 185.965 147.553 186.008 147.178 186.014L147.195 187.013ZM148.464 186.861L148.691 187.835L149.298 187.694L149.072 186.72L148.845 185.746L148.237 185.887L148.464 186.861ZM149.072 186.72L149.298 187.694L149.906 187.552L149.679 186.578L149.453 185.604L148.845 185.746L149.072 186.72ZM149.679 186.578L149.906 187.552C150.229 187.477 150.557 187.443 150.892 187.45L150.914 186.451L150.936 185.451C150.435 185.44 149.94 185.491 149.453 185.604L149.679 186.578ZM150.914 186.451L150.892 187.45L151.519 187.464L151.541 186.464L151.562 185.465L150.936 185.451L150.914 186.451ZM151.541 186.464L151.519 187.464L152.145 187.478L152.167 186.478L152.189 185.478L151.562 185.465L151.541 186.464ZM152.167 186.478L152.145 187.478C152.7 187.49 153.244 187.39 153.771 187.188L153.412 186.254L153.053 185.321C152.756 185.435 152.47 185.484 152.189 185.478L152.167 186.478ZM153.412 186.254L153.771 187.188L154.389 186.95L154.03 186.017L153.671 185.083L153.053 185.321L153.412 186.254ZM154.03 186.017L154.389 186.95L155.007 186.712L154.648 185.779L154.289 184.846L153.671 185.083L154.03 186.017ZM154.648 185.779L155.007 186.712C155.149 186.658 155.265 186.659 155.425 186.74L155.873 185.845L156.321 184.951C155.672 184.626 154.971 184.583 154.289 184.846L154.648 185.779ZM155.873 185.845L155.425 186.74L156.032 187.044L156.48 186.15L156.928 185.255L156.321 184.951L155.873 185.845ZM156.48 186.15L156.032 187.044L156.639 187.348L157.087 186.454L157.534 185.56L156.928 185.255L156.48 186.15ZM157.087 186.454L156.639 187.348C157.11 187.584 157.59 187.758 158.078 187.864L158.29 186.886L158.501 185.909C158.194 185.843 157.872 185.729 157.534 185.56L157.087 186.454ZM158.29 186.886L158.078 187.864L158.675 187.993L158.886 187.015L159.097 186.038L158.501 185.909L158.29 186.886ZM158.886 187.015L158.675 187.993L159.271 188.122L159.482 187.144L159.693 186.167L159.097 186.038L158.886 187.015ZM159.482 187.144L159.271 188.122C159.651 188.204 160.026 188.296 160.398 188.398L160.663 187.433L160.928 186.469C160.52 186.357 160.109 186.256 159.693 186.167L159.482 187.144ZM160.663 187.433L160.398 188.398L160.983 188.558L161.247 187.594L161.512 186.63L160.928 186.469L160.663 187.433ZM161.247 187.594L160.983 188.558L161.567 188.719L161.832 187.755L162.097 186.79L161.512 186.63L161.247 187.594ZM161.832 187.755L161.567 188.719C162.068 188.856 162.59 188.908 163.128 188.882L163.08 187.883L163.032 186.884C162.685 186.901 162.375 186.867 162.097 186.79L161.832 187.755ZM163.08 187.883L163.128 188.882L163.792 188.85L163.744 187.851L163.696 186.852L163.032 186.884L163.08 187.883ZM163.744 187.851L163.792 188.85L164.456 188.818L164.407 187.819L164.359 186.82L163.696 186.852L163.744 187.851ZM164.407 187.819L164.456 188.818C164.679 188.807 164.842 188.861 164.989 188.969L165.583 188.165L166.176 187.36C165.641 186.965 165.02 186.788 164.359 186.82L164.407 187.819ZM165.583 188.165L164.989 188.969L165.5 189.347L166.094 188.542L166.688 187.738L166.176 187.36L165.583 188.165ZM166.094 188.542L165.5 189.347L166.012 189.724L166.606 188.92L167.2 188.115L166.688 187.738L166.094 188.542ZM166.606 188.92L166.012 189.724C166.513 190.094 167.091 190.299 167.716 190.356L167.806 189.36L167.897 188.364C167.603 188.337 167.381 188.249 167.2 188.115L166.606 188.92ZM167.806 189.36L167.716 190.356L168.405 190.419L168.495 189.423L168.586 188.427L167.897 188.364L167.806 189.36ZM168.495 189.423L168.405 190.419L169.094 190.481L169.184 189.485L169.275 188.49L168.586 188.427L168.495 189.423ZM169.184 189.485L169.094 190.481C169.13 190.485 169.149 190.491 169.156 190.493C169.16 190.495 169.161 190.496 169.162 190.496C169.162 190.496 169.163 190.496 169.163 190.497C169.163 190.497 169.17 190.501 169.181 190.517C169.193 190.533 169.212 190.564 169.232 190.614L170.156 190.231L171.08 189.849C170.933 189.493 170.708 189.161 170.381 188.91C170.05 188.656 169.668 188.525 169.275 188.49L169.184 189.485ZM170.156 190.231L169.232 190.614L169.515 191.297L170.439 190.915L171.363 190.532L171.08 189.849L170.156 190.231ZM170.439 190.915L169.515 191.297L169.798 191.98L170.722 191.598L171.646 191.216L171.363 190.532L170.439 190.915ZM170.722 191.598L169.798 191.98C170.082 192.667 170.586 193.195 171.309 193.442L171.632 192.496L171.956 191.55C171.842 191.511 171.739 191.44 171.646 191.216L170.722 191.598ZM171.632 192.496L171.309 193.442L171.937 193.657L172.26 192.71L172.584 191.764L171.956 191.55L171.632 192.496ZM172.26 192.71L171.937 193.657L172.564 193.871L172.888 192.925L173.211 191.979L172.584 191.764L172.26 192.71ZM172.888 192.925L172.564 193.871C172.809 193.955 172.981 194.081 173.112 194.25L173.901 193.636L174.691 193.022C174.307 192.529 173.803 192.181 173.211 191.979L172.888 192.925ZM173.901 193.636L173.112 194.25L173.498 194.746L174.288 194.133L175.077 193.519L174.691 193.022L173.901 193.636ZM174.288 194.133L173.498 194.746L173.884 195.243L174.674 194.629L175.463 194.016L175.077 193.519L174.288 194.133ZM174.674 194.629L173.884 195.243C174.11 195.534 174.313 195.84 174.491 196.16L175.364 195.673L176.238 195.186C176.01 194.777 175.752 194.387 175.463 194.016L174.674 194.629ZM175.364 195.673L174.491 196.16L174.796 196.707L175.669 196.22L176.543 195.734L176.238 195.186L175.364 195.673ZM175.669 196.22L174.796 196.707L175.1 197.254L175.974 196.767L176.847 196.281L176.543 195.734L175.669 196.22ZM175.974 196.767L175.1 197.254C175.389 197.773 175.8 198.196 176.305 198.523L176.849 197.684L177.393 196.845C177.138 196.679 176.964 196.491 176.847 196.281L175.974 196.767ZM176.849 197.684L176.305 198.523L176.875 198.892L177.419 198.053L177.963 197.214L177.393 196.845L176.849 197.684ZM177.419 198.053L176.875 198.892L177.445 199.262L177.989 198.423L178.533 197.583L177.963 197.214L177.419 198.053ZM177.989 198.423L177.445 199.262C177.732 199.447 177.963 199.664 178.149 199.911L178.948 199.31L179.748 198.71C179.415 198.266 179.007 197.89 178.533 197.583L177.989 198.423ZM178.948 199.31L178.149 199.911L178.538 200.429L179.338 199.828L180.137 199.228L179.748 198.71L178.948 199.31ZM179.338 199.828L178.538 200.429L178.927 200.947L179.727 200.347L180.526 199.746L180.137 199.228L179.338 199.828ZM179.727 200.347L178.927 200.947C179.086 201.159 179.186 201.394 179.228 201.668L180.216 201.516L181.205 201.363C181.113 200.769 180.886 200.225 180.526 199.746L179.727 200.347ZM180.216 201.516L179.228 201.668L179.328 202.319L180.317 202.166L181.305 202.014L181.205 201.363L180.216 201.516ZM180.317 202.166L179.328 202.319L179.429 202.969L180.417 202.817L181.405 202.665L181.305 202.014L180.317 202.166ZM180.417 202.817L179.429 202.969C179.497 203.414 179.572 203.85 179.653 204.275L180.635 204.088L181.618 203.901C181.541 203.499 181.47 203.087 181.405 202.665L180.417 202.817ZM180.635 204.088L179.653 204.275L179.771 204.895L180.754 204.708L181.736 204.521L181.618 203.901L180.635 204.088ZM180.754 204.708L179.771 204.895L179.89 205.516L180.872 205.328L181.854 205.141L181.736 204.521L180.754 204.708ZM180.872 205.328L179.89 205.516C179.989 206.034 180.168 206.531 180.424 207.002L181.303 206.526L182.182 206.049C182.021 205.751 181.913 205.449 181.854 205.141L180.872 205.328ZM181.303 206.526L180.424 207.002L180.737 207.58L181.616 207.103L182.495 206.626L182.182 206.049L181.303 206.526ZM181.616 207.103L180.737 207.58L181.05 208.157L181.929 207.68L182.808 207.204L182.495 206.626L181.616 207.103ZM181.929 207.68L181.05 208.157C181.192 208.419 181.268 208.684 181.287 208.961L182.284 208.895L183.282 208.83C183.245 208.257 183.084 207.712 182.808 207.204L181.929 207.68ZM182.284 208.895L181.287 208.961L181.329 209.599L182.326 209.533L183.324 209.467L183.282 208.83L182.284 208.895ZM182.326 209.533L181.329 209.599L181.371 210.236L182.368 210.171L183.366 210.105L183.324 209.467L182.326 209.533ZM182.368 210.171L181.371 210.236C181.399 210.672 181.433 211.08 181.472 211.459L182.467 211.356L183.462 211.254C183.425 210.903 183.393 210.52 183.366 210.105L182.368 210.171ZM182.467 211.356L181.472 211.459L181.529 212.007L182.523 211.904L183.518 211.802L183.462 211.254L182.467 211.356ZM182.523 211.904L181.529 212.007L181.585 212.555L182.58 212.452L183.575 212.35L183.518 211.802L182.523 211.904ZM182.58 212.452L181.585 212.555C181.602 212.716 181.589 212.735 181.6 212.679C181.604 212.654 181.631 212.512 181.75 212.357C181.816 212.27 181.915 212.175 182.054 212.104C182.194 212.031 182.342 212 182.477 212V213V214C182.844 214 183.148 213.82 183.336 213.575C183.491 213.373 183.544 213.163 183.565 213.047C183.61 212.809 183.596 212.554 183.575 212.35L182.58 212.452ZM182.477 213V212H182.318V213V214H182.477V213ZM182.318 213V212H182.159V213V214H182.318V213ZM182.159 213V212C181.795 212 181.537 212.177 181.402 212.301C181.267 212.424 181.179 212.561 181.124 212.658C181.012 212.855 180.926 213.089 180.856 213.315L181.812 213.61L182.768 213.904C182.794 213.82 182.816 213.757 182.834 213.71C182.853 213.662 182.863 213.644 182.862 213.647C182.861 213.649 182.853 213.662 182.838 213.682C182.824 213.701 182.797 213.736 182.754 213.775C182.674 213.848 182.471 214 182.159 214V213ZM181.812 213.61L180.856 213.315L180.669 213.925L181.624 214.22L182.58 214.514L182.768 213.904L181.812 213.61Z" fill="#FFF77C"/>
<path d="M270.196 268.641C261.327 277.855 250.408 280.264 236.846 275.972C235.967 275.694 235.408 274.824 235.549 273.913C238.691 253.593 263.797 244.521 263.781 244.47C263.765 244.417 263.089 244.165 262.668 244.227C251.371 245.864 237.776 251.752 229.919 263.391C228.873 264.941 226.386 264.615 226.203 262.754C225.289 253.45 228.768 245.798 236.84 239.077C242.678 234.44 249.596 232.912 256.286 231.435C261.927 230.19 267.964 227.629 271.681 224.967C272.941 224.065 274.886 224.485 275.245 225.992C277.407 235.051 280.157 256.604 270.196 268.641Z" fill="#72F9F5"/>
<path d="M632.195 87.6415C623.327 96.8554 612.407 99.2636 598.846 94.9721C597.967 94.6939 597.408 93.8244 597.549 92.913C600.691 72.5932 625.797 63.5213 625.781 63.4698C625.764 63.417 625.088 63.1651 624.667 63.2269C613.371 64.8645 599.775 70.7515 591.919 82.3907C590.872 83.9408 588.386 83.6152 588.203 81.7539C587.288 72.45 590.767 64.7984 598.839 58.0767C604.677 53.4397 611.595 51.9116 618.286 50.4351C623.926 49.1897 629.963 46.6289 633.681 43.9674C634.941 43.0653 636.885 43.4846 637.245 44.9919C639.406 54.0509 642.157 75.6036 632.195 87.6415Z" fill="#FFF77C"/>
<line x1="644.293" y1="351.043" x2="633.293" y2="333.043" stroke="#C8BBE9" stroke-width="4"/>
<circle cx="584.5" cy="257.5" r="26.5" fill="#FFF77C"/>
<line y1="-2" x2="21.095" y2="-2" transform="matrix(0.52145 -0.853282 -0.853282 -0.52145 525 329)" stroke="#72F9F5" stroke-width="4"/>
<line x1="937.293" y1="178.043" x2="926.293" y2="160.043" stroke="#C8BBE9" stroke-width="4"/>
<path d="M994.173 138C970.148 138 1014.17 133.14 1014.17 94.5C1014.17 55.8602 970.148 51 994.173 51C1018.2 51 1037.67 70.4756 1037.67 94.5C1037.67 118.524 1018.2 138 994.173 138Z" fill="#73F8BE"/>
<circle cx="892.5" cy="219.5" r="26.5" fill="#72F9F5"/>
<line y1="-2" x2="21.095" y2="-2" transform="matrix(0.52145 -0.853282 -0.853282 -0.52145 1032 193)" stroke="#FFF77C" stroke-width="4"/>
</svg>
