<svg width="680" height="341" viewBox="0 0 680 341" fill="none" xmlns="http://www.w3.org/2000/svg">
<line y1="-2" x2="21.095" y2="-2" transform="matrix(0.52145 -0.853282 -0.853282 -0.52145 128 276)" stroke="#73F8BE" stroke-width="4"/>
<line x1="207.293" y1="127.043" x2="196.293" y2="109.043" stroke="#C8BBE9" stroke-width="4"/>
<line x1="678.293" y1="164.043" x2="667.293" y2="146.043" stroke="#C8BBE9" stroke-width="4"/>
<line x1="469.293" y1="84.0429" x2="458.293" y2="66.0429" stroke="#73F8BE" stroke-width="4"/>
<line y1="-2" x2="21.095" y2="-2" transform="matrix(0.52145 -0.853282 -0.853282 -0.52145 559 142)" stroke="#72F9F5" stroke-width="4"/>
<line y1="-2" x2="21.095" y2="-2" transform="matrix(0.52145 -0.853282 -0.853282 -0.52145 302 142)" stroke="#FFF77C" stroke-width="4"/>
<rect x="269" y="33" width="38" height="24" rx="8" fill="#73F8BE"/>
<rect x="309" y="33" width="38" height="24" rx="8" fill="#73F8BE"/>
<rect x="269" y="59" width="38" height="24" rx="8" fill="#73F8BE"/>
<rect x="309" y="59" width="38" height="24" rx="8" fill="#73F8BE"/>
<rect y="291" width="38" height="24" rx="8" fill="#C8BBE9"/>
<rect x="40" y="291" width="38" height="24" rx="8" fill="#C8BBE9"/>
<rect y="317" width="38" height="24" rx="8" fill="#C8BBE9"/>
<rect x="40" y="317" width="38" height="24" rx="8" fill="#C8BBE9"/>
<path d="M451.695 128C456.113 128 459.695 131.582 459.695 136H460C464.418 136 468 139.582 468 144V145C468 149.418 464.418 153 460 153H459.695V153.221C459.695 157.639 456.113 161.22 451.695 161.221H406C401.582 161.221 398 157.639 398 153.221V136C398 131.582 401.582 128 406 128H451.695Z" fill="#C8BBE9"/>
<circle cx="155" cy="181" r="27" fill="#FFF77C"/>
<path d="M182 181L182.989 181.147L183.159 180H182V181ZM181.985 181.099L182.905 181.492L182.956 181.373L182.975 181.246L181.985 181.099ZM180.86 183.732L179.94 183.339L179.798 183.672L179.902 184.019L180.86 183.732ZM181.754 186.713L182.564 187.299L182.853 186.899L182.712 186.426L181.754 186.713ZM179.988 189.158L179.177 188.573L179.143 188.619L179.115 188.67L179.988 189.158ZM178.635 191.575L177.763 191.087L177.646 191.295L177.636 191.534L178.635 191.575ZM178.509 194.646L179.469 194.925L179.503 194.808L179.508 194.687L178.509 194.646ZM177.66 197.56L177.96 198.514L178.47 198.353L178.62 197.84L177.66 197.56ZM174.404 198.585L174.104 197.631L173.592 197.792L173.443 198.307L174.404 198.585ZM173.502 201.702L173.601 202.697L174.275 202.63L174.463 201.98L173.502 201.702ZM170.149 202.035L170.05 201.04L169.832 201.062L169.644 201.172L170.149 202.035ZM167.799 203.41L167.294 202.547L167.035 202.698L166.902 202.968L167.799 203.41ZM166.236 206.583L166.614 207.509L166.965 207.366L167.133 207.025L166.236 206.583ZM163.511 207.695L163.351 208.682L163.628 208.727L163.889 208.621L163.511 207.695ZM160.404 207.19L160.564 206.203L160.373 206.172L160.185 206.215L160.404 207.19ZM157.644 207.809L157.535 208.803L157.7 208.821L157.862 208.784L157.644 207.809ZM154.816 207.498L154.455 208.431L154.577 208.478L154.707 208.492L154.816 207.498ZM152.131 206.461L152.491 205.528L152.019 205.345L151.593 205.618L152.131 206.461ZM148.927 208.507L148.529 209.425L149.017 209.637L149.465 209.35L148.927 208.507ZM146.203 207.325L146.602 206.408L146.484 206.356L146.357 206.337L146.203 207.325ZM143.213 206.859L142.544 207.602L142.765 207.801L143.059 207.847L143.213 206.859ZM140.952 204.821L141.621 204.078L141.536 204.002L141.436 203.947L140.952 204.821ZM138.389 203.403L137.859 204.25L137.881 204.265L137.905 204.278L138.389 203.403ZM135.865 201.823L134.91 202.12L135.02 202.474L135.334 202.67L135.865 201.823ZM134.899 198.716L135.854 198.419L135.85 198.405L135.845 198.391L134.899 198.716ZM133.946 195.942L134.892 195.617L134.742 195.18L134.313 195.011L133.946 195.942ZM130.695 194.662L129.713 194.847L129.815 195.39L130.329 195.592L130.695 194.662ZM130.139 191.713L129.142 191.637L129.132 191.769L129.157 191.899L130.139 191.713ZM130.375 188.664L131.372 188.741L131.393 188.465L131.269 188.217L130.375 188.664ZM129.12 186.154L128.121 186.115L128.111 186.371L128.226 186.601L129.12 186.154ZM129.23 183.363L130.229 183.403L130.23 183.38L130.23 183.357L129.23 183.363ZM129.214 180.641L130.214 180.635L130.213 180.381L130.09 180.159L129.214 180.641ZM127.606 177.723L126.647 177.438L126.528 177.839L126.73 178.206L127.606 177.723ZM128.434 174.941L127.662 174.305L127.533 174.461L127.476 174.655L128.434 174.941ZM130.376 172.582L131.148 173.218L131.268 173.073L131.326 172.894L130.376 172.582ZM131.235 169.97L130.399 169.422L130.326 169.533L130.285 169.658L131.235 169.97ZM132.742 167.667L133.579 168.215L133.668 168.079L133.709 167.921L132.742 167.667ZM133.489 164.82L133.112 163.894L132.649 164.082L132.522 164.566L133.489 164.82ZM136.373 163.644L136.75 164.57L137.046 164.449L137.217 164.18L136.373 163.644ZM137.868 161.288L137.195 160.549L137.096 160.639L137.024 160.752L137.868 161.288ZM139.913 159.427L139.651 158.462L139.418 158.525L139.239 158.688L139.913 159.427ZM142.659 158.681L142.921 159.646L143.272 159.551L143.479 159.253L142.659 158.681ZM144.468 156.087L144.337 155.096L143.9 155.153L143.648 155.515L144.468 156.087ZM147.32 155.711L147.375 154.712L147.282 154.707L147.19 154.719L147.32 155.711ZM150.174 155.868L150.119 156.866L150.3 156.876L150.473 156.822L150.174 155.868ZM152.801 155.043L153.1 155.997L153.269 155.944L153.41 155.836L152.801 155.043ZM155.585 152.901L156.291 152.193L155.67 151.574L154.975 152.109L155.585 152.901ZM158.227 155.536L157.521 156.244L158.074 156.795L158.743 156.393L158.227 155.536ZM161.448 153.6L162.077 152.822L161.533 152.382L160.933 152.743L161.448 153.6ZM163.889 155.573L163.261 156.351L163.379 156.446L163.52 156.503L163.889 155.573ZM166.521 156.62L167.166 155.856L167.042 155.751L166.891 155.691L166.521 156.62ZM168.711 158.466L168.067 159.231L168.279 159.409L168.553 159.453L168.711 158.466ZM171.816 158.965L172.762 158.642L172.569 158.073L171.974 157.977L171.816 158.965ZM172.876 162.079L171.93 162.401L171.985 162.565L172.093 162.7L172.876 162.079ZM174.576 164.223L175.391 163.644L175.375 163.622L175.359 163.602L174.576 164.223ZM176.145 166.43L175.33 167.009L175.459 167.192L175.655 167.302L176.145 166.43ZM178.918 167.989L179.905 167.827L179.827 167.353L179.408 167.117L178.918 167.989ZM179.392 170.886L178.406 171.048L178.468 171.429L178.77 171.669L179.392 170.886ZM182.043 172.992L182.929 173.457L183.313 172.724L182.665 172.209L182.043 172.992ZM180.296 176.324L179.41 175.859L179.122 176.409L179.486 176.911L180.296 176.324ZM182.157 178.889L183.143 179.059L183.214 178.643L182.967 178.302L182.157 178.889ZM181.793 181L180.808 180.83L180.606 182H181.793V181ZM182 181L181.011 180.853L180.996 180.952L181.985 181.099L182.975 181.246L182.989 181.147L182 181ZM181.985 181.099L181.066 180.706L179.94 183.339L180.86 183.732L181.779 184.125L182.905 181.492L181.985 181.099ZM180.86 183.732L179.902 184.019L180.796 187L181.754 186.713L182.712 186.426L181.818 183.445L180.86 183.732ZM181.754 186.713L180.943 186.128L179.177 188.573L179.988 189.158L180.798 189.744L182.564 187.299L181.754 186.713ZM179.988 189.158L179.115 188.67L177.763 191.087L178.635 191.575L179.508 192.063L180.86 189.646L179.988 189.158ZM178.635 191.575L177.636 191.534L177.51 194.605L178.509 194.646L179.508 194.687L179.634 191.616L178.635 191.575ZM178.509 194.646L177.549 194.366L176.7 197.28L177.66 197.56L178.62 197.84L179.469 194.925L178.509 194.646ZM177.66 197.56L177.36 196.606L174.104 197.631L174.404 198.585L174.704 199.538L177.96 198.514L177.66 197.56ZM174.404 198.585L173.443 198.307L172.542 201.424L173.502 201.702L174.463 201.98L175.364 198.862L174.404 198.585ZM173.502 201.702L173.403 200.707L170.05 201.04L170.149 202.035L170.248 203.031L173.601 202.697L173.502 201.702ZM170.149 202.035L169.644 201.172L167.294 202.547L167.799 203.41L168.304 204.273L170.654 202.899L170.149 202.035ZM167.799 203.41L166.902 202.968L165.339 206.142L166.236 206.583L167.133 207.025L168.696 203.852L167.799 203.41ZM166.236 206.583L165.858 205.657L163.133 206.769L163.511 207.695L163.889 208.621L166.614 207.509L166.236 206.583ZM163.511 207.695L163.671 206.708L160.564 206.203L160.404 207.19L160.243 208.178L163.351 208.682L163.511 207.695ZM160.404 207.19L160.185 206.215L157.425 206.833L157.644 207.809L157.862 208.784L160.622 208.166L160.404 207.19ZM157.644 207.809L157.753 206.815L154.925 206.504L154.816 207.498L154.707 208.492L157.535 208.803L157.644 207.809ZM154.816 207.498L155.176 206.566L152.491 205.528L152.131 206.461L151.77 207.393L154.455 208.431L154.816 207.498ZM152.131 206.461L151.593 205.618L148.389 207.665L148.927 208.507L149.465 209.35L152.669 207.303L152.131 206.461ZM148.927 208.507L149.325 207.59L146.602 206.408L146.203 207.325L145.805 208.242L148.529 209.425L148.927 208.507ZM146.203 207.325L146.357 206.337L143.367 205.871L143.213 206.859L143.059 207.847L146.049 208.313L146.203 207.325ZM143.213 206.859L143.882 206.116L141.621 204.078L140.952 204.821L140.282 205.564L142.544 207.602L143.213 206.859ZM140.952 204.821L141.436 203.947L138.874 202.528L138.389 203.403L137.905 204.278L140.467 205.696L140.952 204.821ZM138.389 203.403L138.92 202.555L136.395 200.975L135.865 201.823L135.334 202.67L137.859 204.25L138.389 203.403ZM135.865 201.823L136.82 201.526L135.854 198.419L134.899 198.716L133.944 199.013L134.91 202.12L135.865 201.823ZM134.899 198.716L135.845 198.391L134.892 195.617L133.946 195.942L133 196.267L133.953 199.041L134.899 198.716ZM133.946 195.942L134.313 195.011L131.062 193.731L130.695 194.662L130.329 195.592L133.58 196.872L133.946 195.942ZM130.695 194.662L131.678 194.476L131.122 191.528L130.139 191.713L129.157 191.899L129.713 194.847L130.695 194.662ZM130.139 191.713L131.136 191.79L131.372 188.741L130.375 188.664L129.377 188.587L129.142 191.637L130.139 191.713ZM130.375 188.664L131.269 188.217L130.015 185.707L129.12 186.154L128.226 186.601L129.48 189.111L130.375 188.664ZM129.12 186.154L130.12 186.193L130.229 183.403L129.23 183.363L128.231 183.324L128.121 186.115L129.12 186.154ZM129.23 183.363L130.23 183.357L130.214 180.635L129.214 180.641L128.214 180.647L128.23 183.369L129.23 183.363ZM129.214 180.641L130.09 180.159L128.481 177.24L127.606 177.723L126.73 178.206L128.338 181.124L129.214 180.641ZM127.606 177.723L128.564 178.008L129.392 175.226L128.434 174.941L127.476 174.655L126.647 177.438L127.606 177.723ZM128.434 174.941L129.206 175.576L131.148 173.218L130.376 172.582L129.605 171.946L127.662 174.305L128.434 174.941ZM130.376 172.582L131.326 172.894L132.185 170.282L131.235 169.97L130.285 169.658L129.427 172.27L130.376 172.582ZM131.235 169.97L132.072 170.518L133.579 168.215L132.742 167.667L131.905 167.12L130.399 169.422L131.235 169.97ZM132.742 167.667L133.709 167.921L134.456 165.073L133.489 164.82L132.522 164.566L131.775 167.414L132.742 167.667ZM133.489 164.82L133.867 165.746L136.75 164.57L136.373 163.644L135.995 162.718L133.112 163.894L133.489 164.82ZM136.373 163.644L137.217 164.18L138.712 161.824L137.868 161.288L137.024 160.752L135.529 163.108L136.373 163.644ZM137.868 161.288L138.541 162.028L140.586 160.166L139.913 159.427L139.239 158.688L137.195 160.549L137.868 161.288ZM139.913 159.427L140.175 160.392L142.921 159.646L142.659 158.681L142.397 157.716L139.651 158.462L139.913 159.427ZM142.659 158.681L143.479 159.253L145.288 156.659L144.468 156.087L143.648 155.515L141.839 158.109L142.659 158.681ZM144.468 156.087L144.599 157.078L147.451 156.702L147.32 155.711L147.19 154.719L144.337 155.096L144.468 156.087ZM147.32 155.711L147.265 156.709L150.119 156.866L150.174 155.868L150.229 154.869L147.375 154.712L147.32 155.711ZM150.174 155.868L150.473 156.822L153.1 155.997L152.801 155.043L152.501 154.089L149.874 154.914L150.174 155.868ZM152.801 155.043L153.41 155.836L156.195 153.694L155.585 152.901L154.975 152.109L152.191 154.251L152.801 155.043ZM155.585 152.901L154.879 153.609L157.521 156.244L158.227 155.536L158.933 154.828L156.291 152.193L155.585 152.901ZM158.227 155.536L158.743 156.393L161.964 154.457L161.448 153.6L160.933 152.743L157.712 154.679L158.227 155.536ZM161.448 153.6L160.82 154.378L163.261 156.351L163.889 155.573L164.518 154.796L162.077 152.822L161.448 153.6ZM163.889 155.573L163.52 156.503L166.152 157.55L166.521 156.62L166.891 155.691L164.259 154.644L163.889 155.573ZM166.521 156.62L165.877 157.385L168.067 159.231L168.711 158.466L169.356 157.701L167.166 155.856L166.521 156.62ZM168.711 158.466L168.553 159.453L171.657 159.952L171.816 158.965L171.974 157.977L168.87 157.479L168.711 158.466ZM171.816 158.965L170.869 159.287L171.93 162.401L172.876 162.079L173.823 161.757L172.762 158.642L171.816 158.965ZM172.876 162.079L172.093 162.7L173.792 164.844L174.576 164.223L175.359 163.602L173.66 161.458L172.876 162.079ZM174.576 164.223L173.761 164.803L175.33 167.009L176.145 166.43L176.96 165.85L175.391 163.644L174.576 164.223ZM176.145 166.43L175.655 167.302L178.428 168.861L178.918 167.989L179.408 167.117L176.635 165.558L176.145 166.43ZM178.918 167.989L177.931 168.15L178.406 171.048L179.392 170.886L180.379 170.725L179.905 167.827L178.918 167.989ZM179.392 170.886L178.77 171.669L181.421 173.775L182.043 172.992L182.665 172.209L180.015 170.103L179.392 170.886ZM182.043 172.992L181.158 172.528L179.41 175.859L180.296 176.324L181.181 176.788L182.929 173.457L182.043 172.992ZM180.296 176.324L179.486 176.911L181.348 179.476L182.157 178.889L182.967 178.302L181.105 175.736L180.296 176.324ZM182.157 178.889L181.172 178.719L180.808 180.83L181.793 181L182.779 181.17L183.143 179.059L182.157 178.889ZM181.793 181V182H182V181V180H181.793V181Z" fill="#FFF77C"/>
<path d="M237.196 310.641C228.327 319.855 217.408 322.264 203.846 317.972C202.967 317.694 202.408 316.824 202.549 315.913C205.691 295.593 230.797 286.521 230.781 286.47C230.765 286.417 230.088 286.165 229.667 286.227C218.371 287.864 204.776 293.752 196.919 305.391C195.872 306.941 193.386 306.615 193.203 304.754C192.289 295.45 195.767 287.798 203.84 281.077C209.677 276.44 216.596 274.912 223.286 273.435C228.927 272.19 234.964 269.629 238.681 266.967C239.941 266.065 241.885 266.485 242.245 267.992C244.407 277.051 247.157 298.604 237.196 310.641Z" fill="#72F9F5"/>
<path d="M632.196 55.6415C623.327 64.8554 612.408 67.2636 598.846 62.9721C597.967 62.6939 597.408 61.8244 597.549 60.913C600.691 40.5932 625.797 31.5213 625.781 31.4698C625.765 31.417 625.088 31.1651 624.667 31.2269C613.371 32.8645 599.776 38.7515 591.919 50.3907C590.872 51.9408 588.386 51.6152 588.203 49.7539C587.289 40.45 590.767 32.7984 598.84 26.0767C604.677 21.4397 611.596 19.9116 618.286 18.4351C623.927 17.1897 629.964 14.6289 633.681 11.9674C634.941 11.0653 636.885 11.4846 637.245 12.9919C639.407 22.0509 642.157 43.6036 632.196 55.6415Z" fill="#FFF77C"/>
</svg>
