<svg width="931" height="682" viewBox="0 0 931 682" fill="none" xmlns="http://www.w3.org/2000/svg">
<rect x="852.472" y="631.426" width="38" height="24" rx="8" fill="#73F8BE"/>
<rect x="892.472" y="631.426" width="38" height="24" rx="8" fill="#73F8BE"/>
<rect x="852.472" y="657.426" width="38" height="24" rx="8" fill="#73F8BE"/>
<rect x="892.472" y="657.426" width="38" height="24" rx="8" fill="#73F8BE"/>
<rect x="760.472" y="279.426" width="38" height="24" rx="8" fill="#72F9F5"/>
<rect x="800.472" y="279.426" width="38" height="24" rx="8" fill="#72F9F5"/>
<rect x="760.472" y="305.426" width="38" height="24" rx="8" fill="#72F9F5"/>
<rect x="800.472" y="305.426" width="38" height="24" rx="8" fill="#72F9F5"/>
<path d="M296.168 141.426C300.586 141.426 304.168 145.008 304.168 149.426H304.472C308.891 149.426 312.472 153.008 312.472 157.426V158.426C312.472 162.844 308.891 166.426 304.472 166.426H304.168V166.647C304.168 171.065 300.586 174.647 296.168 174.647H250.472C246.054 174.647 242.472 171.065 242.472 166.647V149.426C242.473 145.008 246.054 141.426 250.472 141.426H296.168Z" fill="#FFF77C"/>
<path d="M592.168 617.426C596.586 617.426 600.168 621.008 600.168 625.426H600.472C604.891 625.426 608.472 629.008 608.472 633.426V634.426C608.472 638.844 604.891 642.426 600.472 642.426H600.168V642.647C600.168 647.065 596.586 650.647 592.168 650.647H546.472C542.054 650.647 538.472 647.065 538.472 642.647V625.426C538.473 621.008 542.054 617.426 546.472 617.426H592.168Z" fill="#C8BBE9"/>
<circle cx="761.472" cy="29.426" r="27" fill="#72F9F5"/>
<path d="M788.472 29.426L789.462 29.5728L789.632 28.426H788.472V29.426ZM788.458 29.5249L789.377 29.918L789.428 29.7994L789.447 29.6717L788.458 29.5249ZM787.332 32.1579L786.413 31.7648L786.27 32.098L786.374 32.4452L787.332 32.1579ZM788.226 35.1391L789.037 35.7246L789.326 35.3246L789.184 34.8519L788.226 35.1391ZM786.46 37.5842L785.65 36.9987L785.616 37.0455L785.588 37.0959L786.46 37.5842ZM785.108 40.0011L784.235 39.5127L784.118 39.7213L784.109 39.9601L785.108 40.0011ZM784.982 43.0716L785.942 43.3515L785.976 43.2344L785.981 43.1126L784.982 43.0716ZM784.132 45.986L784.432 46.9398L784.943 46.7793L785.092 46.2658L784.132 45.986ZM780.876 47.0105L780.576 46.0567L780.065 46.2176L779.916 46.7327L780.876 47.0105ZM779.975 50.1278L780.074 51.1228L780.747 51.0558L780.935 50.4056L779.975 50.1278ZM776.621 50.4615L776.522 49.4664L776.305 49.488L776.116 49.5983L776.621 50.4615ZM774.272 51.8357L773.767 50.9726L773.508 51.1243L773.375 51.3938L774.272 51.8357ZM772.709 55.0095L773.086 55.9354L773.438 55.792L773.606 55.4514L772.709 55.0095ZM769.983 56.1209L769.823 57.108L770.101 57.1531L770.361 57.0469L769.983 56.1209ZM766.876 55.6165L767.036 54.6294L766.846 54.5985L766.658 54.6407L766.876 55.6165ZM764.116 56.2347L764.007 57.2287L764.172 57.2469L764.335 57.2105L764.116 56.2347ZM761.288 55.9243L760.928 56.8571L761.049 56.9041L761.179 56.9183L761.288 55.9243ZM758.603 54.8867L758.964 53.9539L758.492 53.7714L758.065 54.0439L758.603 54.8867ZM755.4 56.9333L755.001 57.8506L755.489 58.0625L755.938 57.7761L755.4 56.9333ZM752.676 55.7508L753.074 54.8335L752.957 54.7825L752.83 54.7627L752.676 55.7508ZM749.686 55.2847L749.016 56.0277L749.237 56.2269L749.532 56.2728L749.686 55.2847ZM747.424 53.2475L748.093 52.5045L748.008 52.428L747.908 52.3727L747.424 53.2475ZM744.862 51.8287L744.331 52.6764L744.354 52.6906L744.377 52.7035L744.862 51.8287ZM742.337 50.2488L741.382 50.5456L741.492 50.8997L741.807 51.0965L742.337 50.2488ZM741.371 47.1422L742.326 46.8454L742.322 46.8313L742.317 46.8174L741.371 47.1422ZM740.419 44.3677L741.364 44.0429L741.214 43.6064L740.785 43.4373L740.419 44.3677ZM737.168 43.0878L736.185 43.2732L736.288 43.8159L736.802 44.0182L737.168 43.0878ZM736.612 40.1395L735.615 40.0625L735.604 40.1947L735.629 40.3249L736.612 40.1395ZM736.847 37.0901L737.844 37.167L737.865 36.8909L737.742 36.6431L736.847 37.0901ZM735.593 34.5801L734.594 34.5408L734.583 34.7974L734.698 35.0271L735.593 34.5801ZM735.703 31.7892L736.702 31.8286L736.703 31.8059L736.703 31.7833L735.703 31.7892ZM735.687 29.0673L736.687 29.0614L736.685 28.8072L736.562 28.5846L735.687 29.0673ZM734.078 26.1491L733.12 25.8637L733 26.2651L733.202 26.6318L734.078 26.1491ZM734.906 23.3668L734.135 22.7311L734.006 22.8874L733.948 23.0814L734.906 23.3668ZM736.849 21.008L737.621 21.6436L737.74 21.4987L737.799 21.3203L736.849 21.008ZM737.708 18.396L736.871 17.8484L736.799 17.9586L736.758 18.0836L737.708 18.396ZM739.215 16.0934L740.051 16.641L740.141 16.5047L740.182 16.3471L739.215 16.0934ZM739.962 13.2456L739.584 12.3196L739.121 12.5084L738.994 12.9919L739.962 13.2456ZM742.845 12.0699L743.223 12.9959L743.518 12.8754L743.689 12.6059L742.845 12.0699ZM744.341 9.71437L743.667 8.97492L743.568 9.0652L743.496 9.1784L744.341 9.71437ZM746.385 7.853L746.123 6.88797L745.89 6.95119L745.712 7.11356L746.385 7.853ZM749.132 7.10695L749.394 8.07199L749.744 7.97681L749.952 7.67898L749.132 7.10695ZM750.941 4.51308L750.81 3.52168L750.373 3.57939L750.12 3.94105L750.941 4.51308ZM753.793 4.13654L753.848 3.13805L753.755 3.13291L753.662 3.14514L753.793 4.13654ZM756.646 4.29377L756.591 5.29226L756.773 5.30225L756.946 5.24786L756.646 4.29377ZM759.273 3.46921L759.572 4.4233L759.742 4.37011L759.883 4.26183L759.273 3.46921ZM762.057 1.32732L762.763 0.6192L762.143 0.000110626L761.448 0.534699L762.057 1.32732ZM764.7 3.96225L763.994 4.67037L764.546 5.22133L765.215 4.81932L764.7 3.96225ZM767.921 2.02607L768.549 1.24841L768.005 0.808494L767.406 1.169L767.921 2.02607ZM770.362 3.99942L769.733 4.77708L769.851 4.87249L769.992 4.92859L770.362 3.99942ZM772.994 5.04651L773.638 4.28188L773.514 4.17731L773.363 4.11733L772.994 5.04651ZM775.184 6.89211L774.539 7.65674L774.751 7.83549L775.025 7.87946L775.184 6.89211ZM778.288 7.39062L779.235 7.06832L779.041 6.49867L778.447 6.40327L778.288 7.39062ZM779.349 10.5051L778.402 10.8274L778.458 10.9909L778.565 11.1262L779.349 10.5051ZM781.048 12.6491L781.863 12.0696L781.848 12.0484L781.832 12.0279L781.048 12.6491ZM782.617 14.8559L781.802 15.4354L781.932 15.6179L782.127 15.7276L782.617 14.8559ZM785.39 16.4149L786.377 16.2532L786.299 15.7788L785.88 15.5432L785.39 16.4149ZM785.865 19.3125L784.878 19.4741L784.941 19.8552L785.243 20.0955L785.865 19.3125ZM788.516 21.4182L789.401 21.8827L789.786 21.1499L789.138 20.6352L788.516 21.4182ZM786.768 24.7496L785.883 24.2851L785.594 24.8347L785.959 25.3369L786.768 24.7496ZM788.63 27.3152L789.615 27.4852L789.687 27.0694L789.439 26.7279L788.63 27.3152ZM788.266 29.426L787.28 29.256L787.078 30.426H788.266V29.426ZM788.472 29.426L787.483 29.2793L787.469 29.3782L788.458 29.5249L789.447 29.6717L789.462 29.5728L788.472 29.426ZM788.458 29.5249L787.538 29.1318L786.413 31.7648L787.332 32.1579L788.252 32.551L789.377 29.918L788.458 29.5249ZM787.332 32.1579L786.374 32.4452L787.268 35.4264L788.226 35.1391L789.184 34.8519L788.29 31.8707L787.332 32.1579ZM788.226 35.1391L787.415 34.5536L785.65 36.9987L786.46 37.5842L787.271 38.1697L789.037 35.7246L788.226 35.1391ZM786.46 37.5842L785.588 37.0959L784.235 39.5127L785.108 40.0011L785.98 40.4894L787.333 38.0725L786.46 37.5842ZM785.108 40.0011L784.109 39.9601L783.983 43.0306L784.982 43.0716L785.981 43.1126L786.107 40.0421L785.108 40.0011ZM784.982 43.0716L784.022 42.7917L783.172 45.7061L784.132 45.986L785.092 46.2658L785.942 43.3515L784.982 43.0716ZM784.132 45.986L783.832 45.0321L780.576 46.0567L780.876 47.0105L781.176 47.9644L784.432 46.9398L784.132 45.986ZM780.876 47.0105L779.916 46.7327L779.014 49.8499L779.975 50.1278L780.935 50.4056L781.837 47.2884L780.876 47.0105ZM779.975 50.1278L779.876 49.1327L776.522 49.4664L776.621 50.4615L776.72 51.4565L780.074 51.1228L779.975 50.1278ZM776.621 50.4615L776.116 49.5983L773.767 50.9726L774.272 51.8357L774.777 52.6989L777.126 51.3246L776.621 50.4615ZM774.272 51.8357L773.375 51.3938L771.811 54.5676L772.709 55.0095L773.606 55.4514L775.169 52.2776L774.272 51.8357ZM772.709 55.0095L772.331 54.0835L769.606 55.195L769.983 56.1209L770.361 57.0469L773.086 55.9354L772.709 55.0095ZM769.983 56.1209L770.144 55.1339L767.036 54.6294L766.876 55.6165L766.716 56.6035L769.823 57.108L769.983 56.1209ZM766.876 55.6165L766.658 54.6407L763.898 55.2589L764.116 56.2347L764.335 57.2105L767.095 56.5923L766.876 55.6165ZM764.116 56.2347L764.225 55.2407L761.397 54.9303L761.288 55.9243L761.179 56.9183L764.007 57.2287L764.116 56.2347ZM761.288 55.9243L761.649 54.9916L758.964 53.9539L758.603 54.8867L758.243 55.8194L760.928 56.8571L761.288 55.9243ZM758.603 54.8867L758.065 54.0439L754.861 56.0906L755.4 56.9333L755.938 57.7761L759.142 55.7294L758.603 54.8867ZM755.4 56.9333L755.798 56.0161L753.074 54.8335L752.676 55.7508L752.278 56.6681L755.001 57.8506L755.4 56.9333ZM752.676 55.7508L752.83 54.7627L749.84 54.2966L749.686 55.2847L749.532 56.2728L752.522 56.7389L752.676 55.7508ZM749.686 55.2847L750.355 54.5417L748.093 52.5045L747.424 53.2475L746.755 53.9905L749.016 56.0277L749.686 55.2847ZM747.424 53.2475L747.908 52.3727L745.346 50.9539L744.862 51.8287L744.377 52.7035L746.94 54.1223L747.424 53.2475ZM744.862 51.8287L745.392 50.981L742.868 49.4011L742.337 50.2488L741.807 51.0965L744.331 52.6764L744.862 51.8287ZM742.337 50.2488L743.292 49.9519L742.326 46.8454L741.371 47.1422L740.417 47.4391L741.382 50.5456L742.337 50.2488ZM741.371 47.1422L742.317 46.8174L741.364 44.0429L740.419 44.3677L739.473 44.6925L740.426 47.467L741.371 47.1422ZM740.419 44.3677L740.785 43.4373L737.534 42.1573L737.168 43.0878L736.802 44.0182L740.052 45.2982L740.419 44.3677ZM737.168 43.0878L738.151 42.9024L737.594 39.9541L736.612 40.1395L735.629 40.3249L736.185 43.2732L737.168 43.0878ZM736.612 40.1395L737.609 40.2164L737.844 37.167L736.847 37.0901L735.85 37.0132L735.615 40.0625L736.612 40.1395ZM736.847 37.0901L737.742 36.6431L736.487 34.1331L735.593 34.5801L734.698 35.0271L735.952 37.5371L736.847 37.0901ZM735.593 34.5801L736.592 34.6195L736.702 31.8286L735.703 31.7892L734.703 31.7498L734.594 34.5408L735.593 34.5801ZM735.703 31.7892L736.703 31.7833L736.687 29.0614L735.687 29.0673L734.687 29.0732L734.703 31.7951L735.703 31.7892ZM735.687 29.0673L736.562 28.5846L734.954 25.6663L734.078 26.1491L733.202 26.6318L734.811 29.5501L735.687 29.0673ZM734.078 26.1491L735.036 26.4345L735.865 23.6522L734.906 23.3668L733.948 23.0814L733.12 25.8637L734.078 26.1491ZM734.906 23.3668L735.678 24.0025L737.621 21.6436L736.849 21.008L736.077 20.3723L734.135 22.7311L734.906 23.3668ZM736.849 21.008L737.799 21.3203L738.658 18.7083L737.708 18.396L736.758 18.0836L735.899 20.6956L736.849 21.008ZM737.708 18.396L738.545 18.9436L740.051 16.641L739.215 16.0934L738.378 15.5458L736.871 17.8484L737.708 18.396ZM739.215 16.0934L740.182 16.3471L740.929 13.4993L739.962 13.2456L738.994 12.9919L738.247 15.8397L739.215 16.0934ZM739.962 13.2456L740.339 14.1716L743.223 12.9959L742.845 12.0699L742.468 11.1439L739.584 12.3196L739.962 13.2456ZM742.845 12.0699L743.689 12.6059L745.185 10.2503L744.341 9.71437L743.496 9.1784L742.001 11.5339L742.845 12.0699ZM744.341 9.71437L745.014 10.4538L747.058 8.59245L746.385 7.853L745.712 7.11356L743.667 8.97492L744.341 9.71437ZM746.385 7.853L746.647 8.81803L749.394 8.07199L749.132 7.10695L748.87 6.14192L746.123 6.88797L746.385 7.853ZM749.132 7.10695L749.952 7.67898L751.761 5.0851L750.941 4.51308L750.12 3.94105L748.311 6.53493L749.132 7.10695ZM750.941 4.51308L751.071 5.50448L753.924 5.12794L753.793 4.13654L753.662 3.14514L750.81 3.52168L750.941 4.51308ZM753.793 4.13654L753.738 5.13502L756.591 5.29226L756.646 4.29377L756.701 3.29529L753.848 3.13805L753.793 4.13654ZM756.646 4.29377L756.946 5.24786L759.572 4.4233L759.273 3.46921L758.973 2.51512L756.347 3.33968L756.646 4.29377ZM759.273 3.46921L759.883 4.26183L762.667 2.11994L762.057 1.32732L761.448 0.534699L758.663 2.67659L759.273 3.46921ZM762.057 1.32732L761.351 2.03543L763.994 4.67037L764.7 3.96225L765.406 3.25414L762.763 0.6192L762.057 1.32732ZM764.7 3.96225L765.215 4.81932L768.436 2.88314L767.921 2.02607L767.406 1.169L764.185 3.10518L764.7 3.96225ZM767.921 2.02607L767.292 2.80373L769.733 4.77708L770.362 3.99942L770.99 3.22176L768.549 1.24841L767.921 2.02607ZM770.362 3.99942L769.992 4.92859L772.624 5.97568L772.994 5.04651L773.363 4.11733L770.731 3.07024L770.362 3.99942ZM772.994 5.04651L772.349 5.81114L774.539 7.65674L775.184 6.89211L775.828 6.12748L773.638 4.28188L772.994 5.04651ZM775.184 6.89211L775.025 7.87946L778.13 8.37798L778.288 7.39062L778.447 6.40327L775.342 5.90476L775.184 6.89211ZM778.288 7.39062L777.342 7.71292L778.402 10.8274L779.349 10.5051L780.295 10.1828L779.235 7.06832L778.288 7.39062ZM779.349 10.5051L778.565 11.1262L780.264 13.2702L781.048 12.6491L781.832 12.0279L780.132 9.88393L779.349 10.5051ZM781.048 12.6491L780.233 13.2285L781.802 15.4354L782.617 14.8559L783.432 14.2764L781.863 12.0696L781.048 12.6491ZM782.617 14.8559L782.127 15.7276L784.9 17.2866L785.39 16.4149L785.88 15.5432L783.107 13.9842L782.617 14.8559ZM785.39 16.4149L784.403 16.5765L784.878 19.4741L785.865 19.3125L786.852 19.1508L786.377 16.2532L785.39 16.4149ZM785.865 19.3125L785.243 20.0955L787.894 22.2012L788.516 21.4182L789.138 20.6352L786.487 18.5295L785.865 19.3125ZM788.516 21.4182L787.63 20.9537L785.883 24.2851L786.768 24.7496L787.654 25.2142L789.401 21.8827L788.516 21.4182ZM786.768 24.7496L785.959 25.3369L787.82 27.9025L788.63 27.3152L789.439 26.7279L787.578 24.1623L786.768 24.7496ZM788.63 27.3152L787.644 27.1452L787.28 29.256L788.266 29.426L789.251 29.596L789.615 27.4852L788.63 27.3152ZM788.266 29.426V30.426H788.472V29.426V28.426H788.266V29.426Z" fill="#72F9F5"/>
<circle cx="28.4724" cy="208.426" r="27" fill="#73F8BE"/>
<path d="M55.4724 208.426L56.4616 208.573L56.6317 207.426H55.4724V208.426ZM55.4578 208.525L56.3773 208.918L56.428 208.799L56.4469 208.672L55.4578 208.525ZM54.3321 211.158L53.4126 210.765L53.2702 211.098L53.3743 211.445L54.3321 211.158ZM55.2261 214.139L56.0368 214.725L56.3258 214.325L56.184 213.852L55.2261 214.139ZM53.4602 216.584L52.6495 215.999L52.6157 216.045L52.5875 216.096L53.4602 216.584ZM52.1078 219.001L51.2351 218.513L51.1184 218.721L51.1086 218.96L52.1078 219.001ZM51.9818 222.072L52.9418 222.351L52.9759 222.234L52.9809 222.113L51.9818 222.072ZM51.1322 224.986L51.4323 225.94L51.9425 225.779L52.0922 225.266L51.1322 224.986ZM47.8763 226.011L47.5761 225.057L47.0646 225.218L46.9157 225.733L47.8763 226.011ZM46.9747 229.128L47.0737 230.123L47.7472 230.056L47.9353 229.406L46.9747 229.128ZM43.6212 229.461L43.5221 228.466L43.3048 228.488L43.1162 228.598L43.6212 229.461ZM41.2718 230.836L40.7669 229.973L40.5076 230.124L40.3748 230.394L41.2718 230.836ZM39.7085 234.009L40.0862 234.935L40.4378 234.792L40.6056 234.451L39.7085 234.009ZM36.9833 235.121L36.8231 236.108L37.1006 236.153L37.361 236.047L36.9833 235.121ZM33.8761 234.616L34.0364 233.629L33.8459 233.598L33.6576 233.641L33.8761 234.616ZM31.1161 235.235L31.007 236.229L31.1724 236.247L31.3347 236.211L31.1161 235.235ZM28.2881 234.924L27.9276 235.857L28.0493 235.904L28.179 235.918L28.2881 234.924ZM25.6033 233.887L25.9638 232.954L25.4916 232.771L25.065 233.044L25.6033 233.887ZM22.3995 235.933L22.0013 236.851L22.4894 237.063L22.9379 236.776L22.3995 235.933ZM19.6759 234.751L20.0741 233.834L19.9566 233.782L19.8299 233.763L19.6759 234.751ZM16.6856 234.285L16.0163 235.028L16.2374 235.227L16.5315 235.273L16.6856 234.285ZM14.4241 232.248L15.0934 231.505L15.0085 231.428L14.9085 231.373L14.4241 232.248ZM11.8617 230.829L11.3312 231.676L11.3539 231.691L11.3773 231.704L11.8617 230.829ZM9.33715 229.249L8.38222 229.546L8.49229 229.9L8.80664 230.096L9.33715 229.249ZM8.3715 226.142L9.32643 225.845L9.32206 225.831L9.31728 225.817L8.3715 226.142ZM7.41864 223.368L8.36442 223.043L8.21449 222.606L7.78501 222.437L7.41864 223.368ZM4.16794 222.088L3.18528 222.273L3.28768 222.816L3.80157 223.018L4.16794 222.088ZM3.61166 219.139L2.61462 219.063L2.60443 219.195L2.629 219.325L3.61166 219.139ZM3.84696 216.09L4.844 216.167L4.86531 215.891L4.7415 215.643L3.84696 216.09ZM2.59275 213.58L1.59353 213.541L1.58342 213.797L1.69822 214.027L2.59275 213.58ZM2.70271 210.789L3.70194 210.829L3.70283 210.806L3.70269 210.783L2.70271 210.789ZM2.68663 208.067L3.68661 208.061L3.68511 207.807L3.56238 207.585L2.68663 208.067ZM1.07795 205.149L0.11954 204.864L1.38283e-05 205.265L0.202194 205.632L1.07795 205.149ZM1.90645 202.367L1.13451 201.731L1.00582 201.887L0.948045 202.081L1.90645 202.367ZM3.84893 200.008L4.62088 200.644L4.74025 200.499L4.7989 200.32L3.84893 200.008ZM4.70776 197.396L3.87101 196.848L3.79892 196.959L3.7578 197.084L4.70776 197.396ZM6.21462 195.093L7.05137 195.641L7.14057 195.505L7.1819 195.347L6.21462 195.093ZM6.96162 192.246L6.58407 191.32L6.12117 191.508L5.99434 191.992L6.96162 192.246ZM9.8452 191.07L10.2227 191.996L10.5183 191.875L10.6894 191.606L9.8452 191.07ZM11.3406 188.714L10.6674 187.975L10.5682 188.065L10.4964 188.178L11.3406 188.714ZM13.3851 186.853L13.123 185.888L12.8902 185.951L12.7119 186.114L13.3851 186.853ZM16.1317 186.107L16.3938 187.072L16.7442 186.977L16.9519 186.679L16.1317 186.107ZM17.9406 183.513L17.8097 182.522L17.3726 182.579L17.1204 182.941L17.9406 183.513ZM20.7929 183.137L20.8479 182.138L20.7546 182.133L20.662 182.145L20.7929 183.137ZM23.6463 183.294L23.5913 184.292L23.7726 184.302L23.9459 184.248L23.6463 183.294ZM26.273 182.469L26.5725 183.423L26.7419 183.37L26.8827 183.262L26.273 182.469ZM29.0574 180.327L29.7635 179.619L29.1426 179L28.4476 179.535L29.0574 180.327ZM31.6998 182.962L30.9937 183.67L31.5463 184.221L32.215 183.819L31.6998 182.962ZM34.9208 181.026L35.5495 180.248L35.0053 179.808L34.4056 180.169L34.9208 181.026ZM37.3618 182.999L36.7331 183.777L36.8511 183.872L36.9921 183.929L37.3618 182.999ZM39.9938 184.047L40.6383 183.282L40.5142 183.177L40.3635 183.117L39.9938 184.047ZM42.1835 185.892L41.5391 186.657L41.7512 186.835L42.025 186.879L42.1835 185.892ZM45.2883 186.391L46.2349 186.068L46.041 185.499L45.4468 185.403L45.2883 186.391ZM46.3487 189.505L45.402 189.827L45.4577 189.991L45.565 190.126L46.3487 189.505ZM48.048 191.649L48.863 191.07L48.8479 191.048L48.8317 191.028L48.048 191.649ZM49.6171 193.856L48.8021 194.435L48.9318 194.618L49.127 194.728L49.6171 193.856ZM52.3903 195.415L53.3771 195.253L53.2994 194.779L52.8803 194.543L52.3903 195.415ZM52.8649 198.312L51.8781 198.474L51.9405 198.855L52.2429 199.095L52.8649 198.312ZM55.5157 200.418L56.4012 200.883L56.7856 200.15L56.1377 199.635L55.5157 200.418ZM53.7682 203.75L52.8826 203.285L52.5944 203.835L52.9588 204.337L53.7682 203.75ZM55.6298 206.315L56.6152 206.485L56.6869 206.069L56.4391 205.728L55.6298 206.315ZM55.2657 208.426L54.2802 208.256L54.0784 209.426H55.2657V208.426ZM55.4724 208.426L54.4833 208.279L54.4686 208.378L55.4578 208.525L56.4469 208.672L56.4616 208.573L55.4724 208.426ZM55.4578 208.525L54.5383 208.132L53.4126 210.765L54.3321 211.158L55.2516 211.551L56.3773 208.918L55.4578 208.525ZM54.3321 211.158L53.3743 211.445L54.2683 214.426L55.2261 214.139L56.184 213.852L55.29 210.871L54.3321 211.158ZM55.2261 214.139L54.4155 213.554L52.6495 215.999L53.4602 216.584L54.2709 217.17L56.0368 214.725L55.2261 214.139ZM53.4602 216.584L52.5875 216.096L51.2351 218.513L52.1078 219.001L52.9804 219.489L54.3329 217.073L53.4602 216.584ZM52.1078 219.001L51.1086 218.96L50.9826 222.031L51.9818 222.072L52.9809 222.113L53.1069 219.042L52.1078 219.001ZM51.9818 222.072L51.0217 221.792L50.1721 224.706L51.1322 224.986L52.0922 225.266L52.9418 222.351L51.9818 222.072ZM51.1322 224.986L50.832 224.032L47.5761 225.057L47.8763 226.011L48.1765 226.964L51.4323 225.94L51.1322 224.986ZM47.8763 226.011L46.9157 225.733L46.014 228.85L46.9747 229.128L47.9353 229.406L48.8369 226.288L47.8763 226.011ZM46.9747 229.128L46.8756 228.133L43.5221 228.466L43.6212 229.461L43.7202 230.457L47.0737 230.123L46.9747 229.128ZM43.6212 229.461L43.1162 228.598L40.7669 229.973L41.2718 230.836L41.7768 231.699L44.1261 230.325L43.6212 229.461ZM41.2718 230.836L40.3748 230.394L38.8115 233.568L39.7085 234.009L40.6056 234.451L42.1689 231.278L41.2718 230.836ZM39.7085 234.009L39.3309 233.084L36.6057 234.195L36.9833 235.121L37.361 236.047L40.0862 234.935L39.7085 234.009ZM36.9833 235.121L37.1436 234.134L34.0364 233.629L33.8761 234.616L33.7159 235.604L36.8231 236.108L36.9833 235.121ZM33.8761 234.616L33.6576 233.641L30.8976 234.259L31.1161 235.235L31.3347 236.211L34.0947 235.592L33.8761 234.616ZM31.1161 235.235L31.2252 234.241L28.3972 233.93L28.2881 234.924L28.179 235.918L31.007 236.229L31.1161 235.235ZM28.2881 234.924L28.6486 233.992L25.9638 232.954L25.6033 233.887L25.2428 234.819L27.9276 235.857L28.2881 234.924ZM25.6033 233.887L25.065 233.044L21.8612 235.091L22.3995 235.933L22.9379 236.776L26.1417 234.729L25.6033 233.887ZM22.3995 235.933L22.7978 235.016L20.0741 233.834L19.6759 234.751L19.2776 235.668L22.0013 236.851L22.3995 235.933ZM19.6759 234.751L19.8299 233.763L16.8396 233.297L16.6856 234.285L16.5315 235.273L19.5219 235.739L19.6759 234.751ZM16.6856 234.285L17.3549 233.542L15.0934 231.505L14.4241 232.248L13.7548 232.991L16.0163 235.028L16.6856 234.285ZM14.4241 232.248L14.9085 231.373L12.3461 229.954L11.8617 230.829L11.3773 231.704L13.9397 233.122L14.4241 232.248ZM11.8617 230.829L12.3922 229.981L9.86765 228.401L9.33715 229.249L8.80664 230.096L11.3312 231.676L11.8617 230.829ZM9.33715 229.249L10.2921 228.952L9.32643 225.845L8.3715 226.142L7.41657 226.439L8.38222 229.546L9.33715 229.249ZM8.3715 226.142L9.31728 225.817L8.36442 223.043L7.41864 223.368L6.47286 223.693L7.42572 226.467L8.3715 226.142ZM7.41864 223.368L7.78501 222.437L4.53431 221.157L4.16794 222.088L3.80157 223.018L7.05227 224.298L7.41864 223.368ZM4.16794 222.088L5.1506 221.902L4.59432 218.954L3.61166 219.139L2.629 219.325L3.18528 222.273L4.16794 222.088ZM3.61166 219.139L4.6087 219.216L4.844 216.167L3.84696 216.09L2.84993 216.013L2.61462 219.063L3.61166 219.139ZM3.84696 216.09L4.7415 215.643L3.48729 213.133L2.59275 213.58L1.69822 214.027L2.95243 216.537L3.84696 216.09ZM2.59275 213.58L3.59198 213.619L3.70194 210.829L2.70271 210.789L1.70349 210.75L1.59353 213.541L2.59275 213.58ZM2.70271 210.789L3.70269 210.783L3.68661 208.061L2.68663 208.067L1.68664 208.073L1.70273 210.795L2.70271 210.789ZM2.68663 208.067L3.56238 207.585L1.9537 204.666L1.07795 205.149L0.202194 205.632L1.81087 208.55L2.68663 208.067ZM1.07795 205.149L2.03636 205.434L2.86486 202.652L1.90645 202.367L0.948045 202.081L0.11954 204.864L1.07795 205.149ZM1.90645 202.367L2.6784 203.003L4.62088 200.644L3.84893 200.008L3.07698 199.372L1.13451 201.731L1.90645 202.367ZM3.84893 200.008L4.7989 200.32L5.65773 197.708L4.70776 197.396L3.7578 197.084L2.89897 199.696L3.84893 200.008ZM4.70776 197.396L5.54451 197.944L7.05137 195.641L6.21462 195.093L5.37787 194.546L3.87101 196.848L4.70776 197.396ZM6.21462 195.093L7.1819 195.347L7.92889 192.499L6.96162 192.246L5.99434 191.992L5.24734 194.84L6.21462 195.093ZM6.96162 192.246L7.33917 193.172L10.2227 191.996L9.8452 191.07L9.46765 190.144L6.58407 191.32L6.96162 192.246ZM9.8452 191.07L10.6894 191.606L12.1848 189.25L11.3406 188.714L10.4964 188.178L9.00096 190.534L9.8452 191.07ZM11.3406 188.714L12.0138 189.454L14.0583 187.592L13.3851 186.853L12.7119 186.114L10.6674 187.975L11.3406 188.714ZM13.3851 186.853L13.6472 187.818L16.3938 187.072L16.1317 186.107L15.8695 185.142L13.123 185.888L13.3851 186.853ZM16.1317 186.107L16.9519 186.679L18.7608 184.085L17.9406 183.513L17.1204 182.941L15.3114 185.535L16.1317 186.107ZM17.9406 183.513L18.0715 184.504L20.9238 184.128L20.7929 183.137L20.662 182.145L17.8097 182.522L17.9406 183.513ZM20.7929 183.137L20.7379 184.135L23.5913 184.292L23.6463 183.294L23.7014 182.295L20.8479 182.138L20.7929 183.137ZM23.6463 183.294L23.9459 184.248L26.5725 183.423L26.273 182.469L25.9734 181.515L23.3468 182.34L23.6463 183.294ZM26.273 182.469L26.8827 183.262L29.6671 181.12L29.0574 180.327L28.4476 179.535L25.6632 181.677L26.273 182.469ZM29.0574 180.327L28.3513 181.035L30.9937 183.67L31.6998 182.962L32.4059 182.254L29.7635 179.619L29.0574 180.327ZM31.6998 182.962L32.215 183.819L35.436 181.883L34.9208 181.026L34.4056 180.169L31.1846 182.105L31.6998 182.962ZM34.9208 181.026L34.2921 181.804L36.7331 183.777L37.3618 182.999L37.9904 182.222L35.5495 180.248L34.9208 181.026ZM37.3618 182.999L36.9921 183.929L39.6242 184.976L39.9938 184.047L40.3635 183.117L37.7314 182.07L37.3618 182.999ZM39.9938 184.047L39.3494 184.811L41.5391 186.657L42.1835 185.892L42.828 185.127L40.6383 183.282L39.9938 184.047ZM42.1835 185.892L42.025 186.879L45.1297 187.378L45.2883 186.391L45.4468 185.403L42.3421 184.905L42.1835 185.892ZM45.2883 186.391L44.3416 186.713L45.402 189.827L46.3487 189.505L47.2953 189.183L46.2349 186.068L45.2883 186.391ZM46.3487 189.505L45.565 190.126L47.2643 192.27L48.048 191.649L48.8317 191.028L47.1323 188.884L46.3487 189.505ZM48.048 191.649L47.233 192.229L48.8021 194.435L49.6171 193.856L50.4321 193.276L48.863 191.07L48.048 191.649ZM49.6171 193.856L49.127 194.728L51.9002 196.287L52.3903 195.415L52.8803 194.543L50.1071 192.984L49.6171 193.856ZM52.3903 195.415L51.4034 195.577L51.8781 198.474L52.8649 198.312L53.8518 198.151L53.3771 195.253L52.3903 195.415ZM52.8649 198.312L52.2429 199.095L54.8937 201.201L55.5157 200.418L56.1377 199.635L53.487 197.529L52.8649 198.312ZM55.5157 200.418L54.6301 199.954L52.8826 203.285L53.7682 203.75L54.6538 204.214L56.4012 200.883L55.5157 200.418ZM53.7682 203.75L52.9588 204.337L54.8204 206.902L55.6298 206.315L56.4391 205.728L54.5776 203.162L53.7682 203.75ZM55.6298 206.315L54.6443 206.145L54.2802 208.256L55.2657 208.426L56.2511 208.596L56.6152 206.485L55.6298 206.315ZM55.2657 208.426V209.426H55.4724V208.426V207.426H55.2657V208.426Z" fill="#73F8BE"/>
<path d="M493.668 435.068C484.799 444.281 473.88 446.69 460.319 442.398C459.439 442.12 458.881 441.25 459.021 440.339C462.163 420.019 487.269 410.947 487.253 410.896C487.237 410.843 486.561 410.591 486.14 410.653C474.843 412.291 461.248 418.178 453.391 429.817C452.345 431.367 449.858 431.041 449.676 429.18C448.761 419.876 452.24 412.224 460.312 405.503C466.15 400.866 473.068 399.338 479.759 397.861C485.399 396.616 491.436 394.055 495.154 391.393C496.414 390.491 498.358 390.911 498.718 392.418C500.879 401.477 503.629 423.03 493.668 435.068Z" fill="#73F8BE"/>
</svg>
