<svg width="1186" height="491" viewBox="0 0 1186 491" fill="none" xmlns="http://www.w3.org/2000/svg">
<circle cx="207.608" cy="207.265" r="205" fill="#FFF77C"/>
<path d="M412.608 207.265V206.265H411.627L411.608 207.246L412.608 207.265ZM412.606 207.365L413.544 207.713L413.603 207.554L413.606 207.384L412.606 207.365ZM411.59 210.104L410.653 209.756L410.51 210.14L410.679 210.514L411.59 210.104ZM412.882 212.969L413.804 213.355L413.972 212.954L413.794 212.558L412.882 212.969ZM411.713 215.763L410.791 215.377L410.75 215.475L410.73 215.579L411.713 215.763ZM411.187 218.564L410.204 218.379L410.152 218.657L410.253 218.921L411.187 218.564ZM412.302 221.48L413.276 221.255L413.261 221.188L413.236 221.123L412.302 221.48ZM412.971 224.387L413.752 225.012L414.054 224.634L413.946 224.163L412.971 224.387ZM410.849 227.044L410.068 226.42L409.694 226.887L409.929 227.437L410.849 227.044ZM412.128 230.032L412.898 230.671L413.287 230.2L413.047 229.639L412.128 230.032ZM409.965 232.642L409.195 232.004L409.026 232.208L408.98 232.47L409.965 232.642ZM409.482 235.425L408.496 235.254L408.436 235.599L408.605 235.906L409.482 235.425ZM411.185 238.532L412.177 238.663L412.22 238.338L412.062 238.051L411.185 238.532ZM410.81 241.369L411.639 241.928L411.77 241.733L411.801 241.5L410.81 241.369ZM409.066 243.957L408.237 243.398L408.101 243.6L408.073 243.841L409.066 243.957ZM408.739 246.778L409.677 247.124L409.719 247.012L409.732 246.894L408.739 246.778ZM407.747 249.469L408.618 249.961L408.658 249.891L408.686 249.815L407.747 249.469ZM406.287 252.05L405.417 251.558L405.142 252.043L405.411 252.532L406.287 252.05ZM408.125 255.39L409.051 255.767L409.231 255.325L409.001 254.907L408.125 255.39ZM407.04 258.055L406.114 257.678L406.045 257.846L406.04 258.027L407.04 258.055ZM406.959 260.989L407.822 261.494L407.951 261.273L407.959 261.016L406.959 260.989ZM405.465 263.54L404.602 263.034L404.518 263.178L404.485 263.34L405.465 263.54ZM404.895 266.341L403.915 266.141L403.911 266.161L403.907 266.181L404.895 266.341ZM404.434 269.182L405.136 269.894L405.368 269.664L405.421 269.342L404.434 269.182ZM402.145 271.442L401.442 270.73L401.395 270.777L401.354 270.83L402.145 271.442ZM400.313 273.811L399.522 273.199L399.208 273.605L399.354 274.096L400.313 273.811ZM401.313 277.17L402.12 277.76L402.413 277.359L402.271 276.884L401.313 277.17ZM399.565 279.561L400.268 280.272L400.325 280.216L400.372 280.151L399.565 279.561ZM397.352 281.746L396.649 281.034L396.422 281.259L396.367 281.574L397.352 281.746ZM396.857 284.592L397.697 285.134L397.807 284.963L397.842 284.763L396.857 284.592ZM395.301 287.004L394.461 286.462L394.425 286.518L394.397 286.578L395.301 287.004ZM394.096 289.563L393.191 289.137L393.064 289.408L393.106 289.705L394.096 289.563ZM394.572 292.888L395.42 293.417L395.613 293.107L395.562 292.746L394.572 292.888ZM393.056 295.318L393.709 296.075L393.824 295.976L393.904 295.847L393.056 295.318ZM390.716 297.335L390.063 296.578L389.887 296.73L389.795 296.944L390.716 297.335ZM389.606 299.944L390.449 300.482L390.494 300.412L390.527 300.336L389.606 299.944ZM388.081 302.337L387.238 301.799L387.127 301.973L387.094 302.176L388.081 302.337ZM387.6 305.291L388.156 306.122L388.518 305.88L388.588 305.451L387.6 305.291ZM384.954 307.06L384.398 306.229L384.1 306.429L383.997 306.772L384.954 307.06ZM384.119 309.836L385.015 310.281L385.052 310.205L385.077 310.124L384.119 309.836ZM382.858 312.375L383.531 313.115L383.67 312.988L383.753 312.82L382.858 312.375ZM380.682 314.357L380.008 313.618L379.709 313.891L379.684 314.294L380.682 314.357ZM380.478 317.575L381.182 318.285L381.452 318.018L381.476 317.638L380.478 317.575ZM378.415 319.617L379.055 320.386L379.088 320.358L379.119 320.327L378.415 319.617ZM376.15 321.5L375.51 320.731L375.34 320.872L375.245 321.073L376.15 321.5ZM374.926 324.088L374.022 323.661L373.924 323.868L373.926 324.097L374.926 324.088ZM374.958 327.595L375.186 328.569L375.966 328.387L375.958 327.586L374.958 327.595ZM371.314 328.446L371.087 327.473L370.255 327.667L370.317 328.519L371.314 328.446ZM371.588 332.205L372.075 333.078L372.631 332.768L372.585 332.132L371.588 332.205ZM368.884 333.714L368.397 332.841L368.22 332.94L368.095 333.099L368.884 333.714ZM367.139 335.954L367.769 336.731L367.858 336.658L367.928 336.568L367.139 335.954ZM364.89 337.776L364.261 336.999L364.007 337.205L363.923 337.521L364.89 337.776ZM364.087 340.815L364.402 341.764L364.916 341.593L365.054 341.07L364.087 340.815ZM360.953 341.855L360.638 340.906L360.429 340.976L360.268 341.127L360.953 341.855ZM358.889 343.799L358.203 343.071L358.19 343.084L358.177 343.097L358.889 343.799ZM356.905 345.81L356.193 345.108L356.005 345.299L355.938 345.558L356.905 345.81ZM356.09 348.933L356.586 349.801L356.951 349.592L357.057 349.186L356.09 348.933ZM353.525 350.399L353.028 349.531L352.645 349.751L352.548 350.182L353.525 350.399ZM352.794 353.684L352.85 354.682L353.605 354.639L353.77 353.901L352.794 353.684ZM349.031 353.898L348.975 352.9L348.295 352.939L348.082 353.585L349.031 353.898ZM348.026 356.951L348.583 357.781L348.868 357.59L348.975 357.264L348.026 356.951ZM345.639 358.554L346.117 359.433L346.158 359.41L346.196 359.384L345.639 358.554ZM343.081 359.946L342.603 359.068L342.255 359.257L342.131 359.633L343.081 359.946ZM342.049 363.078L342.839 363.691L342.945 363.555L342.999 363.391L342.049 363.078ZM340.259 365.38L340.6 366.321L340.872 366.222L341.049 365.994L340.259 365.38ZM337.41 366.412L337.07 365.472L336.993 365.499L336.922 365.539L337.41 366.412ZM334.895 367.818L334.407 366.945L334.169 367.078L334.031 367.314L334.895 367.818ZM333.35 370.463L333.888 371.306L334.092 371.176L334.214 370.967L333.35 370.463ZM330.936 372.002L330.398 371.159L330.337 371.198L330.282 371.246L330.936 372.002ZM328.773 373.873L328.875 374.867L329.188 374.835L329.427 374.629L328.773 373.873ZM325.513 374.206L325.412 373.211L324.781 373.276L324.57 373.874L325.513 374.206ZM324.349 377.513L324.911 378.34L325.183 378.155L325.292 377.845L324.349 377.513ZM321.983 379.12L322.495 379.979L322.52 379.964L322.545 379.947L321.983 379.12ZM319.525 380.582L319.487 381.581L319.782 381.593L320.036 381.442L319.525 380.582ZM316.069 380.452L316.106 379.452L315.571 379.432L315.258 379.866L316.069 380.452ZM314.269 382.943L314.605 383.885L314.897 383.781L315.079 383.529L314.269 382.943ZM311.54 383.916L311.204 382.974L311.004 383.046L310.85 383.192L311.54 383.916ZM309.424 385.934L309.99 386.759L310.056 386.713L310.114 386.658L309.424 385.934ZM307.063 387.555L306.959 388.55L307.326 388.588L307.629 388.38L307.063 387.555ZM303.637 387.196L303.741 386.201L303.147 386.139L302.81 386.632L303.637 387.196ZM301.829 389.847L302.548 390.542L302.608 390.481L302.656 390.41L301.829 389.847ZM299.731 392.016L300.204 392.897L300.341 392.823L300.45 392.711L299.731 392.016ZM297.207 393.372L296.926 394.332L297.319 394.447L297.68 394.253L297.207 393.372ZM293.558 392.304L293.839 391.344L293.495 391.244L293.166 391.384L293.558 392.304ZM290.959 393.413L290.567 392.493L290.236 392.634L290.071 392.953L290.959 393.413ZM289.28 396.656L289.321 397.655L289.901 397.632L290.168 397.116L289.28 396.656ZM286.238 396.779L286.088 397.768L286.183 397.782L286.278 397.778L286.238 396.779ZM282.985 396.287L283.134 395.298L282.686 395.23L282.339 395.522L282.985 396.287ZM280.703 398.212L280.058 397.448L280.04 397.464L280.022 397.48L280.703 398.212ZM278.452 400.309L278.663 401.287L278.932 401.229L279.133 401.041L278.452 400.309ZM275.651 400.915L275.678 401.914L275.771 401.912L275.862 401.892L275.651 400.915ZM272.68 400.996L272.653 399.996L272.195 400.009L271.906 400.364L272.68 400.996ZM270.544 403.615L270.165 404.54L270.85 404.822L271.319 404.247L270.544 403.615ZM267.13 402.215L267.51 401.29L266.797 400.997L266.332 401.613L267.13 402.215ZM265.01 405.026L265.029 406.025L265.515 406.016L265.808 405.628L265.01 405.026ZM262.067 405.082L262.048 404.082L261.814 404.087L261.606 404.195L262.067 405.082ZM259.475 406.43L259.65 407.415L259.801 407.388L259.937 407.317L259.475 406.43ZM256.667 406.928L256.624 407.927L256.734 407.931L256.842 407.912L256.667 406.928ZM253.718 406.801L253.761 405.802L253.634 405.797L253.51 405.823L253.718 406.801ZM250.941 407.392L250.843 408.387L250.997 408.403L251.149 408.37L250.941 407.392ZM247.986 407.101L248.084 406.105L247.786 406.076L247.521 406.215L247.986 407.101ZM245.376 408.472L245.793 409.381L245.817 409.37L245.841 409.358L245.376 408.472ZM242.709 409.695L243.027 410.643L243.078 410.626L243.126 410.604L242.709 409.695ZM239.967 410.615L240.112 411.604L240.201 411.591L240.285 411.563L239.967 410.615ZM237.148 411.028L236.951 412.009L237.121 412.043L237.293 412.018L237.148 411.028ZM234.2 410.435L234.397 409.455L234.011 409.377L233.676 409.583L234.2 410.435ZM231.53 412.076L231.414 413.069L231.758 413.109L232.053 412.928L231.53 412.076ZM228.615 411.735L228.731 410.741L228.697 410.737L228.663 410.736L228.615 411.735ZM225.754 411.597L225.803 410.598L225.729 410.594L225.656 410.601L225.754 411.597ZM222.928 411.877L222.829 410.882L222.765 410.888L222.702 410.903L222.928 411.877ZM220.114 412.529L219.889 411.555L219.854 411.563L219.821 411.573L220.114 412.529ZM217.299 413.394L216.889 414.306L217.233 414.461L217.593 414.35L217.299 413.394ZM214.405 412.094L214.815 411.182L214.505 411.043L214.175 411.121L214.405 412.094ZM211.579 412.764L211.401 413.748L211.606 413.785L211.809 413.737L211.579 412.764ZM208.72 412.247L208.386 413.189L208.462 413.216L208.542 413.231L208.72 412.247ZM205.874 411.238L206.209 410.295L205.85 410.168L205.498 410.311L205.874 411.238ZM203.016 412.401L202.483 413.247L202.917 413.52L203.392 413.327L203.016 412.401ZM200.236 410.654L200.768 409.807L200.496 409.636L200.175 409.655L200.236 410.654ZM197.414 410.824L197.372 411.823L197.423 411.825L197.475 411.822L197.414 410.824ZM194.584 410.704L194.627 409.705L194.519 409.7L194.412 409.719L194.584 410.704ZM191.71 411.206L191.302 412.119L191.581 412.243L191.882 412.191L191.71 411.206ZM188.979 409.988L189.386 409.075L189.029 408.915L188.659 409.04L188.979 409.988ZM186.046 410.979L185.726 410.031L185.685 410.045L185.646 410.062L186.046 410.979ZM183.024 412.295L182.261 412.942L182.742 413.509L183.423 413.212L183.024 412.295ZM180.528 409.355L181.29 408.708L180.968 408.329L180.472 408.357L180.528 409.355ZM177.655 409.516L177.6 408.517L177.446 408.526L177.302 408.58L177.655 409.516ZM174.6 410.671L173.827 411.305L174.282 411.86L174.953 411.606L174.6 410.671ZM172.208 407.757L172.981 407.123L172.463 406.492L171.741 406.873L172.208 407.757ZM169.02 409.439L168.809 410.417L169.165 410.493L169.487 410.324L169.02 409.439ZM166.241 408.84L165.653 409.649L165.824 409.773L166.03 409.817L166.241 408.84ZM163.717 407.008L164.304 406.199L164.012 405.987L163.652 406.01L163.717 407.008ZM160.761 407.2L160.509 408.168L160.665 408.208L160.826 408.198L160.761 407.2ZM158.012 406.484L157.484 407.333L157.613 407.414L157.76 407.452L158.012 406.484ZM155.487 404.913L156.015 404.064L155.738 403.892L155.413 403.916L155.487 404.913ZM152.482 405.135L152.528 406.134L152.542 406.134L152.556 406.132L152.482 405.135ZM149.478 405.272L148.87 406.066L149.159 406.288L149.523 406.271L149.478 405.272ZM147.062 403.423L146.359 404.134L146.404 404.179L146.454 404.217L147.062 403.423ZM144.796 401.181L145.499 400.47L145.274 400.248L144.962 400.195L144.796 401.181ZM141.974 400.706L142.14 399.72L141.878 399.676L141.629 399.767L141.974 400.706ZM138.525 401.972L138.003 402.825L138.416 403.077L138.87 402.911L138.525 401.972ZM136.039 400.452L136.561 399.599L136.474 399.546L136.379 399.511L136.039 400.452ZM133.351 399.481L133.691 398.54L133.639 398.522L133.585 398.509L133.351 399.481ZM130.546 398.806L130.013 399.652L130.152 399.74L130.312 399.779L130.546 398.806ZM128.096 397.263L127.218 397.743L127.343 397.971L127.563 398.11L128.096 397.263ZM126.363 394.093L127.24 393.613L126.84 392.881L126.048 393.144L126.363 394.093ZM122.717 395.303L121.78 395.652L122.117 396.556L123.032 396.252L122.717 395.303ZM121.321 391.554L122.258 391.205L122.08 390.725L121.586 390.589L121.321 391.554ZM118.559 390.794L118.824 389.83L118.59 389.766L118.353 389.815L118.559 390.794ZM115.018 391.537L114.128 391.991L114.475 392.673L115.224 392.516L115.018 391.537ZM113.425 388.414L114.315 387.959L114.077 387.492L113.557 387.423L113.425 388.414ZM110.43 388.015L110.148 388.974L110.222 388.996L110.298 389.006L110.43 388.015ZM107.633 387.192L107.228 388.107L107.288 388.133L107.351 388.152L107.633 387.192ZM105.01 386.032L104.053 386.322L104.186 386.761L104.606 386.946L105.01 386.032ZM103.888 382.332L104.844 382.042L104.593 381.214L103.739 381.343L103.888 382.332ZM100.248 382.88L99.402 383.414L99.7507 383.966L100.396 383.869L100.248 382.88ZM98.5608 380.209L99.4064 379.675L99.2733 379.464L99.0568 379.341L98.5608 380.209ZM96.0975 378.802L96.5935 377.933L96.4167 377.832L96.2145 377.809L96.0975 378.802ZM92.9359 378.429L92.3342 379.228L92.5503 379.391L92.8189 379.422L92.9359 378.429ZM90.6536 376.71L90.0315 377.493L90.0416 377.501L90.052 377.509L90.6536 376.71ZM88.4171 374.933L89.0392 374.15L88.9459 374.076L88.8379 374.026L88.4171 374.933ZM85.7809 373.71L84.8012 373.911L84.9025 374.405L85.36 374.617L85.7809 373.71ZM85.0165 369.98L85.9961 369.779L85.9165 369.391L85.5924 369.163L85.0165 369.98ZM82.706 368.352L81.9886 369.049L82.0537 369.116L82.1301 369.17L82.706 368.352ZM80.7229 366.31L81.4403 365.614L81.0902 365.253L80.5921 365.319L80.7229 366.31ZM76.6324 366.85L75.6345 366.915L75.7036 367.981L76.7632 367.842L76.6324 366.85ZM76.3656 362.734L77.3635 362.669L77.3119 361.873L76.5238 361.747L76.3656 362.734ZM73.0874 362.209L72.3826 362.918L72.6111 363.145L72.9292 363.196L73.0874 362.209ZM71.0683 360.202L70.1613 360.624L70.2366 360.786L70.3635 360.912L71.0683 360.202ZM69.7732 357.414L70.6802 356.993L70.4227 356.438L69.8118 356.415L69.7732 357.414ZM66.0259 357.269L65.3111 357.968L65.5895 358.253L65.9873 358.268L66.0259 357.269ZM64.0269 355.226L63.0436 355.408L63.0991 355.707L63.3121 355.925L64.0269 355.226ZM63.3949 351.815L64.3782 351.633L64.2817 351.113L63.7973 350.9L63.3949 351.815ZM60.6021 350.588L59.8546 351.252L59.9997 351.415L60.1996 351.503L60.6021 350.588ZM58.7117 348.46L57.8692 348.999L57.9117 349.066L57.9642 349.125L58.7117 348.46ZM57.1558 346.028L57.9982 345.489L57.8899 345.319L57.7245 345.205L57.1558 346.028ZM54.7578 344.37L53.8921 344.87L54.0045 345.065L54.1891 345.192L54.7578 344.37ZM53.3069 341.861L54.1725 341.36L54.0185 341.094L53.7413 340.96L53.3069 341.861ZM50.5117 340.513L49.6179 340.961L49.7706 341.265L50.0772 341.413L50.5117 340.513ZM49.1981 337.895L50.0918 337.447L50.0459 337.355L49.9824 337.275L49.1981 337.895ZM47.4341 335.665L48.2184 335.045L48.161 334.972L48.0912 334.911L47.4341 335.665ZM45.2509 333.762L44.2509 333.754L44.2475 334.213L44.5937 334.515L45.2509 333.762ZM45.2774 330.162L46.2773 330.17L46.2829 329.416L45.5605 329.203L45.2774 330.162ZM41.8827 329.16L40.9686 329.565L41.1561 329.988L41.5995 330.119L41.8827 329.16ZM40.7031 326.501L41.6172 326.095L41.5588 325.963L41.4655 325.854L40.7031 326.501ZM38.8556 324.324L37.8908 324.587L37.9492 324.801L38.0932 324.971L38.8556 324.324ZM38.0653 321.423L39.0301 321.16L39.0262 321.146L39.0218 321.131L38.0653 321.423ZM37.2057 318.604L38.1623 318.312L38.0629 317.986L37.7852 317.789L37.2057 318.604ZM34.7245 316.84L34.0082 317.537L34.0713 317.602L34.145 317.655L34.7245 316.84ZM32.6961 314.757L31.6964 314.733L31.686 315.153L31.9798 315.455L32.6961 314.757ZM32.779 311.396L33.7787 311.421L33.7882 311.033L33.5338 310.74L32.779 311.396ZM30.8967 309.23L30.0973 309.831L30.1186 309.859L30.1419 309.886L30.8967 309.23ZM29.1828 306.95L28.2344 307.267L28.2859 307.421L28.3835 307.551L29.1828 306.95ZM28.2709 304.222L29.2193 303.905L29.1927 303.825L29.1532 303.751L28.2709 304.222ZM26.9431 301.733L27.8254 301.262L27.7916 301.199L27.7491 301.141L26.9431 301.733ZM25.2491 299.426L24.3316 299.824L24.3764 299.927L24.443 300.018L25.2491 299.426ZM24.1214 296.824L25.0389 296.427L24.9886 296.311L24.9109 296.211L24.1214 296.824ZM22.3434 294.537L21.4077 294.89L21.4611 295.032L21.5539 295.151L22.3434 294.537ZM21.3412 291.879L22.2769 291.526L22.2011 291.326L22.0497 291.174L21.3412 291.879ZM19.1955 289.725L18.2037 289.853L18.2471 290.19L18.4869 290.43L19.1955 289.725ZM18.817 286.789L19.8088 286.661L19.7927 286.536L19.7461 286.419L18.817 286.789ZM17.7693 284.157L16.7695 284.176L16.773 284.358L16.8402 284.526L17.7693 284.157ZM17.7101 281.136L18.7099 281.117L18.7058 280.909L18.6199 280.721L17.7101 281.136ZM16.5347 278.559L15.575 278.84L15.5952 278.909L15.6249 278.974L16.5347 278.559ZM15.7399 275.845L16.6997 275.564L16.5773 275.146L16.1881 274.951L15.7399 275.845ZM12.2067 274.073L11.2356 274.312L11.3459 274.76L11.7585 274.967L12.2067 274.073ZM11.5208 271.287L10.5396 271.48L10.5441 271.503L10.5498 271.526L11.5208 271.287ZM10.9648 268.462L9.9689 268.552L9.97359 268.604L9.98364 268.655L10.9648 268.462ZM10.703 265.571L11.6989 265.481L11.6933 265.419L11.6799 265.357L10.703 265.571ZM10.0938 262.789L9.09605 262.857L9.10105 262.931L9.11692 263.003L10.0938 262.789ZM9.89825 259.897L10.896 259.83L10.8689 259.429L10.5717 259.158L9.89825 259.897ZM7.38325 257.606L6.41215 257.367L6.27023 257.945L6.70976 258.345L7.38325 257.606ZM8.14865 254.492L9.11975 254.731L9.22839 254.289L8.96639 253.916L8.14865 254.492ZM6.37716 251.975L5.38124 251.885L5.34814 252.251L5.55942 252.551L6.37716 251.975ZM6.64679 248.997L7.64272 249.087L7.67338 248.749L7.49127 248.462L6.64679 248.997ZM5.01356 246.422L4.04912 246.686L4.08876 246.831L4.16908 246.958L5.01356 246.422ZM4.25565 243.656L3.27853 243.444L3.22627 243.684L3.29121 243.921L4.25565 243.656ZM4.91102 240.646L3.96231 240.33L3.94533 240.381L3.93391 240.433L4.91102 240.646ZM5.92127 237.614L6.86999 237.931L7.08036 237.299L6.57925 236.861L5.92127 237.614ZM3.10263 235.152L2.11718 234.982L2.02172 235.535L2.44466 235.905L3.10263 235.152ZM3.60987 232.211L2.70818 231.778L2.64806 231.904L2.62442 232.041L3.60987 232.211ZM5.06046 229.186L5.96215 229.618L6.21207 229.097L5.8852 228.62L5.06046 229.186ZM3.23511 226.524L2.26656 226.772L2.3105 226.943L2.41037 227.089L3.23511 226.524ZM2.51836 223.733L1.67981 223.188L1.44054 223.557L1.54981 223.982L2.51836 223.733ZM4.45799 220.748L5.29654 221.293L5.62429 220.788L5.33221 220.262L4.45799 220.748ZM2.92758 217.992L3.80182 217.507L3.79908 217.502L2.92758 217.992ZM1.36754 215.22L0.409315 214.934L0.287951 215.341L0.496045 215.71L1.36754 215.22ZM2.2263 212.343L3.18453 212.629L3.28553 212.291L3.15164 211.964L2.2263 212.343ZM1.0631 209.504L0.110192 209.201L6.91414e-06 209.547L0.137758 209.883L1.0631 209.504ZM1.97714 206.632L2.93005 206.935L2.98845 206.752L2.97452 206.56L1.97714 206.632ZM1.76957 203.769L2.76695 203.697L2.76563 203.679L2.76364 203.661L1.76957 203.769ZM1.45629 200.906L0.660504 200.3L0.418821 200.618L0.462219 201.014L1.45629 200.906ZM3.55678 198.145L4.35256 198.751L4.594 198.434L4.55092 198.037L3.55678 198.145ZM3.24677 195.293L2.25765 195.146L2.23872 195.273L2.25262 195.401L3.24677 195.293ZM3.66612 192.473L4.65525 192.62L4.68415 192.426L4.63736 192.235L3.66612 192.473ZM2.95445 189.571L1.97277 189.761L1.97741 189.785L1.98322 189.809L2.95445 189.571ZM2.39026 186.664L1.46299 186.29L1.3522 186.564L1.40859 186.855L2.39026 186.664ZM3.50281 183.909L4.43009 184.283L4.5389 184.013L4.48629 183.728L3.50281 183.909ZM2.96151 180.967L2.30744 180.211L1.87441 180.585L1.97802 181.148L2.96151 180.967ZM5.82735 178.489L6.48142 179.246L6.89356 178.889L6.81758 178.35L5.82735 178.489ZM5.41675 175.574L6.40698 175.435L6.39371 175.34L6.36292 175.25L5.41675 175.574ZM4.36976 172.514L3.67387 171.795L3.21822 172.237L3.42359 172.837L4.36976 172.514ZM6.88899 170.073L7.58487 170.791L8.09489 170.296L7.79632 169.652L6.88899 170.073ZM5.42075 166.904L4.49152 166.534L4.3326 166.934L4.51342 167.324L5.42075 166.904ZM6.49149 164.211L5.84311 163.45L5.65403 163.611L5.56226 163.842L6.49149 164.211ZM9.20236 161.902L9.85074 162.664L10.4282 162.172L10.1103 161.483L9.20236 161.902ZM7.69577 158.638L6.97523 157.945L6.50154 158.437L6.78782 159.057L7.69577 158.638ZM9.96016 156.285L10.6807 156.979L10.8758 156.776L10.9365 156.501L9.96016 156.285ZM10.5731 153.516L11.5495 153.732L11.5715 153.632L11.573 153.53L10.5731 153.516ZM10.6148 150.583L11.6147 150.597L11.6147 150.586L10.6148 150.583ZM10.6234 147.623L9.95366 146.881L9.62466 147.177L9.62337 147.62L10.6234 147.623ZM13.0752 145.412L13.7449 146.155L14.0919 145.842L14.0745 145.375L13.0752 145.412ZM12.9624 142.391L12.2004 141.743L11.9486 142.039L11.9631 142.428L12.9624 142.391ZM14.935 140.07L15.697 140.717L16.0172 140.341L15.9123 139.857L14.935 140.07ZM14.2266 136.809L13.6537 135.989L13.1081 136.371L13.2494 137.021L14.2266 136.809ZM17.0557 134.831L17.6287 135.65L18.2703 135.202L17.9889 134.471L17.0557 134.831ZM15.674 131.245L14.7699 130.817L14.587 131.205L14.7409 131.604L15.674 131.245ZM16.8961 128.658L15.9938 128.227L15.9919 128.231L16.8961 128.658ZM18.1285 126.079L17.2327 125.635L17.2294 125.641L17.2263 125.648L18.1285 126.079ZM19.3998 123.517L18.8135 122.707L18.6136 122.851L18.5039 123.072L19.3998 123.517ZM22.0498 121.599L22.6361 122.409L23.0454 122.113L23.0498 121.608L22.0498 121.599ZM22.0769 118.476L21.2094 117.979L21.0793 118.206L21.077 118.468L22.0769 118.476ZM23.4976 115.998L24.3652 116.496L24.3997 116.436L24.4255 116.371L23.4976 115.998ZM24.5639 113.345L23.9968 112.521L23.7484 112.692L23.636 112.972L24.5639 113.345ZM27.2074 111.525L27.7744 112.349L27.9744 112.211L28.089 111.997L27.2074 111.525ZM28.5418 109.031L29.4235 109.503L29.4335 109.485L29.4428 109.465L28.5418 109.031ZM29.7733 106.475L29.0218 105.815L28.9317 105.918L28.8724 106.041L29.7733 106.475ZM31.6753 104.308L32.4268 104.968L32.7258 104.628L32.6668 104.178L31.6753 104.308ZM31.2048 100.726L30.7135 99.8548L30.1254 100.187L30.2133 100.856L31.2048 100.726ZM34.038 99.1274L34.5293 99.9984L35.0436 99.7083L35.0379 99.1178L34.038 99.1274ZM34.0056 95.7367L33.7214 94.778L32.9984 94.9922L33.0056 95.7463L34.0056 95.7367ZM37.5779 94.6779L37.8621 95.6367L38.5986 95.4184L38.5775 94.6504L37.5779 94.6779ZM37.482 91.1911L36.8645 90.4045L36.4685 90.7153L36.4824 91.2186L37.482 91.1911ZM39.8261 89.3509L40.4436 90.1375L40.701 89.9355L40.7891 89.6204L39.8261 89.3509ZM40.6424 86.4341L39.7814 85.9254L39.7147 86.0383L39.6794 86.1646L40.6424 86.4341ZM42.1023 83.9628L41.2912 83.3778L41.2645 83.4148L41.2413 83.4541L42.1023 83.9628ZM43.776 81.642L43.4722 80.6893L43.1579 80.7895L42.965 81.0571L43.776 81.642ZM47.0632 80.5938L47.367 81.5466L47.7943 81.4103L47.9767 81.0006L47.0632 80.5938ZM48.2566 77.9137L49.1701 78.3205L49.1744 78.3108L49.1785 78.3011L48.2566 77.9137ZM49.409 75.1713L48.8794 74.3231L48.61 74.4912L48.487 74.7839L49.409 75.1713ZM51.9466 73.587L52.4762 74.4353L52.677 74.3099L52.8003 74.1077L51.9466 73.587ZM53.45 71.1222L53.16 70.1651L52.7949 70.2757L52.5962 70.6014L53.45 71.1222ZM56.6268 70.1596L56.9168 71.1167L57.4891 70.9433L57.6072 70.357L56.6268 70.1596ZM57.282 66.9047L56.4646 66.3286L56.3432 66.5008L56.3017 66.7074L57.282 66.9047ZM58.9424 64.5488L58.4214 63.6953L58.2445 63.8033L58.1251 63.9728L58.9424 64.5488ZM61.4534 63.0159L61.9745 63.8694L62.2017 63.7307L62.3299 63.4973L61.4534 63.0159ZM62.8827 60.4134L62.8432 59.4142L62.2783 59.4365L62.0062 59.932L62.8827 60.4134ZM66.6953 60.2626L66.7348 61.2618L67.3457 61.2376L67.6027 60.6829L66.6953 60.2626ZM67.9754 57.4987L67.1774 56.896L67.113 56.9814L67.068 57.0784L67.9754 57.4987ZM69.7156 55.1945L69.1267 54.3863L69.0069 54.4736L68.9176 54.5919L69.7156 55.1945ZM72.0238 53.5127L71.6365 52.5908L71.5291 52.6359L71.4349 52.7045L72.0238 53.5127ZM74.7747 52.3573L75.1619 53.2793L75.4503 53.1582L75.6182 52.8944L74.7747 52.3573ZM76.3683 49.854L76.1318 48.8823L75.7409 48.9775L75.5248 49.3169L76.3683 49.854ZM79.4213 49.1107L79.6579 50.0823L80.2418 49.9402L80.3903 49.3578L79.4213 49.1107ZM80.2987 45.67L79.9587 44.7296L79.4606 44.9097L79.3297 45.4229L80.2987 45.67ZM83.1108 44.6531L83.4508 45.5935L83.7824 45.4736L83.9654 45.1723L83.1108 44.6531ZM84.7002 42.0364L84.7372 41.0371L84.1504 41.0154L83.8456 41.5172L84.7002 42.0364ZM88.317 42.17L88.2801 43.1693L88.5848 43.1806L88.8439 43.02L88.317 42.17ZM90.7193 40.681L91.2461 41.531L91.2973 41.4992L91.3444 41.4615L90.7193 40.681ZM92.9272 38.9129L93.5523 39.6934L93.8097 39.4873L93.894 39.1685L92.9272 38.9129ZM93.8926 35.2618L93.5453 34.3241L93.0585 34.5043L92.9258 35.0062L93.8926 35.2618ZM96.6344 34.2466L96.9816 35.1843L97.2396 35.0888L97.4124 34.8748L96.6344 34.2466ZM98.5284 31.901L98.6765 30.912L98.1101 30.8271L97.7503 31.2727L98.5284 31.901ZM102.205 32.452L102.057 33.4409L102.748 33.5445L103.083 32.9311L102.205 32.452ZM103.785 29.5581L103.363 28.6518L103.065 28.7906L102.907 29.0789L103.785 29.5581ZM106.377 28.3496L106.259 27.3565L106.1 27.3754L105.955 27.4432L106.377 28.3496ZM109.429 27.9875L109.547 28.9805L110.078 28.9174L110.32 28.4405L109.429 27.9875ZM110.996 24.9039L111.25 23.9368L110.47 23.7317L110.104 24.4509L110.996 24.9039ZM114.708 25.8797L114.454 26.8468L114.835 26.947L115.182 26.7601L114.708 25.8797ZM117.196 24.5398L117.67 25.4202L117.97 25.2589L118.109 24.9482L117.196 24.5398ZM118.709 21.1568L118.344 20.2261L117.964 20.3754L117.797 20.7484L118.709 21.1568ZM121.37 20.1119L121.132 19.1405L121.067 19.1565L121.005 19.1811L121.37 20.1119ZM124.187 19.4226L124.425 20.3939L124.54 20.3657L124.646 20.3111L124.187 19.4226ZM126.726 18.1119L126.916 17.1301L126.576 17.0642L126.267 17.2233L126.726 18.1119ZM130.072 18.7593L129.882 19.7411L130.3 19.8218L130.647 19.5774L130.072 18.7593ZM132.446 17.0906L131.994 16.1987L131.93 16.2312L131.871 16.2725L132.446 17.0906ZM134.988 15.8018L134.715 14.8398L134.622 14.8662L134.535 14.9099L134.988 15.8018ZM137.726 15.0246L137.999 15.9866L138.082 15.963L138.16 15.9254L137.726 15.0246ZM140.291 13.7885L140.203 12.7924L140.021 12.8085L139.857 12.8877L140.291 13.7885ZM143.195 13.5319L143.109 12.5355L143.107 12.5358L143.195 13.5319ZM146.086 13.2835L146.172 14.2798L146.38 14.2619L146.563 14.1625L146.086 13.2835ZM148.615 11.9121L149.092 12.7911L149.316 12.6697L149.454 12.4561L148.615 11.9121ZM150.652 8.77073L151.154 7.90571L150.331 7.42829L149.813 8.22665L150.652 8.77073ZM154.171 10.8122L153.67 11.6772L154.133 11.946L154.614 11.709L154.171 10.8122ZM156.761 9.53526L157.203 10.4321L157.429 10.3206L157.575 10.115L156.761 9.53526ZM158.927 6.49027L159.471 5.65074L158.667 5.13084L158.112 5.91052L158.927 6.49027ZM162.365 8.71514L161.822 9.55467L162.507 9.9978L163.078 9.41614L162.365 8.71514ZM164.74 6.29908L164.524 5.32267L164.235 5.38668L164.027 5.59808L164.74 6.29908ZM167.52 5.68431L167.865 4.74583L167.59 4.64462L167.304 4.7079L167.52 5.68431ZM170.618 6.82428L170.273 7.76277L170.762 7.94269L171.189 7.64502L170.618 6.82428ZM173.181 5.04029L172.774 4.1269L172.687 4.16545L172.61 4.21955L173.181 5.04029ZM175.878 3.83828L175.504 2.91074L175.487 2.91752L175.471 2.92489L175.878 3.83828ZM178.597 2.74261L179.099 1.87768L178.676 1.6325L178.223 1.81508L178.597 2.74261ZM181.706 4.5468L181.204 5.41173L181.718 5.70989L182.226 5.40124L181.706 4.5468ZM184.376 2.92318L184.175 1.94361L184.005 1.97852L183.857 2.06874L184.376 2.92318ZM187.187 2.34617L187.586 1.429L187.296 1.30304L186.986 1.3666L187.187 2.34617ZM190.151 3.6336L189.752 4.55078L189.922 4.62458L190.107 4.63265L190.151 3.6336ZM192.997 3.75772L192.953 4.75677L193.128 4.76439L193.295 4.71235L192.997 3.75772ZM195.786 2.88775L196.083 3.84237L196.15 3.82154L196.214 3.79161L195.786 2.88775ZM198.566 1.57169L198.554 0.571761L198.336 0.574368L198.138 0.667825L198.566 1.57169ZM201.412 1.53773L201.646 0.565483L201.524 0.536315L201.4 0.537802L201.412 1.53773ZM204.276 2.22694L204.624 1.2895L204.568 1.26868L204.51 1.25469L204.276 2.22694ZM207.13 3.28676L206.782 4.2242L207.123 4.3511L207.467 4.22835L207.13 3.28676ZM209.981 2.26704L210.318 3.20862L210.337 3.20164L210.356 3.19385L209.981 2.26704ZM212.856 1.10219L213.325 0.219433L212.913 -5.24521e-05L212.48 0.175386L212.856 1.10219ZM215.653 2.59104L215.183 3.4738L215.431 3.60575L215.711 3.58932L215.653 2.59104ZM218.494 2.42453L218.868 1.497L218.66 1.41312L218.436 1.42625L218.494 2.42453ZM221.278 3.54611L220.904 4.47365L221.373 4.66265L221.804 4.39685L221.278 3.54611ZM224.265 1.70081L224.982 1.00423L224.423 0.427823L223.739 0.850065L224.265 1.70081ZM226.876 4.39046L226.159 5.08703L226.693 5.63704L227.362 5.26424L226.876 4.39046ZM229.895 2.71022L230.118 1.73539L229.744 1.64984L229.409 1.83644L229.895 2.71022ZM232.695 3.35061L233.198 2.48647L233.066 2.40976L232.918 2.37578L232.695 3.35061ZM235.356 4.90023L234.853 5.76437L235.244 5.9924L235.674 5.84837L235.356 4.90023ZM238.36 3.89295L238.411 2.89423L238.222 2.88466L238.042 2.94482L238.36 3.89295ZM241.229 4.03819L241.737 3.17696L241.525 3.05191L241.279 3.03947L241.229 4.03819ZM243.854 5.58734L243.346 6.44857L243.369 6.46236L243.393 6.47485L243.854 5.58734ZM246.479 6.95007L246.018 7.83758L246.376 8.02384L246.764 7.90848L246.479 6.95007ZM249.549 6.03563L250.198 5.27415L249.784 4.9223L249.264 5.07722L249.549 6.03563ZM252.008 8.12829L251.36 8.88977L251.495 9.0048L251.661 9.06631L252.008 8.12829ZM254.679 9.11514L254.332 10.0532L254.506 10.1175L254.692 10.1151L254.679 9.11514ZM257.592 9.07702L257.645 8.07844L257.612 8.07667L257.579 8.07711L257.592 9.07702ZM260.482 9.23131L260.912 8.32873L260.733 8.24331L260.535 8.23273L260.482 9.23131ZM263.085 10.473L262.654 11.3756L262.672 11.384L262.69 11.3917L263.085 10.473ZM265.703 11.5988L265.308 12.5175L265.702 12.6869L266.097 12.5181L265.703 11.5988ZM269.114 10.1387L269.794 9.40609L269.318 8.9634L268.72 9.21937L269.114 10.1387ZM271.426 12.2872L270.745 13.0197L270.964 13.2232L271.259 13.2731L271.426 12.2872ZM274.266 12.7687L274.999 12.0892L274.768 11.8396L274.433 11.7828L274.266 12.7687ZM276.444 15.121L275.711 15.8005L275.982 16.0934L276.38 16.119L276.444 15.121ZM279.392 15.31L279.487 14.3145L279.471 14.3131L279.456 14.3121L279.392 15.31ZM282.332 15.5904L282.915 14.7778L282.696 14.6206L282.427 14.5949L282.332 15.5904ZM284.713 17.2982L285.337 16.5171L285.317 16.5008L285.296 16.4856L284.713 17.2982ZM287.014 19.1375L286.389 19.9186L286.782 20.2323L287.268 20.1046L287.014 19.1375ZM290.51 18.2189L291.426 17.8167L291.082 17.0346L290.256 17.2517L290.51 18.2189ZM292.053 21.7305L291.137 22.1326L291.314 22.5366L291.732 22.6778L292.053 21.7305ZM294.743 22.6396L294.423 23.587L294.657 23.6659L294.9 23.6272L294.743 22.6396ZM298.158 22.0966L298.998 21.5546L298.645 21.0066L298.001 21.109L298.158 22.0966ZM299.951 24.8771L299.11 25.4191L299.227 25.6005L299.409 25.7175L299.951 24.8771ZM302.34 26.4177L301.798 27.2581L302.08 27.4403L302.415 27.4148L302.34 26.4177ZM305.692 26.1627L306.023 25.2189L305.825 25.1497L305.616 25.1656L305.692 26.1627ZM308.428 27.1215L308.929 26.2558L308.848 26.2088L308.759 26.1777L308.428 27.1215ZM310.904 28.5534L311.795 28.0984L311.66 27.8356L311.405 27.6878L310.904 28.5534ZM312.438 31.5562L311.548 32.0112L311.752 32.4105L312.186 32.5238L312.438 31.5562ZM315.306 32.3048L316.076 31.6664L315.87 31.4185L315.559 31.3372L315.306 32.3048ZM317.216 34.6075L318.01 33.9999L317.998 33.9843L317.986 33.9691L317.216 34.6075ZM319.04 36.9917L318.246 37.5993L318.358 37.7459L318.515 37.8428L319.04 36.9917ZM321.439 38.4721L320.914 39.3233L320.925 39.33L321.439 38.4721ZM323.866 39.9258L323.352 40.7836L323.42 40.8244L323.494 40.8539L323.866 39.9258ZM326.564 41.0079L327.262 40.2919L327.12 40.1536L326.936 40.0798L326.564 41.0079ZM328.61 43.0029L327.912 43.719L328.009 43.8141L328.129 43.8796L328.61 43.0029ZM331.115 44.3774L330.634 45.2541L330.68 45.2795L330.729 45.2998L331.115 44.3774ZM333.824 45.5114L334.735 45.0991L334.573 44.7408L334.21 44.5889L333.824 45.5114ZM335.137 48.4138L334.226 48.826L334.461 49.3455L335.028 49.4078L335.137 48.4138ZM338.493 48.7825L339.202 48.0768L338.953 47.827L338.602 47.7885L338.493 48.7825ZM340.51 50.8075L339.801 51.5132L339.864 51.5759L339.936 51.6267L340.51 50.8075ZM342.853 52.4481L343.572 51.7529L343.505 51.6839L343.427 51.6289L342.853 52.4481ZM344.838 54.4999L344.119 55.1951L344.274 55.3557L344.483 55.435L344.838 54.4999ZM347.706 55.5877L348.531 55.0228L348.354 54.7639L348.061 54.6527L347.706 55.5877ZM349.359 58.0015L350.268 57.5848L350.232 57.5071L350.184 57.4365L349.359 58.0015ZM350.632 60.7792L349.723 61.1959L349.865 61.5058L350.167 61.6644L350.632 60.7792ZM353.263 62.1622L354.096 61.6093L353.954 61.3962L353.728 61.2771L353.263 62.1622ZM354.864 64.5762L354.031 65.1291L354.122 65.2658L354.251 65.3663L354.864 64.5762ZM357.136 66.3389L357.854 65.6434L357.805 65.5924L357.749 65.5489L357.136 66.3389ZM359.117 68.3851L358.398 69.0806L358.422 69.1052L358.447 69.1281L359.117 68.3851ZM361.245 70.302L362.035 69.6889L361.98 69.6185L361.914 69.559L361.245 70.302ZM362.995 72.5577L362.205 73.1709L362.211 73.1774L362.216 73.1839L362.995 72.5577ZM364.78 74.7798L365.669 74.3213L365.623 74.232L365.56 74.1536L364.78 74.7798ZM366.116 77.3681L365.227 77.8267L365.389 78.14L365.711 78.2826L366.116 77.3681ZM369.044 78.6634L370.043 78.6891L370.06 78.0198L369.448 77.7489L369.044 78.6634ZM368.949 82.3549L367.949 82.3293L367.933 82.9473L368.479 83.2377L368.949 82.3549ZM371.703 83.8204L372.559 83.3042L372.417 83.0674L372.173 82.9376L371.703 83.8204ZM373.177 86.2658L374.108 85.902L374.077 85.8226L374.033 85.7496L373.177 86.2658ZM374.242 88.9934L373.311 89.3572L373.344 89.4433L373.393 89.5218L374.242 88.9934ZM375.74 91.4L374.891 91.9284L375.086 92.2422L375.439 92.3536L375.74 91.4ZM379.194 92.4912L380.192 92.4265L380.147 91.7438L379.495 91.5377L379.194 92.4912ZM379.406 95.7626L378.408 95.8273L378.416 95.9514L378.454 96.0697L379.406 95.7626ZM380.306 98.5497L379.354 98.8568L379.461 99.1896L379.753 99.3829L380.306 98.5497ZM382.905 100.275L383.802 99.8328L383.683 99.5911L383.458 99.442L382.905 100.275ZM384.167 102.833L383.27 103.275L383.313 103.362L383.373 103.44L384.167 102.833ZM385.907 105.109L386.906 105.146L386.919 104.787L386.701 104.502L385.907 105.109ZM385.785 108.435L384.786 108.398L384.767 108.919L385.182 109.233L385.785 108.435ZM388.264 110.307L389.087 109.739L388.996 109.606L388.867 109.509L388.264 110.307ZM389.888 112.661L390.887 112.701L390.9 112.368L390.711 112.093L389.888 112.661ZM389.76 115.909L388.761 115.87L388.739 116.414L389.185 116.727L389.76 115.909ZM392.404 117.767L393.401 117.695L393.367 117.221L392.979 116.949L392.404 117.767ZM392.623 120.801L391.626 120.874L391.634 120.982L391.665 121.087L392.623 120.801ZM393.438 123.536L392.479 123.821L392.572 124.134L392.832 124.331L393.438 123.536ZM396.013 125.497L397.012 125.54L397.035 125.018L396.619 124.701L396.013 125.497ZM395.875 128.639L394.876 128.595L394.87 128.728L394.899 128.857L395.875 128.639ZM396.498 131.43L395.522 131.648L395.635 132.155L396.114 132.354L396.498 131.43ZM400.267 132.999L401.214 133.319L401.513 132.434L400.651 132.075L400.267 132.999ZM399.086 136.488L398.139 136.168L398.049 136.436L398.112 136.711L399.086 136.488ZM399.721 139.26L398.746 139.483L398.775 139.61L398.836 139.725L399.721 139.26ZM401.05 141.788L400.165 142.253L400.246 142.407L400.374 142.524L401.05 141.788ZM403.447 143.988L404.421 144.214L404.553 143.646L404.123 143.252L403.447 143.988ZM402.702 147.203L401.728 146.977L401.596 147.544L402.025 147.939L402.702 147.203ZM405.129 149.434L406.037 149.014L405.953 148.833L405.806 148.697L405.129 149.434ZM406.34 152.056L407.337 151.981L407.324 151.801L407.248 151.636L406.34 152.056ZM406.557 154.957L407.512 155.254L407.569 155.072L407.555 154.882L406.557 154.957ZM405.569 158.134L404.615 157.837L404.447 158.376L404.822 158.799L405.569 158.134ZM407.704 160.534L408.615 160.122L408.552 159.983L408.451 159.87L407.704 160.534ZM408.906 163.188L409.904 163.119L409.892 162.939L409.817 162.775L408.906 163.188ZM409.105 166.066L410.049 166.396L410.116 166.202L410.102 165.997L409.105 166.066ZM408.023 169.162L407.079 168.832L406.842 169.511L407.411 169.952L408.023 169.162ZM411.041 171.502L412.035 171.612L412.096 171.055L411.654 170.712L411.041 171.502ZM410.716 174.457L409.722 174.348L409.699 174.557L409.763 174.758L410.716 174.457ZM411.586 177.21L412.567 177.406L412.617 177.154L412.54 176.909L411.586 177.21ZM410.996 180.163L410.015 179.967L409.943 180.328L410.122 180.65L410.996 180.163ZM412.492 182.85L413.47 183.059L413.549 182.691L413.366 182.363L412.492 182.85ZM411.862 185.797L410.884 185.588L410.822 185.879L410.929 186.156L411.862 185.797ZM412.923 188.551L413.849 188.929L413.998 188.562L413.856 188.192L412.923 188.551ZM411.719 191.503L410.793 191.126L410.584 191.638L410.907 192.087L411.719 191.503ZM413.679 194.227L414.678 194.182L414.664 193.884L414.49 193.643L413.679 194.227ZM413.806 197.091L414.799 197.217L414.809 197.132L414.805 197.047L413.806 197.091ZM413.444 199.955L414.39 200.279L414.423 200.182L414.436 200.081L413.444 199.955ZM412.461 202.828L411.515 202.505L411.383 202.891L411.559 203.259L412.461 202.828ZM413.815 205.664L414.791 205.879L414.865 205.543L414.717 205.233L413.815 205.664ZM413.462 207.265V208.265H414.266L414.438 207.48L413.462 207.265ZM412.608 207.265L411.608 207.246L411.607 207.346L412.606 207.365L413.606 207.384L413.608 207.284L412.608 207.265ZM412.606 207.365L411.669 207.017L410.653 209.756L411.59 210.104L412.528 210.451L413.544 207.713L412.606 207.365ZM411.59 210.104L410.679 210.514L411.97 213.38L412.882 212.969L413.794 212.558L412.502 209.693L411.59 210.104ZM412.882 212.969L411.959 212.583L410.791 215.377L411.713 215.763L412.636 216.149L413.804 213.355L412.882 212.969ZM411.713 215.763L410.73 215.579L410.204 218.379L411.187 218.564L412.17 218.748L412.696 215.948L411.713 215.763ZM411.187 218.564L410.253 218.921L411.368 221.837L412.302 221.48L413.236 221.123L412.121 218.207L411.187 218.564ZM412.302 221.48L411.327 221.704L411.997 224.612L412.971 224.387L413.946 224.163L413.276 221.255L412.302 221.48ZM412.971 224.387L412.19 223.763L410.068 226.42L410.849 227.044L411.63 227.668L413.752 225.012L412.971 224.387ZM410.849 227.044L409.929 227.437L411.208 230.426L412.128 230.032L413.047 229.639L411.768 226.651L410.849 227.044ZM412.128 230.032L411.358 229.394L409.195 232.004L409.965 232.642L410.735 233.28L412.898 230.671L412.128 230.032ZM409.965 232.642L408.98 232.47L408.496 235.254L409.482 235.425L410.467 235.596L410.951 232.813L409.965 232.642ZM409.482 235.425L408.605 235.906L410.308 239.012L411.185 238.532L412.062 238.051L410.358 234.944L409.482 235.425ZM411.185 238.532L410.194 238.4L409.819 241.238L410.81 241.369L411.801 241.5L412.177 238.663L411.185 238.532ZM410.81 241.369L409.981 240.811L408.237 243.398L409.066 243.957L409.896 244.515L411.639 241.928L410.81 241.369ZM409.066 243.957L408.073 243.841L407.746 246.663L408.739 246.778L409.732 246.894L410.06 244.072L409.066 243.957ZM408.739 246.778L407.801 246.433L406.809 249.123L407.747 249.469L408.686 249.815L409.677 247.124L408.739 246.778ZM407.747 249.469L406.877 248.976L405.417 251.558L406.287 252.05L407.157 252.543L408.618 249.961L407.747 249.469ZM406.287 252.05L405.411 252.532L407.249 255.872L408.125 255.39L409.001 254.907L407.163 251.568L406.287 252.05ZM408.125 255.39L407.199 255.013L406.114 257.678L407.04 258.055L407.966 258.432L409.051 255.767L408.125 255.39ZM407.04 258.055L406.04 258.027L405.959 260.961L406.959 260.989L407.959 261.016L408.039 258.083L407.04 258.055ZM406.959 260.989L406.096 260.483L404.602 263.034L405.465 263.54L406.328 264.045L407.822 261.494L406.959 260.989ZM405.465 263.54L404.485 263.34L403.915 266.141L404.895 266.341L405.874 266.54L406.445 263.739L405.465 263.54ZM404.895 266.341L403.907 266.181L403.447 269.022L404.434 269.182L405.421 269.342L405.882 266.501L404.895 266.341ZM404.434 269.182L403.731 268.47L401.442 270.73L402.145 271.442L402.848 272.153L405.136 269.894L404.434 269.182ZM402.145 271.442L401.354 270.83L399.522 273.199L400.313 273.811L401.104 274.423L402.936 272.053L402.145 271.442ZM400.313 273.811L399.354 274.096L400.354 277.455L401.313 277.17L402.271 276.884L401.271 273.525L400.313 273.811ZM401.313 277.17L400.505 276.579L398.758 278.971L399.565 279.561L400.372 280.151L402.12 277.76L401.313 277.17ZM399.565 279.561L398.862 278.849L396.649 281.034L397.352 281.746L398.055 282.457L400.268 280.272L399.565 279.561ZM397.352 281.746L396.367 281.574L395.871 284.421L396.857 284.592L397.842 284.763L398.337 281.917L397.352 281.746ZM396.857 284.592L396.016 284.05L394.461 286.462L395.301 287.004L396.142 287.546L397.697 285.134L396.857 284.592ZM395.301 287.004L394.397 286.578L393.191 289.137L394.096 289.563L395.001 289.989L396.206 287.43L395.301 287.004ZM394.096 289.563L393.106 289.705L393.582 293.029L394.572 292.888L395.562 292.746L395.086 289.421L394.096 289.563ZM394.572 292.888L393.723 292.358L392.207 294.789L393.056 295.318L393.904 295.847L395.42 293.417L394.572 292.888ZM393.056 295.318L392.403 294.56L390.063 296.578L390.716 297.335L391.369 298.093L393.709 296.075L393.056 295.318ZM390.716 297.335L389.795 296.944L388.686 299.553L389.606 299.944L390.527 300.336L391.636 297.727L390.716 297.335ZM389.606 299.944L388.763 299.407L387.238 301.799L388.081 302.337L388.924 302.874L390.449 300.482L389.606 299.944ZM388.081 302.337L387.094 302.176L386.613 305.13L387.6 305.291L388.588 305.451L389.068 302.497L388.081 302.337ZM387.6 305.291L387.045 304.459L384.398 306.229L384.954 307.06L385.51 307.892L388.156 306.122L387.6 305.291ZM384.954 307.06L383.997 306.772L383.162 309.548L384.119 309.836L385.077 310.124L385.912 307.348L384.954 307.06ZM384.119 309.836L383.224 309.391L381.962 311.93L382.858 312.375L383.753 312.82L385.015 310.281L384.119 309.836ZM382.858 312.375L382.184 311.636L380.008 313.618L380.682 314.357L381.355 315.097L383.531 313.115L382.858 312.375ZM380.682 314.357L379.684 314.294L379.48 317.512L380.478 317.575L381.476 317.638L381.68 314.421L380.682 314.357ZM380.478 317.575L379.774 316.864L377.712 318.906L378.415 319.617L379.119 320.327L381.182 318.285L380.478 317.575ZM378.415 319.617L377.776 318.848L375.51 320.731L376.15 321.5L376.789 322.269L379.055 320.386L378.415 319.617ZM376.15 321.5L375.245 321.073L374.022 323.661L374.926 324.088L375.831 324.515L377.054 321.927L376.15 321.5ZM374.926 324.088L373.926 324.097L373.959 327.604L374.958 327.595L375.958 327.586L375.926 324.079L374.926 324.088ZM374.958 327.595L374.731 326.622L371.087 327.473L371.314 328.446L371.542 329.42L375.186 328.569L374.958 327.595ZM371.314 328.446L370.317 328.519L370.59 332.277L371.588 332.205L372.585 332.132L372.312 328.374L371.314 328.446ZM371.588 332.205L371.1 331.332L368.397 332.841L368.884 333.714L369.372 334.587L372.075 333.078L371.588 332.205ZM368.884 333.714L368.095 333.099L366.35 335.339L367.139 335.954L367.928 336.568L369.673 334.329L368.884 333.714ZM367.139 335.954L366.51 335.177L364.261 336.999L364.89 337.776L365.52 338.553L367.769 336.731L367.139 335.954ZM364.89 337.776L363.923 337.521L363.121 340.559L364.087 340.815L365.054 341.07L365.857 338.032L364.89 337.776ZM364.087 340.815L363.772 339.866L360.638 340.906L360.953 341.855L361.269 342.805L364.402 341.764L364.087 340.815ZM360.953 341.855L360.268 341.127L358.203 343.071L358.889 343.799L359.574 344.527L361.639 342.584L360.953 341.855ZM358.889 343.799L358.177 343.097L356.193 345.108L356.905 345.81L357.617 346.512L359.601 344.501L358.889 343.799ZM356.905 345.81L355.938 345.558L355.122 348.68L356.09 348.933L357.057 349.186L357.873 346.063L356.905 345.81ZM356.09 348.933L355.593 348.065L353.028 349.531L353.525 350.399L354.021 351.267L356.586 349.801L356.09 348.933ZM353.525 350.399L352.548 350.182L351.817 353.466L352.794 353.684L353.77 353.901L354.501 350.617L353.525 350.399ZM352.794 353.684L352.737 352.685L348.975 352.9L349.031 353.898L349.088 354.897L352.85 354.682L352.794 353.684ZM349.031 353.898L348.082 353.585L347.076 356.638L348.026 356.951L348.975 357.264L349.981 354.211L349.031 353.898ZM348.026 356.951L347.468 356.121L345.081 357.724L345.639 358.554L346.196 359.384L348.583 357.781L348.026 356.951ZM345.639 358.554L345.161 357.676L342.603 359.068L343.081 359.946L343.559 360.824L346.117 359.433L345.639 358.554ZM343.081 359.946L342.131 359.633L341.099 362.765L342.049 363.078L342.999 363.391L344.031 360.259L343.081 359.946ZM342.049 363.078L341.26 362.464L339.47 364.767L340.259 365.38L341.049 365.994L342.839 363.691L342.049 363.078ZM340.259 365.38L339.919 364.44L337.07 365.472L337.41 366.412L337.751 367.352L340.6 366.321L340.259 365.38ZM337.41 366.412L336.922 365.539L334.407 366.945L334.895 367.818L335.383 368.691L337.898 367.285L337.41 366.412ZM334.895 367.818L334.031 367.314L332.487 369.958L333.35 370.463L334.214 370.967L335.758 368.322L334.895 367.818ZM333.35 370.463L332.812 369.62L330.398 371.159L330.936 372.002L331.474 372.846L333.888 371.306L333.35 370.463ZM330.936 372.002L330.282 371.246L328.119 373.116L328.773 373.873L329.427 374.629L331.59 372.759L330.936 372.002ZM328.773 373.873L328.671 372.878L325.412 373.211L325.513 374.206L325.615 375.201L328.875 374.867L328.773 373.873ZM325.513 374.206L324.57 373.874L323.406 377.18L324.349 377.513L325.292 377.845L326.457 374.538L325.513 374.206ZM324.349 377.513L323.787 376.685L321.421 378.293L321.983 379.12L322.545 379.947L324.911 378.34L324.349 377.513ZM321.983 379.12L321.472 378.26L319.014 379.723L319.525 380.582L320.036 381.442L322.495 379.979L321.983 379.12ZM319.525 380.582L319.563 379.583L316.106 379.452L316.069 380.452L316.031 381.451L319.487 381.581L319.525 380.582ZM316.069 380.452L315.258 379.866L313.458 382.358L314.269 382.943L315.079 383.529L316.879 381.037L316.069 380.452ZM314.269 382.943L313.933 382.001L311.204 382.974L311.54 383.916L311.876 384.858L314.605 383.885L314.269 382.943ZM311.54 383.916L310.85 383.192L308.734 385.211L309.424 385.934L310.114 386.658L312.23 384.64L311.54 383.916ZM309.424 385.934L308.858 385.11L306.497 386.731L307.063 387.555L307.629 388.38L309.99 386.759L309.424 385.934ZM307.063 387.555L307.168 386.561L303.741 386.201L303.637 387.196L303.532 388.19L306.959 388.55L307.063 387.555ZM303.637 387.196L302.81 386.632L301.003 389.284L301.829 389.847L302.656 390.41L304.463 387.759L303.637 387.196ZM301.829 389.847L301.111 389.152L299.012 391.321L299.731 392.016L300.45 392.711L302.548 390.542L301.829 389.847ZM299.731 392.016L299.258 391.135L296.733 392.491L297.207 393.372L297.68 394.253L300.204 392.897L299.731 392.016ZM297.207 393.372L297.487 392.412L293.839 391.344L293.558 392.304L293.277 393.264L296.926 394.332L297.207 393.372ZM293.558 392.304L293.166 391.384L290.567 392.493L290.959 393.413L291.352 394.332L293.95 393.224L293.558 392.304ZM290.959 393.413L290.071 392.953L288.392 396.197L289.28 396.656L290.168 397.116L291.847 393.872L290.959 393.413ZM289.28 396.656L289.24 395.657L286.198 395.78L286.238 396.779L286.278 397.778L289.321 397.655L289.28 396.656ZM286.238 396.779L286.388 395.791L283.134 395.298L282.985 396.287L282.835 397.275L286.088 397.768L286.238 396.779ZM282.985 396.287L282.339 395.522L280.058 397.448L280.703 398.212L281.348 398.976L283.63 397.051L282.985 396.287ZM280.703 398.212L280.022 397.48L277.77 399.577L278.452 400.309L279.133 401.041L281.385 398.944L280.703 398.212ZM278.452 400.309L278.24 399.332L275.439 399.937L275.651 400.915L275.862 401.892L278.663 401.287L278.452 400.309ZM275.651 400.915L275.623 399.915L272.653 399.996L272.68 400.996L272.708 401.996L275.678 401.914L275.651 400.915ZM272.68 400.996L271.906 400.364L269.769 402.983L270.544 403.615L271.319 404.247L273.455 401.628L272.68 400.996ZM270.544 403.615L270.924 402.69L267.51 401.29L267.13 402.215L266.751 403.14L270.165 404.54L270.544 403.615ZM267.13 402.215L266.332 401.613L264.212 404.423L265.01 405.026L265.808 405.628L267.929 402.817L267.13 402.215ZM265.01 405.026L264.991 404.026L262.048 404.082L262.067 405.082L262.086 406.082L265.029 406.025L265.01 405.026ZM262.067 405.082L261.606 404.195L259.014 405.543L259.475 406.43L259.937 407.317L262.528 405.969L262.067 405.082ZM259.475 406.43L259.301 405.445L256.493 405.943L256.667 406.928L256.842 407.912L259.65 407.415L259.475 406.43ZM256.667 406.928L256.71 405.929L253.761 405.802L253.718 406.801L253.676 407.8L256.624 407.927L256.667 406.928ZM253.718 406.801L253.51 405.823L250.733 406.414L250.941 407.392L251.149 408.37L253.927 407.779L253.718 406.801ZM250.941 407.392L251.039 406.397L248.084 406.105L247.986 407.101L247.888 408.096L250.843 408.387L250.941 407.392ZM247.986 407.101L247.521 406.215L244.911 407.587L245.376 408.472L245.841 409.358L248.451 407.986L247.986 407.101ZM245.376 408.472L244.959 407.563L242.292 408.786L242.709 409.695L243.126 410.604L245.793 409.381L245.376 408.472ZM242.709 409.695L242.391 408.747L239.649 409.667L239.967 410.615L240.285 411.563L243.027 410.643L242.709 409.695ZM239.967 410.615L239.822 409.625L237.003 410.039L237.148 411.028L237.293 412.018L240.112 411.604L239.967 410.615ZM237.148 411.028L237.345 410.048L234.397 409.455L234.2 410.435L234.002 411.415L236.951 412.009L237.148 411.028ZM234.2 410.435L233.676 409.583L231.006 411.224L231.53 412.076L232.053 412.928L234.723 411.287L234.2 410.435ZM231.53 412.076L231.646 411.083L228.731 410.741L228.615 411.735L228.498 412.728L231.414 413.069L231.53 412.076ZM228.615 411.735L228.663 410.736L225.803 410.598L225.754 411.597L225.706 412.595L228.566 412.733L228.615 411.735ZM225.754 411.597L225.656 410.601L222.829 410.882L222.928 411.877L223.027 412.872L225.853 412.592L225.754 411.597ZM222.928 411.877L222.702 410.903L219.889 411.555L220.114 412.529L220.34 413.503L223.154 412.851L222.928 411.877ZM220.114 412.529L219.821 411.573L217.005 412.438L217.299 413.394L217.593 414.35L220.408 413.485L220.114 412.529ZM217.299 413.394L217.709 412.482L214.815 411.182L214.405 412.094L213.996 413.006L216.889 414.306L217.299 413.394ZM214.405 412.094L214.175 411.121L211.348 411.791L211.579 412.764L211.809 413.737L214.636 413.067L214.405 412.094ZM211.579 412.764L211.757 411.78L208.898 411.263L208.72 412.247L208.542 413.231L211.401 413.748L211.579 412.764ZM208.72 412.247L209.054 411.304L206.209 410.295L205.874 411.238L205.54 412.18L208.386 413.189L208.72 412.247ZM205.874 411.238L205.498 410.311L202.639 411.474L203.016 412.401L203.392 413.327L206.251 412.164L205.874 411.238ZM203.016 412.401L203.548 411.554L200.768 409.807L200.236 410.654L199.703 411.5L202.483 413.247L203.016 412.401ZM200.236 410.654L200.175 409.655L197.354 409.825L197.414 410.824L197.475 411.822L200.296 411.652L200.236 410.654ZM197.414 410.824L197.457 409.824L194.627 409.705L194.584 410.704L194.542 411.703L197.372 411.823L197.414 410.824ZM194.584 410.704L194.412 409.719L191.538 410.221L191.71 411.206L191.882 412.191L194.756 411.689L194.584 410.704ZM191.71 411.206L192.117 410.293L189.386 409.075L188.979 409.988L188.572 410.901L191.302 412.119L191.71 411.206ZM188.979 409.988L188.659 409.04L185.726 410.031L186.046 410.979L186.365 411.926L189.299 410.935L188.979 409.988ZM186.046 410.979L185.646 410.062L182.624 411.378L183.024 412.295L183.423 413.212L186.445 411.895L186.046 410.979ZM183.024 412.295L183.786 411.648L181.29 408.708L180.528 409.355L179.765 410.002L182.261 412.942L183.024 412.295ZM180.528 409.355L180.472 408.357L177.6 408.517L177.655 409.516L177.711 410.514L180.583 410.353L180.528 409.355ZM177.655 409.516L177.302 408.58L174.246 409.735L174.6 410.671L174.953 411.606L178.009 410.451L177.655 409.516ZM174.6 410.671L175.373 410.036L172.981 407.123L172.208 407.757L171.435 408.392L173.827 411.305L174.6 410.671ZM172.208 407.757L171.741 406.873L168.554 408.555L169.02 409.439L169.487 410.324L172.674 408.642L172.208 407.757ZM169.02 409.439L169.231 408.462L166.452 407.862L166.241 408.84L166.03 409.817L168.809 410.417L169.02 409.439ZM166.241 408.84L166.828 408.03L164.304 406.199L163.717 407.008L163.129 407.817L165.653 409.649L166.241 408.84ZM163.717 407.008L163.652 406.01L160.696 406.202L160.761 407.2L160.826 408.198L163.781 408.006L163.717 407.008ZM160.761 407.2L161.013 406.232L158.264 405.517L158.012 406.484L157.76 407.452L160.509 408.168L160.761 407.2ZM158.012 406.484L158.54 405.635L156.015 404.064L155.487 404.913L154.959 405.762L157.484 407.333L158.012 406.484ZM155.487 404.913L155.413 403.916L152.408 404.138L152.482 405.135L152.556 406.132L155.561 405.91L155.487 404.913ZM152.482 405.135L152.436 404.136L149.432 404.273L149.478 405.272L149.523 406.271L152.528 406.134L152.482 405.135ZM149.478 405.272L150.085 404.478L147.67 402.629L147.062 403.423L146.454 404.217L148.87 406.066L149.478 405.272ZM147.062 403.423L147.765 402.712L145.499 400.47L144.796 401.181L144.092 401.892L146.359 404.134L147.062 403.423ZM144.796 401.181L144.962 400.195L142.14 399.72L141.974 400.706L141.808 401.692L144.629 402.167L144.796 401.181ZM141.974 400.706L141.629 399.767L138.18 401.033L138.525 401.972L138.87 402.911L142.318 401.645L141.974 400.706ZM138.525 401.972L139.047 401.119L136.561 399.599L136.039 400.452L135.517 401.305L138.003 402.825L138.525 401.972ZM136.039 400.452L136.379 399.511L133.691 398.54L133.351 399.481L133.011 400.422L135.699 401.392L136.039 400.452ZM133.351 399.481L133.585 398.509L130.78 397.834L130.546 398.806L130.312 399.779L133.117 400.453L133.351 399.481ZM130.546 398.806L131.079 397.96L128.629 396.417L128.096 397.263L127.563 398.11L130.013 399.652L130.546 398.806ZM128.096 397.263L128.973 396.784L127.24 393.613L126.363 394.093L125.485 394.572L127.218 397.743L128.096 397.263ZM126.363 394.093L126.048 393.144L122.402 394.354L122.717 395.303L123.032 396.252L126.678 395.042L126.363 394.093ZM122.717 395.303L123.654 394.954L122.258 391.205L121.321 391.554L120.384 391.902L121.78 395.652L122.717 395.303ZM121.321 391.554L121.586 390.589L118.824 389.83L118.559 390.794L118.294 391.758L121.056 392.518L121.321 391.554ZM118.559 390.794L118.353 389.815L114.813 390.558L115.018 391.537L115.224 392.516L118.764 391.773L118.559 390.794ZM115.018 391.537L115.909 391.082L114.315 387.959L113.425 388.414L112.534 388.868L114.128 391.991L115.018 391.537ZM113.425 388.414L113.557 387.423L110.562 387.023L110.43 388.015L110.298 389.006L113.292 389.405L113.425 388.414ZM110.43 388.015L110.712 387.055L107.915 386.233L107.633 387.192L107.351 388.152L110.148 388.974L110.43 388.015ZM107.633 387.192L108.038 386.278L105.415 385.117L105.01 386.032L104.606 386.946L107.228 388.107L107.633 387.192ZM105.01 386.032L105.967 385.741L104.844 382.042L103.888 382.332L102.931 382.622L104.053 386.322L105.01 386.032ZM103.888 382.332L103.739 381.343L100.099 381.891L100.248 382.88L100.396 383.869L104.037 383.321L103.888 382.332ZM100.248 382.88L101.093 382.346L99.4064 379.675L98.5608 380.209L97.7152 380.743L99.402 383.414L100.248 382.88ZM98.5608 380.209L99.0568 379.341L96.5935 377.933L96.0975 378.802L95.6014 379.67L98.0648 381.077L98.5608 380.209ZM96.0975 378.802L96.2145 377.809L93.0529 377.436L92.9359 378.429L92.8189 379.422L95.9805 379.795L96.0975 378.802ZM92.9359 378.429L93.5375 377.63L91.2552 375.911L90.6536 376.71L90.052 377.509L92.3342 379.228L92.9359 378.429ZM90.6536 376.71L91.2757 375.927L89.0392 374.15L88.4171 374.933L87.7949 375.716L90.0315 377.493L90.6536 376.71ZM88.4171 374.933L88.8379 374.026L86.2017 372.803L85.7809 373.71L85.36 374.617L87.9962 375.84L88.4171 374.933ZM85.7809 373.71L86.7605 373.509L85.9961 369.779L85.0165 369.98L84.0368 370.181L84.8012 373.911L85.7809 373.71ZM85.0165 369.98L85.5924 369.163L83.2819 367.535L82.706 368.352L82.1301 369.17L84.4405 370.798L85.0165 369.98ZM82.706 368.352L83.4234 367.656L81.4403 365.614L80.7229 366.31L80.0055 367.007L81.9886 369.049L82.706 368.352ZM80.7229 366.31L80.5921 365.319L76.5016 365.859L76.6324 366.85L76.7632 367.842L80.8537 367.302L80.7229 366.31ZM76.6324 366.85L77.6303 366.785L77.3635 362.669L76.3656 362.734L75.3677 362.799L75.6345 366.915L76.6324 366.85ZM76.3656 362.734L76.5238 361.747L73.2457 361.221L73.0874 362.209L72.9292 363.196L76.2074 363.721L76.3656 362.734ZM73.0874 362.209L73.7923 361.499L71.7731 359.493L71.0683 360.202L70.3635 360.912L72.3826 362.918L73.0874 362.209ZM71.0683 360.202L71.9753 359.781L70.6802 356.993L69.7732 357.414L68.8662 357.835L70.1613 360.624L71.0683 360.202ZM69.7732 357.414L69.8118 356.415L66.0646 356.27L66.0259 357.269L65.9873 358.268L69.7346 358.413L69.7732 357.414ZM66.0259 357.269L66.7407 356.57L64.7416 354.526L64.0269 355.226L63.3121 355.925L65.3111 357.968L66.0259 357.269ZM64.0269 355.226L65.0101 355.044L64.3782 351.633L63.3949 351.815L62.4116 351.997L63.0436 355.408L64.0269 355.226ZM63.3949 351.815L63.7973 350.9L61.0045 349.672L60.6021 350.588L60.1996 351.503L62.9925 352.731L63.3949 351.815ZM60.6021 350.588L61.3496 349.923L59.4591 347.796L58.7117 348.46L57.9642 349.125L59.8546 351.252L60.6021 350.588ZM58.7117 348.46L59.5541 347.922L57.9982 345.489L57.1558 346.028L56.3134 346.566L57.8692 348.999L58.7117 348.46ZM57.1558 346.028L57.7245 345.205L55.3264 343.547L54.7578 344.37L54.1891 345.192L56.5871 346.85L57.1558 346.028ZM54.7578 344.37L55.6235 343.869L54.1725 341.36L53.3069 341.861L52.4412 342.361L53.8921 344.87L54.7578 344.37ZM53.3069 341.861L53.7413 340.96L50.9461 339.612L50.5117 340.513L50.0772 341.413L52.8724 342.761L53.3069 341.861ZM50.5117 340.513L51.4054 340.064L50.0918 337.447L49.1981 337.895L48.3043 338.344L49.6179 340.961L50.5117 340.513ZM49.1981 337.895L49.9824 337.275L48.2184 335.045L47.4341 335.665L46.6497 336.285L48.4137 338.516L49.1981 337.895ZM47.4341 335.665L48.0912 334.911L45.9081 333.008L45.2509 333.762L44.5937 334.515L46.7769 336.419L47.4341 335.665ZM45.2509 333.762L46.2509 333.769L46.2773 330.17L45.2774 330.162L44.2774 330.155L44.2509 333.754L45.2509 333.762ZM45.2774 330.162L45.5605 329.203L42.1659 328.201L41.8827 329.16L41.5995 330.119L44.9942 331.121L45.2774 330.162ZM41.8827 329.16L42.7968 328.754L41.6172 326.095L40.7031 326.501L39.789 326.906L40.9686 329.565L41.8827 329.16ZM40.7031 326.501L41.4655 325.854L39.618 323.677L38.8556 324.324L38.0932 324.971L39.9407 327.148L40.7031 326.501ZM38.8556 324.324L39.8204 324.061L39.0301 321.16L38.0653 321.423L37.1005 321.686L37.8908 324.587L38.8556 324.324ZM38.0653 321.423L39.0218 321.131L38.1623 318.312L37.2057 318.604L36.2492 318.895L37.1088 321.715L38.0653 321.423ZM37.2057 318.604L37.7852 317.789L35.3039 316.025L34.7245 316.84L34.145 317.655L36.6263 319.419L37.2057 318.604ZM34.7245 316.84L35.4408 316.142L33.4124 314.059L32.6961 314.757L31.9798 315.455L34.0082 317.537L34.7245 316.84ZM32.6961 314.757L33.6958 314.782L33.7787 311.421L32.779 311.396L31.7793 311.372L31.6964 314.733L32.6961 314.757ZM32.779 311.396L33.5338 310.74L31.6515 308.574L30.8967 309.23L30.1419 309.886L32.0242 312.052L32.779 311.396ZM30.8967 309.23L31.696 308.629L29.9822 306.349L29.1828 306.95L28.3835 307.551L30.0973 309.831L30.8967 309.23ZM29.1828 306.95L30.1313 306.633L29.2193 303.905L28.2709 304.222L27.3225 304.539L28.2344 307.267L29.1828 306.95ZM28.2709 304.222L29.1532 303.751L27.8254 301.262L26.9431 301.733L26.0608 302.204L27.3886 304.693L28.2709 304.222ZM26.9431 301.733L27.7491 301.141L26.0551 298.834L25.2491 299.426L24.443 300.018L26.137 302.325L26.9431 301.733ZM25.2491 299.426L26.1666 299.028L25.0389 296.427L24.1214 296.824L23.2039 297.222L24.3316 299.824L25.2491 299.426ZM24.1214 296.824L24.9109 296.211L23.1329 293.924L22.3434 294.537L21.5539 295.151L23.3319 297.438L24.1214 296.824ZM22.3434 294.537L23.2791 294.185L22.2769 291.526L21.3412 291.879L20.4055 292.232L21.4077 294.89L22.3434 294.537ZM21.3412 291.879L22.0497 291.174L19.904 289.019L19.1955 289.725L18.4869 290.43L20.6326 292.585L21.3412 291.879ZM19.1955 289.725L20.1873 289.597L19.8088 286.661L18.817 286.789L17.8252 286.917L18.2037 289.853L19.1955 289.725ZM18.817 286.789L19.7461 286.419L18.6984 283.787L17.7693 284.157L16.8402 284.526L17.8879 287.159L18.817 286.789ZM17.7693 284.157L18.7691 284.137L18.7099 281.117L17.7101 281.136L16.7103 281.156L16.7695 284.176L17.7693 284.157ZM17.7101 281.136L18.6199 280.721L17.4445 278.144L16.5347 278.559L15.6249 278.974L16.8003 281.551L17.7101 281.136ZM16.5347 278.559L17.4944 278.278L16.6997 275.564L15.7399 275.845L14.7802 276.126L15.575 278.84L16.5347 278.559ZM15.7399 275.845L16.1881 274.951L12.6548 273.179L12.2067 274.073L11.7585 274.967L15.2918 276.739L15.7399 275.845ZM12.2067 274.073L13.1777 273.834L12.4918 271.048L11.5208 271.287L10.5498 271.526L11.2356 274.312L12.2067 274.073ZM11.5208 271.287L12.502 271.094L11.946 268.269L10.9648 268.462L9.98364 268.655L10.5396 271.48L11.5208 271.287ZM10.9648 268.462L11.9607 268.372L11.6989 265.481L10.703 265.571L9.70709 265.662L9.9689 268.552L10.9648 268.462ZM10.703 265.571L11.6799 265.357L11.0706 262.576L10.0938 262.789L9.11692 263.003L9.72617 265.785L10.703 265.571ZM10.0938 262.789L11.0915 262.722L10.896 259.83L9.89825 259.897L8.90053 259.965L9.09605 262.857L10.0938 262.789ZM9.89825 259.897L10.5717 259.158L8.05673 256.867L7.38325 257.606L6.70976 258.345L9.22476 260.637L9.89825 259.897ZM7.38325 257.606L8.35435 257.845L9.11975 254.731L8.14865 254.492L7.17755 254.253L6.41215 257.367L7.38325 257.606ZM8.14865 254.492L8.96639 253.916L7.19491 251.4L6.37716 251.975L5.55942 252.551L7.33091 255.068L8.14865 254.492ZM6.37716 251.975L7.37309 252.065L7.64272 249.087L6.64679 248.997L5.65087 248.907L5.38124 251.885L6.37716 251.975ZM6.64679 248.997L7.49127 248.462L5.85804 245.886L5.01356 246.422L4.16908 246.958L5.80231 249.533L6.64679 248.997ZM5.01356 246.422L5.978 246.158L5.22008 243.392L4.25565 243.656L3.29121 243.921L4.04912 246.686L5.01356 246.422ZM4.25565 243.656L5.23276 243.869L5.88814 240.859L4.91102 240.646L3.93391 240.433L3.27853 243.444L4.25565 243.656ZM4.91102 240.646L5.85974 240.962L6.86999 237.931L5.92127 237.614L4.97256 237.298L3.96231 240.33L4.91102 240.646ZM5.92127 237.614L6.57925 236.861L3.7606 234.399L3.10263 235.152L2.44466 235.905L5.2633 238.367L5.92127 237.614ZM3.10263 235.152L4.08808 235.322L4.59532 232.381L3.60987 232.211L2.62442 232.041L2.11718 234.982L3.10263 235.152ZM3.60987 232.211L4.51156 232.643L5.96215 229.618L5.06046 229.186L4.15877 228.753L2.70818 231.778L3.60987 232.211ZM5.06046 229.186L5.8852 228.62L4.05985 225.958L3.23511 226.524L2.41037 227.089L4.23572 229.751L5.06046 229.186ZM3.23511 226.524L4.20367 226.275L3.48692 223.484L2.51836 223.733L1.54981 223.982L2.26656 226.772L3.23511 226.524ZM2.51836 223.733L3.35691 224.278L5.29654 221.293L4.45799 220.748L3.61944 220.203L1.67981 223.188L2.51836 223.733ZM4.45799 220.748L5.33221 220.262L3.8018 217.507L2.92758 217.992L2.05336 218.478L3.58377 221.234L4.45799 220.748ZM2.92758 217.992L3.79908 217.502L2.23904 214.73L1.36754 215.22L0.496045 215.71L2.05608 218.483L2.92758 217.992ZM1.36754 215.22L2.32577 215.506L3.18453 212.629L2.2263 212.343L1.26807 212.057L0.409315 214.934L1.36754 215.22ZM2.2263 212.343L3.15164 211.964L1.98844 209.125L1.0631 209.504L0.137758 209.883L1.30096 212.722L2.2263 212.343ZM1.0631 209.504L2.016 209.807L2.93005 206.935L1.97714 206.632L1.02424 206.329L0.110192 209.201L1.0631 209.504ZM1.97714 206.632L2.97452 206.56L2.76695 203.697L1.76957 203.769L0.772187 203.842L0.97976 206.704L1.97714 206.632ZM1.76957 203.769L2.76364 203.661L2.45036 200.797L1.45629 200.906L0.462219 201.014L0.775498 203.878L1.76957 203.769ZM1.45629 200.906L2.25207 201.511L4.35256 198.751L3.55678 198.145L2.76099 197.54L0.660504 200.3L1.45629 200.906ZM3.55678 198.145L4.55092 198.037L4.24091 195.185L3.24677 195.293L2.25262 195.401L2.56263 198.253L3.55678 198.145ZM3.24677 195.293L4.23589 195.44L4.65525 192.62L3.66612 192.473L2.677 192.326L2.25765 195.146L3.24677 195.293ZM3.66612 192.473L4.63736 192.235L3.92568 189.333L2.95445 189.571L1.98322 189.809L2.69489 192.711L3.66612 192.473ZM2.95445 189.571L3.93612 189.38L3.37194 186.474L2.39026 186.664L1.40859 186.855L1.97277 189.761L2.95445 189.571ZM2.39026 186.664L3.31754 187.039L4.43009 184.283L3.50281 183.909L2.57553 183.534L1.46299 186.29L2.39026 186.664ZM3.50281 183.909L4.48629 183.728L3.94499 180.786L2.96151 180.967L1.97802 181.148L2.51933 184.09L3.50281 183.909ZM2.96151 180.967L3.61557 181.724L6.48142 179.246L5.82735 178.489L5.17328 177.733L2.30744 180.211L2.96151 180.967ZM5.82735 178.489L6.81758 178.35L6.40698 175.435L5.41675 175.574L4.42653 175.714L4.83712 178.629L5.82735 178.489ZM5.41675 175.574L6.36292 175.25L5.31592 172.19L4.36976 172.514L3.42359 172.837L4.47059 175.898L5.41675 175.574ZM4.36976 172.514L5.06564 173.232L7.58487 170.791L6.88899 170.073L6.1931 169.354L3.67387 171.795L4.36976 172.514ZM6.88899 170.073L7.79632 169.652L6.32808 166.483L5.42075 166.904L4.51342 167.324L5.98166 170.493L6.88899 170.073ZM5.42075 166.904L6.34998 167.273L7.42072 164.581L6.49149 164.211L5.56226 163.842L4.49152 166.534L5.42075 166.904ZM6.49149 164.211L7.13987 164.972L9.85074 162.664L9.20236 161.902L8.55398 161.141L5.84311 163.45L6.49149 164.211ZM9.20236 161.902L10.1103 161.483L8.60373 158.219L7.69577 158.638L6.78782 159.057L8.29441 162.321L9.20236 161.902ZM7.69577 158.638L8.41632 159.332L10.6807 156.979L9.96016 156.285L9.23962 155.592L6.97523 157.945L7.69577 158.638ZM9.96016 156.285L10.9365 156.501L11.5495 153.732L10.5731 153.516L9.59671 153.3L8.98379 156.069L9.96016 156.285ZM10.5731 153.516L11.573 153.53L11.6147 150.597L10.6148 150.583L9.61485 150.569L9.57319 153.501L10.5731 153.516ZM10.6148 150.583L11.6147 150.586L11.6234 147.626L10.6234 147.623L9.62337 147.62L9.61476 150.58L10.6148 150.583ZM10.6234 147.623L11.2931 148.366L13.7449 146.155L13.0752 145.412L12.4055 144.669L9.95366 146.881L10.6234 147.623ZM13.0752 145.412L14.0745 145.375L13.9617 142.353L12.9624 142.391L11.9631 142.428L12.0759 145.449L13.0752 145.412ZM12.9624 142.391L13.7244 143.038L15.697 140.717L14.935 140.07L14.1731 139.422L12.2004 141.743L12.9624 142.391ZM14.935 140.07L15.9123 139.857L15.2039 136.596L14.2266 136.809L13.2494 137.021L13.9578 140.282L14.935 140.07ZM14.2266 136.809L14.7996 137.628L17.6287 135.65L17.0557 134.831L16.4828 134.011L13.6537 135.989L14.2266 136.809ZM17.0557 134.831L17.9889 134.471L16.6072 130.885L15.674 131.245L14.7409 131.604L16.1226 135.19L17.0557 134.831ZM15.674 131.245L16.5782 131.672L17.8002 129.085L16.8961 128.658L15.9919 128.231L14.7699 130.817L15.674 131.245ZM16.8961 128.658L17.7983 129.089L19.0308 126.51L18.1285 126.079L17.2263 125.648L15.9938 128.227L16.8961 128.658ZM18.1285 126.079L19.0243 126.524L20.2956 123.961L19.3998 123.517L18.5039 123.072L17.2327 125.635L18.1285 126.079ZM19.3998 123.517L19.986 124.327L22.6361 122.409L22.0498 121.599L21.4635 120.789L18.8135 122.707L19.3998 123.517ZM22.0498 121.599L23.0498 121.608L23.0769 118.485L22.0769 118.476L21.077 118.468L21.0498 121.59L22.0498 121.599ZM22.0769 118.476L22.9445 118.974L24.3652 116.496L23.4976 115.998L22.6301 115.501L21.2094 117.979L22.0769 118.476ZM23.4976 115.998L24.4255 116.371L25.4918 113.718L24.5639 113.345L23.636 112.972L22.5697 115.625L23.4976 115.998ZM24.5639 113.345L25.131 114.169L27.7744 112.349L27.2074 111.525L26.6403 110.701L23.9968 112.521L24.5639 113.345ZM27.2074 111.525L28.089 111.997L29.4235 109.503L28.5418 109.031L27.6602 108.56L26.3257 111.053L27.2074 111.525ZM28.5418 109.031L29.4428 109.465L30.6742 106.909L29.7733 106.475L28.8724 106.041L27.6409 108.597L28.5418 109.031ZM29.7733 106.475L30.5248 107.135L32.4268 104.968L31.6753 104.308L30.9238 103.649L29.0218 105.815L29.7733 106.475ZM31.6753 104.308L32.6668 104.178L32.1963 100.596L31.2048 100.726L30.2133 100.856L30.6838 104.439L31.6753 104.308ZM31.2048 100.726L31.6961 101.597L34.5293 99.9984L34.038 99.1274L33.5466 98.2564L30.7135 99.8548L31.2048 100.726ZM34.038 99.1274L35.0379 99.1178L35.0055 95.7272L34.0056 95.7367L33.0056 95.7463L33.038 99.137L34.038 99.1274ZM34.0056 95.7367L34.2898 96.6955L37.8621 95.6367L37.5779 94.6779L37.2937 93.7192L33.7214 94.778L34.0056 95.7367ZM37.5779 94.6779L38.5775 94.6504L38.4816 91.1636L37.482 91.1911L36.4824 91.2186L36.5783 94.7054L37.5779 94.6779ZM37.482 91.1911L38.0995 91.9777L40.4436 90.1375L39.8261 89.3509L39.2086 88.5643L36.8645 90.4045L37.482 91.1911ZM39.8261 89.3509L40.7891 89.6204L41.6054 86.7036L40.6424 86.4341L39.6794 86.1646L38.8631 89.0814L39.8261 89.3509ZM40.6424 86.4341L41.5034 86.9427L42.9633 84.4714L42.1023 83.9628L41.2413 83.4541L39.7814 85.9254L40.6424 86.4341ZM42.1023 83.9628L42.9134 84.5477L44.5871 82.227L43.776 81.642L42.965 81.0571L41.2912 83.3778L42.1023 83.9628ZM43.776 81.642L44.0798 82.5947L47.367 81.5466L47.0632 80.5938L46.7594 79.6411L43.4722 80.6893L43.776 81.642ZM47.0632 80.5938L47.9767 81.0006L49.1701 78.3205L48.2566 77.9137L47.3431 77.5069L46.1497 80.1871L47.0632 80.5938ZM48.2566 77.9137L49.1785 78.3011L50.3309 75.5587L49.409 75.1713L48.487 74.7839L47.3347 77.5263L48.2566 77.9137ZM49.409 75.1713L49.9385 76.0196L52.4762 74.4353L51.9466 73.587L51.417 72.7388L48.8794 74.3231L49.409 75.1713ZM51.9466 73.587L52.8003 74.1077L54.3037 71.6429L53.45 71.1222L52.5962 70.6014L51.0929 73.0663L51.9466 73.587ZM53.45 71.1222L53.7399 72.0792L56.9168 71.1167L56.6268 70.1596L56.3368 69.2026L53.16 70.1651L53.45 71.1222ZM56.6268 70.1596L57.6072 70.357L58.2623 67.1021L57.282 66.9047L56.3017 66.7074L55.6465 69.9623L56.6268 70.1596ZM57.282 66.9047L58.0994 67.4808L59.7598 65.1249L58.9424 64.5488L58.1251 63.9728L56.4646 66.3286L57.282 66.9047ZM58.9424 64.5488L59.4635 65.4024L61.9745 63.8694L61.4534 63.0159L60.9323 62.1624L58.4214 63.6953L58.9424 64.5488ZM61.4534 63.0159L62.3299 63.4973L63.7592 60.8948L62.8827 60.4134L62.0062 59.932L60.5769 62.5345L61.4534 63.0159ZM62.8827 60.4134L62.9222 61.4126L66.7348 61.2618L66.6953 60.2626L66.6557 59.2634L62.8432 59.4142L62.8827 60.4134ZM66.6953 60.2626L67.6027 60.6829L68.8828 57.919L67.9754 57.4987L67.068 57.0784L65.7879 59.8423L66.6953 60.2626ZM67.9754 57.4987L68.7734 58.1014L70.5136 55.7972L69.7156 55.1945L68.9176 54.5919L67.1774 56.896L67.9754 57.4987ZM69.7156 55.1945L70.3045 56.0027L72.6126 54.3209L72.0238 53.5127L71.4349 52.7045L69.1267 54.3863L69.7156 55.1945ZM72.0238 53.5127L72.411 54.4347L75.1619 53.2793L74.7747 52.3573L74.3874 51.4354L71.6365 52.5908L72.0238 53.5127ZM74.7747 52.3573L75.6182 52.8944L77.2119 50.391L76.3683 49.854L75.5248 49.3169L73.9311 51.8203L74.7747 52.3573ZM76.3683 49.854L76.6049 50.8256L79.6579 50.0823L79.4213 49.1107L79.1848 48.1391L76.1318 48.8823L76.3683 49.854ZM79.4213 49.1107L80.3903 49.3578L81.2677 45.9171L80.2987 45.67L79.3297 45.4229L78.4524 48.8636L79.4213 49.1107ZM80.2987 45.67L80.6388 46.6104L83.4508 45.5935L83.1108 44.6531L82.7707 43.7127L79.9587 44.7296L80.2987 45.67ZM83.1108 44.6531L83.9654 45.1723L85.5549 42.5555L84.7002 42.0364L83.8456 41.5172L82.2561 44.134L83.1108 44.6531ZM84.7002 42.0364L84.6633 43.0357L88.2801 43.1693L88.317 42.17L88.354 41.1707L84.7372 41.0371L84.7002 42.0364ZM88.317 42.17L88.8439 43.02L91.2461 41.531L90.7193 40.681L90.1924 39.831L87.7902 41.3201L88.317 42.17ZM90.7193 40.681L91.3444 41.4615L93.5523 39.6934L92.9272 38.9129L92.3021 38.1323L90.0942 39.9004L90.7193 40.681ZM92.9272 38.9129L93.894 39.1685L94.8594 35.5175L93.8926 35.2618L92.9258 35.0062L91.9604 38.6572L92.9272 38.9129ZM93.8926 35.2618L94.2399 36.1996L96.9816 35.1843L96.6344 34.2466L96.2871 33.3088L93.5453 34.3241L93.8926 35.2618ZM96.6344 34.2466L97.4124 34.8748L99.3064 32.5292L98.5284 31.901L97.7503 31.2727L95.8563 33.6183L96.6344 34.2466ZM98.5284 31.901L98.3802 32.8899L102.057 33.4409L102.205 32.452L102.354 31.463L98.6765 30.912L98.5284 31.901ZM102.205 32.452L103.083 32.9311L104.663 30.0373L103.785 29.5581L102.907 29.0789L101.328 31.9728L102.205 32.452ZM103.785 29.5581L104.208 30.4644L106.8 29.2559L106.377 28.3496L105.955 27.4432L103.363 28.6518L103.785 29.5581ZM106.377 28.3496L106.495 29.3426L109.547 28.9805L109.429 27.9875L109.311 26.9944L106.259 27.3565L106.377 28.3496ZM109.429 27.9875L110.32 28.4405L111.887 25.357L110.996 24.9039L110.104 24.4509L108.537 27.5344L109.429 27.9875ZM110.996 24.9039L110.742 25.8711L114.454 26.8468L114.708 25.8797L114.962 24.9125L111.25 23.9368L110.996 24.9039ZM114.708 25.8797L115.182 26.7601L117.67 25.4202L117.196 24.5398L116.722 23.6594L114.234 24.9992L114.708 25.8797ZM117.196 24.5398L118.109 24.9482L119.622 21.5653L118.709 21.1568L117.797 20.7484L116.283 24.1314L117.196 24.5398ZM118.709 21.1568L119.075 22.0876L121.736 21.0427L121.37 20.1119L121.005 19.1811L118.344 20.2261L118.709 21.1568ZM121.37 20.1119L121.608 21.0832L124.425 20.3939L124.187 19.4226L123.95 18.4512L121.132 19.1405L121.37 20.1119ZM124.187 19.4226L124.646 20.3111L127.185 19.0005L126.726 18.1119L126.267 17.2233L123.729 18.534L124.187 19.4226ZM126.726 18.1119L126.536 19.0937L129.882 19.7411L130.072 18.7593L130.262 17.7775L126.916 17.1301L126.726 18.1119ZM130.072 18.7593L130.647 19.5774L133.021 17.9087L132.446 17.0906L131.871 16.2725L129.497 17.9412L130.072 18.7593ZM132.446 17.0906L132.898 17.9825L135.44 16.6937L134.988 15.8018L134.535 14.9099L131.994 16.1987L132.446 17.0906ZM134.988 15.8018L135.261 16.7638L137.999 15.9866L137.726 15.0246L137.453 14.0626L134.715 14.8398L134.988 15.8018ZM137.726 15.0246L138.16 15.9254L140.725 14.6894L140.291 13.7885L139.857 12.8877L137.292 14.1237L137.726 15.0246ZM140.291 13.7885L140.379 14.7846L143.283 14.528L143.195 13.5319L143.107 12.5358L140.203 12.7924L140.291 13.7885ZM143.195 13.5319L143.281 14.5282L146.172 14.2798L146.086 13.2835L146.001 12.2871L143.109 12.5356L143.195 13.5319ZM146.086 13.2835L146.563 14.1625L149.092 12.7911L148.615 11.9121L148.138 11.033L145.61 12.4044L146.086 13.2835ZM148.615 11.9121L149.454 12.4561L151.491 9.3148L150.652 8.77073L149.813 8.22665L147.776 11.368L148.615 11.9121ZM150.652 8.77073L150.15 9.63574L153.67 11.6772L154.171 10.8122L154.673 9.94716L151.154 7.90571L150.652 8.77073ZM154.171 10.8122L154.614 11.709L157.203 10.4321L156.761 9.53526L156.318 8.6384L153.729 9.91531L154.171 10.8122ZM156.761 9.53526L157.575 10.115L159.742 7.07002L158.927 6.49027L158.112 5.91052L155.946 8.95551L156.761 9.53526ZM158.927 6.49027L158.384 7.3298L161.822 9.55467L162.365 8.71514L162.908 7.87561L159.471 5.65074L158.927 6.49027ZM162.365 8.71514L163.078 9.41614L165.453 7.00008L164.74 6.29908L164.027 5.59808L161.652 8.01414L162.365 8.71514ZM164.74 6.29908L164.956 7.27549L167.736 6.66072L167.52 5.68431L167.304 4.7079L164.524 5.32267L164.74 6.29908ZM167.52 5.68431L167.175 6.6228L170.273 7.76277L170.618 6.82428L170.963 5.88579L167.865 4.74583L167.52 5.68431ZM170.618 6.82428L171.189 7.64502L173.752 5.86102L173.181 5.04029L172.61 4.21955L170.047 6.00355L170.618 6.82428ZM173.181 5.04029L173.588 5.95367L176.285 4.75167L175.878 3.83828L175.471 2.92489L172.774 4.1269L173.181 5.04029ZM175.878 3.83828L176.252 4.76581L178.971 3.67015L178.597 2.74261L178.223 1.81508L175.504 2.91074L175.878 3.83828ZM178.597 2.74261L178.095 3.60754L181.204 5.41173L181.706 4.5468L182.208 3.68187L179.099 1.87768L178.597 2.74261ZM181.706 4.5468L182.226 5.40124L184.896 3.77762L184.376 2.92318L183.857 2.06874L181.187 3.69236L181.706 4.5468ZM184.376 2.92318L184.578 3.90276L187.389 3.32575L187.187 2.34617L186.986 1.3666L184.175 1.94361L184.376 2.92318ZM187.187 2.34617L186.789 3.26335L189.752 4.55078L190.151 3.6336L190.549 2.71642L187.586 1.429L187.187 2.34617ZM190.151 3.6336L190.107 4.63265L192.953 4.75677L192.997 3.75772L193.041 2.75867L190.194 2.63455L190.151 3.6336ZM192.997 3.75772L193.295 4.71235L196.083 3.84237L195.786 2.88775L195.488 1.93313L192.699 2.8031L192.997 3.75772ZM195.786 2.88775L196.214 3.79161L198.994 2.47555L198.566 1.57169L198.138 0.667825L195.358 1.98388L195.786 2.88775ZM198.566 1.57169L198.578 2.57162L201.424 2.53766L201.412 1.53773L201.4 0.537802L198.554 0.571761L198.566 1.57169ZM201.412 1.53773L201.178 2.50998L204.042 3.19919L204.276 2.22694L204.51 1.25469L201.646 0.565483L201.412 1.53773ZM204.276 2.22694L203.928 3.16438L206.782 4.2242L207.13 3.28676L207.478 2.34932L204.624 1.2895L204.276 2.22694ZM207.13 3.28676L207.467 4.22835L210.318 3.20862L209.981 2.26704L209.644 1.32545L206.793 2.34518L207.13 3.28676ZM209.981 2.26704L210.356 3.19385L213.231 2.029L212.856 1.10219L212.48 0.175386L209.605 1.34023L209.981 2.26704ZM212.856 1.10219L212.386 1.98495L215.183 3.4738L215.653 2.59104L216.123 1.70828L213.325 0.219433L212.856 1.10219ZM215.653 2.59104L215.711 3.58932L218.553 3.42282L218.494 2.42453L218.436 1.42625L215.594 1.59275L215.653 2.59104ZM218.494 2.42453L218.121 3.35207L220.904 4.47365L221.278 3.54611L221.652 2.61857L218.868 1.497L218.494 2.42453ZM221.278 3.54611L221.804 4.39685L224.791 2.55155L224.265 1.70081L223.739 0.850065L220.752 2.69537L221.278 3.54611ZM224.265 1.70081L223.547 2.39738L226.159 5.08703L226.876 4.39046L227.594 3.69388L224.982 1.00423L224.265 1.70081ZM226.876 4.39046L227.362 5.26424L230.381 3.584L229.895 2.71022L229.409 1.83644L226.39 3.51668L226.876 4.39046ZM229.895 2.71022L229.672 3.68505L232.472 4.32543L232.695 3.35061L232.918 2.37578L230.118 1.73539L229.895 2.71022ZM232.695 3.35061L232.192 4.21474L234.853 5.76437L235.356 4.90023L235.859 4.0361L233.198 2.48647L232.695 3.35061ZM235.356 4.90023L235.674 5.84837L238.678 4.84108L238.36 3.89295L238.042 2.94482L235.038 3.9521L235.356 4.90023ZM238.36 3.89295L238.31 4.89167L241.178 5.03691L241.229 4.03819L241.279 3.03947L238.411 2.89423L238.36 3.89295ZM241.229 4.03819L240.72 4.89942L243.346 6.44857L243.854 5.58734L244.362 4.72611L241.737 3.17696L241.229 4.03819ZM243.854 5.58734L243.393 6.47485L246.018 7.83758L246.479 6.95007L246.939 6.06256L244.315 4.69983L243.854 5.58734ZM246.479 6.95007L246.764 7.90848L249.835 6.99404L249.549 6.03563L249.264 5.07722L246.193 5.99166L246.479 6.95007ZM249.549 6.03563L248.901 6.79711L251.36 8.88977L252.008 8.12829L252.656 7.3668L250.198 5.27415L249.549 6.03563ZM252.008 8.12829L251.661 9.06631L254.332 10.0532L254.679 9.11514L255.025 8.17712L252.354 7.19026L252.008 8.12829ZM254.679 9.11514L254.692 10.1151L257.605 10.0769L257.592 9.07702L257.579 8.07711L254.666 8.11523L254.679 9.11514ZM257.592 9.07702L257.539 10.0756L260.428 10.2299L260.482 9.23131L260.535 8.23273L257.645 8.07844L257.592 9.07702ZM260.482 9.23131L260.051 10.1339L262.654 11.3756L263.085 10.473L263.516 9.57046L260.912 8.32873L260.482 9.23131ZM263.085 10.473L262.69 11.3917L265.308 12.5175L265.703 11.5988L266.098 10.6801L263.48 9.55435L263.085 10.473ZM265.703 11.5988L266.097 12.5181L269.507 11.0579L269.114 10.1387L268.72 9.21937L265.31 10.6795L265.703 11.5988ZM269.114 10.1387L268.433 10.8712L270.745 13.0197L271.426 12.2872L272.107 11.5546L269.794 9.40609L269.114 10.1387ZM271.426 12.2872L271.259 13.2731L274.098 13.7546L274.266 12.7687L274.433 11.7828L271.593 11.3013L271.426 12.2872ZM274.266 12.7687L273.532 13.4482L275.711 15.8005L276.444 15.121L277.178 14.4415L274.999 12.0892L274.266 12.7687ZM276.444 15.121L276.38 16.119L279.328 16.308L279.392 15.31L279.456 14.3121L276.508 14.1231L276.444 15.121ZM279.392 15.31L279.297 16.3055L282.237 16.5859L282.332 15.5904L282.427 14.5949L279.487 14.3145L279.392 15.31ZM282.332 15.5904L281.749 16.403L284.13 18.1107L284.713 17.2982L285.296 16.4856L282.915 14.7778L282.332 15.5904ZM284.713 17.2982L284.089 18.0792L286.389 19.9186L287.014 19.1375L287.638 18.3564L285.337 16.5171L284.713 17.2982ZM287.014 19.1375L287.268 20.1046L290.764 19.1861L290.51 18.2189L290.256 17.2517L286.76 18.1703L287.014 19.1375ZM290.51 18.2189L289.595 18.621L291.137 22.1326L292.053 21.7305L292.968 21.3283L291.426 17.8167L290.51 18.2189ZM292.053 21.7305L291.732 22.6778L294.423 23.587L294.743 22.6396L295.063 21.6922L292.373 20.7831L292.053 21.7305ZM294.743 22.6396L294.9 23.6272L298.315 23.0842L298.158 22.0966L298.001 21.109L294.586 21.652L294.743 22.6396ZM298.158 22.0966L297.317 22.6385L299.11 25.4191L299.951 24.8771L300.791 24.3352L298.998 21.5546L298.158 22.0966ZM299.951 24.8771L299.409 25.7175L301.798 27.2581L302.34 26.4177L302.882 25.5773L300.493 24.0368L299.951 24.8771ZM302.34 26.4177L302.415 27.4148L305.768 27.1598L305.692 26.1627L305.616 25.1656L302.264 25.4206L302.34 26.4177ZM305.692 26.1627L305.361 27.1064L308.097 28.0652L308.428 27.1215L308.759 26.1777L306.023 25.2189L305.692 26.1627ZM308.428 27.1215L307.928 27.9871L310.403 29.4191L310.904 28.5534L311.405 27.6878L308.929 26.2558L308.428 27.1215ZM310.904 28.5534L310.014 29.0084L311.548 32.0112L312.438 31.5562L313.329 31.1012L311.795 28.0984L310.904 28.5534ZM312.438 31.5562L312.186 32.5238L315.054 33.2724L315.306 32.3048L315.559 31.3372L312.691 30.5886L312.438 31.5562ZM315.306 32.3048L314.537 32.9431L316.446 35.2458L317.216 34.6075L317.986 33.9691L316.076 31.6664L315.306 32.3048ZM317.216 34.6075L316.422 35.2151L318.246 37.5993L319.04 36.9917L319.834 36.3842L318.01 33.9999L317.216 34.6075ZM319.04 36.9917L318.515 37.8428L320.914 39.3232L321.439 38.4721L321.964 37.6211L319.565 36.1407L319.04 36.9917ZM321.439 38.4721L320.925 39.33L323.352 40.7836L323.866 39.9258L324.38 39.068L321.953 37.6143L321.439 38.4721ZM323.866 39.9258L323.494 40.8539L326.191 41.9361L326.564 41.0079L326.936 40.0798L324.238 38.9977L323.866 39.9258ZM326.564 41.0079L325.865 41.724L327.912 43.719L328.61 43.0029L329.308 42.2869L327.262 40.2919L326.564 41.0079ZM328.61 43.0029L328.129 43.8796L330.634 45.2541L331.115 44.3774L331.596 43.5007L329.091 42.1262L328.61 43.0029ZM331.115 44.3774L330.729 45.2998L333.438 46.4338L333.824 45.5114L334.21 44.5889L331.501 43.455L331.115 44.3774ZM333.824 45.5114L332.913 45.9237L334.226 48.826L335.137 48.4138L336.048 48.0015L334.735 45.0991L333.824 45.5114ZM335.137 48.4138L335.028 49.4078L338.384 49.7765L338.493 48.7825L338.602 47.7885L335.246 47.4197L335.137 48.4138ZM338.493 48.7825L337.784 49.4882L339.801 51.5132L340.51 50.8075L341.218 50.1018L339.202 48.0768L338.493 48.7825ZM340.51 50.8075L339.936 51.6267L342.28 53.2673L342.853 52.4481L343.427 51.6289L341.083 49.9883L340.51 50.8075ZM342.853 52.4481L342.134 53.1433L344.119 55.1951L344.838 54.4999L345.557 53.8047L343.572 51.7529L342.853 52.4481ZM344.838 54.4999L344.483 55.435L347.352 56.5227L347.706 55.5877L348.061 54.6527L345.192 53.5649L344.838 54.4999ZM347.706 55.5877L346.881 56.1526L348.534 58.5664L349.359 58.0015L350.184 57.4365L348.531 55.0228L347.706 55.5877ZM349.359 58.0015L348.45 58.4182L349.723 61.1959L350.632 60.7792L351.541 60.3625L350.268 57.5848L349.359 58.0015ZM350.632 60.7792L350.167 61.6644L352.797 63.0473L353.263 62.1622L353.728 61.2771L351.098 59.8941L350.632 60.7792ZM353.263 62.1622L352.429 62.7151L354.031 65.1291L354.864 64.5762L355.698 64.0234L354.096 61.6093L353.263 62.1622ZM354.864 64.5762L354.251 65.3663L356.523 67.129L357.136 66.3389L357.749 65.5489L355.477 63.7862L354.864 64.5762ZM357.136 66.3389L356.417 67.0345L358.398 69.0806L359.117 68.3851L359.835 67.6895L357.854 65.6434L357.136 66.3389ZM359.117 68.3851L358.447 69.1281L360.575 71.045L361.245 70.302L361.914 69.559L359.786 67.6421L359.117 68.3851ZM361.245 70.302L360.455 70.9151L362.205 73.1709L362.995 72.5577L363.785 71.9446L362.035 69.6889L361.245 70.302ZM362.995 72.5577L362.216 73.1839L364.001 75.406L364.78 74.7798L365.56 74.1536L363.775 71.9315L362.995 72.5577ZM364.78 74.7798L363.892 75.2384L365.227 77.8267L366.116 77.3681L367.004 76.9096L365.669 74.3213L364.78 74.7798ZM366.116 77.3681L365.711 78.2826L368.639 79.5779L369.044 78.6634L369.448 77.7489L366.52 76.4537L366.116 77.3681ZM369.044 78.6634L368.044 78.6378L367.949 82.3293L368.949 82.3549L369.948 82.3806L370.043 78.6891L369.044 78.6634ZM368.949 82.3549L368.479 83.2377L371.233 84.7032L371.703 83.8204L372.173 82.9376L369.419 81.4721L368.949 82.3549ZM371.703 83.8204L370.846 84.3366L372.32 86.7821L373.177 86.2658L374.033 85.7496L372.559 83.3042L371.703 83.8204ZM373.177 86.2658L372.245 86.6296L373.311 89.3572L374.242 88.9934L375.174 88.6296L374.108 85.902L373.177 86.2658ZM374.242 88.9934L373.393 89.5218L374.891 91.9284L375.74 91.4L376.589 90.8716L375.091 88.465L374.242 88.9934ZM375.74 91.4L375.439 92.3536L378.892 93.4448L379.194 92.4912L379.495 91.5377L376.041 90.4465L375.74 91.4ZM379.194 92.4912L378.196 92.556L378.408 95.8273L379.406 95.7626L380.404 95.6978L380.192 92.4265L379.194 92.4912ZM379.406 95.7626L378.454 96.0697L379.354 98.8568L380.306 98.5497L381.257 98.2425L380.358 95.4554L379.406 95.7626ZM380.306 98.5497L379.753 99.3829L382.352 101.108L382.905 100.275L383.458 99.442L380.858 97.7165L380.306 98.5497ZM382.905 100.275L382.009 100.718L383.27 103.275L384.167 102.833L385.064 102.39L383.802 99.8328L382.905 100.275ZM384.167 102.833L383.373 103.44L385.112 105.716L385.907 105.109L386.701 104.502L384.962 102.225L384.167 102.833ZM385.907 105.109L384.908 105.072L384.786 108.398L385.785 108.435L386.784 108.472L386.906 105.146L385.907 105.109ZM385.785 108.435L385.182 109.233L387.662 111.105L388.264 110.307L388.867 109.509L386.388 107.637L385.785 108.435ZM388.264 110.307L387.441 110.875L389.065 113.229L389.888 112.661L390.711 112.093L389.087 109.739L388.264 110.307ZM389.888 112.661L388.889 112.622L388.761 115.87L389.76 115.909L390.759 115.949L390.887 112.701L389.888 112.661ZM389.76 115.909L389.185 116.727L391.829 118.585L392.404 117.767L392.979 116.949L390.335 115.091L389.76 115.909ZM392.404 117.767L391.406 117.839L391.626 120.874L392.623 120.801L393.621 120.729L393.401 117.695L392.404 117.767ZM392.623 120.801L391.665 121.087L392.479 123.821L393.438 123.536L394.396 123.25L393.582 120.516L392.623 120.801ZM393.438 123.536L392.832 124.331L395.407 126.292L396.013 125.497L396.619 124.701L394.044 122.74L393.438 123.536ZM396.013 125.497L395.014 125.453L394.876 128.595L395.875 128.639L396.874 128.683L397.012 125.54L396.013 125.497ZM395.875 128.639L394.899 128.857L395.522 131.648L396.498 131.43L397.474 131.213L396.851 128.421L395.875 128.639ZM396.498 131.43L396.114 132.354L399.883 133.922L400.267 132.999L400.651 132.075L396.882 130.507L396.498 131.43ZM400.267 132.999L399.319 132.678L398.139 136.168L399.086 136.488L400.034 136.809L401.214 133.319L400.267 132.999ZM399.086 136.488L398.112 136.711L398.746 139.483L399.721 139.26L400.696 139.037L400.061 136.265L399.086 136.488ZM399.721 139.26L398.836 139.725L400.165 142.253L401.05 141.788L401.935 141.322L400.606 138.794L399.721 139.26ZM401.05 141.788L400.374 142.524L402.771 144.725L403.447 143.988L404.123 143.252L401.726 141.051L401.05 141.788ZM403.447 143.988L402.473 143.762L401.728 146.977L402.702 147.203L403.676 147.428L404.421 144.214L403.447 143.988ZM402.702 147.203L402.025 147.939L404.452 150.17L405.129 149.434L405.806 148.697L403.379 146.466L402.702 147.203ZM405.129 149.434L404.221 149.853L405.432 152.475L406.34 152.056L407.248 151.636L406.037 149.014L405.129 149.434ZM406.34 152.056L405.343 152.13L405.56 155.032L406.557 154.957L407.555 154.882L407.337 151.981L406.34 152.056ZM406.557 154.957L405.603 154.66L404.615 157.837L405.569 158.134L406.524 158.431L407.512 155.254L406.557 154.957ZM405.569 158.134L404.822 158.799L406.957 161.199L407.704 160.534L408.451 159.87L406.317 157.469L405.569 158.134ZM407.704 160.534L406.793 160.947L407.995 163.6L408.906 163.188L409.817 162.775L408.615 160.122L407.704 160.534ZM408.906 163.188L407.909 163.256L408.107 166.135L409.105 166.066L410.102 165.997L409.904 163.119L408.906 163.188ZM409.105 166.066L408.161 165.736L407.079 168.832L408.023 169.162L408.968 169.492L410.049 166.396L409.105 166.066ZM408.023 169.162L407.411 169.952L410.428 172.292L411.041 171.502L411.654 170.712L408.636 168.372L408.023 169.162ZM411.041 171.502L410.047 171.393L409.722 174.348L410.716 174.457L411.71 174.566L412.035 171.612L411.041 171.502ZM410.716 174.457L409.763 174.758L410.633 177.512L411.586 177.21L412.54 176.909L411.67 174.156L410.716 174.457ZM411.586 177.21L410.606 177.014L410.015 179.967L410.996 180.163L411.976 180.359L412.567 177.406L411.586 177.21ZM410.996 180.163L410.122 180.65L411.619 183.336L412.492 182.85L413.366 182.363L411.869 179.676L410.996 180.163ZM412.492 182.85L411.514 182.641L410.884 185.588L411.862 185.797L412.84 186.006L413.47 183.059L412.492 182.85ZM411.862 185.797L410.929 186.156L411.989 188.911L412.923 188.551L413.856 188.192L412.796 185.438L411.862 185.797ZM412.923 188.551L411.997 188.174L410.793 191.126L411.719 191.503L412.645 191.881L413.849 188.929L412.923 188.551ZM411.719 191.503L410.907 192.087L412.867 194.811L413.679 194.227L414.49 193.643L412.531 190.919L411.719 191.503ZM413.679 194.227L412.68 194.271L412.807 197.136L413.806 197.091L414.805 197.047L414.678 194.182L413.679 194.227ZM413.806 197.091L412.814 196.966L412.452 199.83L413.444 199.955L414.436 200.081L414.799 197.217L413.806 197.091ZM413.444 199.955L412.498 199.632L411.515 202.505L412.461 202.828L413.408 203.152L414.39 200.279L413.444 199.955ZM412.461 202.828L411.559 203.259L412.912 206.095L413.815 205.664L414.717 205.233L413.364 202.398L412.461 202.828ZM413.815 205.664L412.838 205.449L412.485 207.05L413.462 207.265L414.438 207.48L414.791 205.879L413.815 205.664ZM413.462 207.265V206.265H412.608V207.265V208.265H413.462V207.265Z" fill="#FFF77C"/>
<path d="M428.155 338.319C396.095 361.951 361.244 363.078 321.638 341.714C320.827 341.276 320.421 340.314 320.679 339.429C338.723 277.583 421.334 262.769 421.312 262.603C421.29 262.437 419.393 261.336 418.1 261.305C380.393 260.35 331.975 273.051 302.791 310.476C301.641 311.951 299.241 311.266 299.172 309.397C297.915 275.3 312.174 250.703 343.344 232.645C363.212 221.74 384.725 220.704 405.529 219.706C426.341 218.706 449.773 212.442 461.192 204.672C462.473 203.8 464.297 204.452 464.485 205.99C467.195 228.167 467.678 304.332 428.155 338.319Z" fill="#C8BBE9"/>
<path d="M135.048 442.265V316.265H201.468C209.748 316.265 217.068 318.065 223.428 321.665C229.908 325.145 235.008 329.945 238.728 336.065C242.448 342.185 244.308 349.205 244.308 357.125C244.308 364.685 242.448 371.525 238.728 377.645C235.008 383.645 229.908 388.385 223.428 391.865C216.948 395.345 209.628 397.085 201.468 397.085H166.008V442.265H135.048ZM166.008 371.525H197.868C202.428 371.525 206.088 370.205 208.848 367.565C211.608 364.925 212.988 361.505 212.988 357.305C212.988 352.985 211.608 349.505 208.848 346.865C206.088 344.105 202.428 342.725 197.868 342.725H166.008V371.525ZM260.205 442.265V316.265H359.565V343.085H291.165V365.765H336.345V391.685H291.165V415.445H360.285V442.265H260.205ZM378.505 442.265V316.265H440.965C449.605 316.265 457.165 317.765 463.645 320.765C470.245 323.765 475.405 327.965 479.125 333.365C482.845 338.645 484.705 344.765 484.705 351.725C484.705 356.885 483.385 361.745 480.745 366.305C478.225 370.745 474.745 374.525 470.305 377.645C475.945 380.645 480.385 384.545 483.625 389.345C486.985 394.145 488.665 399.425 488.665 405.185C488.665 412.505 486.805 418.985 483.085 424.625C479.365 430.145 474.145 434.465 467.425 437.585C460.705 440.705 452.905 442.265 444.025 442.265H378.505ZM409.465 366.485H438.985C443.545 366.485 447.145 365.345 449.785 363.065C452.425 360.785 453.745 357.785 453.745 354.065C453.745 350.225 452.425 347.225 449.785 345.065C447.145 342.785 443.545 341.645 438.985 341.645H409.465V366.485ZM409.465 416.885H441.685C446.485 416.885 450.265 415.685 453.025 413.285C455.905 410.885 457.345 407.645 457.345 403.565C457.345 399.485 455.905 396.245 453.025 393.845C450.265 391.445 446.485 390.245 441.685 390.245H409.465V416.885ZM546.85 442.265V316.265H629.29V334.625H568.45V369.725H607.87V387.725H568.45V423.905H630.01V442.265H546.85ZM653.7 442.265V352.085H674.04V365.585C681 355.625 690.24 350.645 701.76 350.645C708 350.645 713.46 352.025 718.14 354.785C722.82 357.425 726.48 361.205 729.12 366.125C731.88 370.925 733.26 376.505 733.26 382.865V442.265H712.74V388.625C712.74 382.025 710.94 376.805 707.34 372.965C703.74 369.005 698.94 367.025 692.94 367.025C689.1 367.025 685.56 367.865 682.32 369.545C679.08 371.225 676.32 373.685 674.04 376.925V442.265H653.7ZM803.39 444.065C794.63 444.065 786.71 442.025 779.63 437.945C772.55 433.745 766.91 428.105 762.71 421.025C758.63 413.945 756.59 406.025 756.59 397.265C756.59 388.385 758.51 380.465 762.35 373.505C766.31 366.545 771.65 361.025 778.37 356.945C785.21 352.745 792.83 350.645 801.23 350.645C809.99 350.645 817.73 352.685 824.45 356.765C831.29 360.845 836.63 366.365 840.47 373.325C844.43 380.285 846.41 388.265 846.41 397.265V402.125H776.57C777.17 407.045 778.73 411.425 781.25 415.265C783.89 418.985 787.19 421.925 791.15 424.085C795.23 426.245 799.67 427.325 804.47 427.325C809.15 427.325 813.47 426.425 817.43 424.625C821.51 422.825 824.87 420.305 827.51 417.065L841.01 429.125C835.85 434.285 830.15 438.065 823.91 440.465C817.67 442.865 810.83 444.065 803.39 444.065ZM776.75 389.345H826.97C826.25 384.905 824.69 381.065 822.29 377.825C820.01 374.465 817.07 371.885 813.47 370.085C809.99 368.165 806.03 367.205 801.59 367.205C797.39 367.205 793.55 368.105 790.07 369.905C786.71 371.705 783.89 374.285 781.61 377.645C779.33 380.885 777.71 384.785 776.75 389.345ZM868.839 442.265V426.245H891.159V368.285H868.839V352.085H911.499V373.505C914.499 365.945 918.579 360.245 923.739 356.405C929.019 352.565 935.019 350.645 941.739 350.645C944.499 350.645 946.839 350.885 948.759 351.365C950.679 351.725 952.959 352.385 955.599 353.345V371.885C952.959 370.805 950.139 370.025 947.139 369.545C944.259 368.945 941.439 368.645 938.679 368.645C932.799 368.645 927.459 370.085 922.659 372.965C917.859 375.725 914.139 379.685 911.499 384.845V426.245H935.259V442.265H868.839ZM1015.83 481.685C1009.47 481.685 1003.17 480.905 996.929 479.345C990.809 477.785 985.109 475.625 979.829 472.865L986.849 457.925C992.129 460.445 997.049 462.305 1001.61 463.505C1006.17 464.825 1010.67 465.485 1015.11 465.485C1029.63 465.485 1036.89 458.825 1036.89 445.505V431.285C1033.65 435.005 1029.75 437.945 1025.19 440.105C1020.75 442.145 1015.95 443.165 1010.79 443.165C1003.35 443.165 996.569 441.125 990.449 437.045C984.449 432.845 979.649 427.265 976.049 420.305C972.569 413.345 970.829 405.605 970.829 397.085C970.829 388.565 972.689 380.885 976.409 374.045C980.129 367.085 985.109 361.565 991.349 357.485C997.589 353.405 1004.49 351.365 1012.05 351.365C1016.97 351.365 1021.53 352.325 1025.73 354.245C1030.05 356.165 1033.83 358.925 1037.07 362.525V352.085H1057.05V445.505C1057.05 457.145 1053.51 466.085 1046.43 472.325C1039.47 478.565 1029.27 481.685 1015.83 481.685ZM1016.55 426.425C1020.75 426.425 1024.53 425.585 1027.89 423.905C1031.37 422.225 1034.37 419.945 1036.89 417.065V377.285C1034.37 374.405 1031.31 372.185 1027.71 370.625C1024.23 368.945 1020.51 368.105 1016.55 368.105C1011.51 368.105 1007.07 369.365 1003.23 371.885C999.389 374.285 996.389 377.705 994.229 382.145C992.069 386.465 990.989 391.505 990.989 397.265C990.989 402.785 992.069 407.765 994.229 412.205C996.389 416.645 999.389 420.125 1003.23 422.645C1007.07 425.165 1011.51 426.425 1016.55 426.425ZM1094.06 481.685C1091.9 481.685 1089.5 481.505 1086.86 481.145C1084.34 480.905 1081.88 480.545 1079.48 480.065V462.065C1082 462.545 1084.1 462.905 1085.78 463.145C1087.58 463.385 1089.56 463.505 1091.72 463.505C1095.8 463.505 1099.16 462.725 1101.8 461.165C1104.56 459.725 1106.66 457.205 1108.1 453.605L1112.24 443.705L1077.14 352.085H1099.46L1123.94 419.585L1150.04 352.085H1171.82L1127.54 457.925C1125.14 463.685 1122.44 468.305 1119.44 471.785C1116.56 475.265 1113.08 477.785 1109 479.345C1105.04 480.905 1100.06 481.685 1094.06 481.685Z" fill="black"/>
</svg>
